<?xml version="1.0" encoding="UTF-8"?>
<!DOCTYPE svg PUBLIC "-//W3C//DTD SVG 1.1//EN" "http://www.w3.org/Graphics/SVG/1.1/DTD/svg11.dtd">
<svg version="1.1" id="Layer_1" xmlns="http://www.w3.org/2000/svg" xmlns:xlink="http://www.w3.org/1999/xlink" x="0px" y="0px" width="16px" height="16px" viewBox="0 0 16 16" enable-background="new 0 0 16 16" xml:space="preserve">
  <g id="main">
    <g id="icon">
      <path d="M1.5,13.13L1.528,13.41L1.608,13.67L1.734,13.9L1.901,14.1L2.103,14.27L2.335,14.39L2.591,14.47L2.865,14.5L6.663,14.5L6.401,14.04L6.145,13.45L5.956,12.83L5.84,12.18L5.8,11.5L5.829,10.92L5.916,10.35L6.057,9.807L6.249,9.283L6.489,8.785L6.5,8.767L6.775,8.315L7.103,7.876L7.471,7.471L7.876,7.103L8.315,6.775L8.5,6.662L8.785,6.489L9.283,6.249L9.807,6.057L10.35,5.916L10.92,5.829L11.5,5.8L11.5,2.5L1.5,2.5zz" fill="#FFFFFF"/>
      <path d="M0,3L1,3L1,13.13L1,13.16L1.003,13.19L1.03,13.46L1.036,13.51L1.051,13.56L1.13,13.81L1.145,13.86L1.169,13.9L1.295,14.14L1.318,14.18L1.348,14.22L1.515,14.42L1.546,14.45L1.582,14.48L1.785,14.65L1.822,14.68L1.864,14.71L2.096,14.83L2.139,14.86L2.186,14.87L2.442,14.95L2.49,14.96L2.54,14.97L2.814,15L2.84,15L2.865,15L7.014,15L6.72,14.6L6.401,14.04L6.382,14L2.89,14L2.692,13.98L2.531,13.93L2.384,13.85L2.256,13.74L2.15,13.62L2.07,13.47L2.02,13.31L2,13.11L2,3L11,3L11,5.825L11.5,5.8L12,5.829L12,3L13,3L13,2L12,2L11.5,2L1.5,2L1,2L0,2zM4,12L5,12L5,5L4,5zM6,10.03L6.057,9.807L6.249,9.283L6.489,8.785L6.775,8.315L7,8.014L7,5L6,5zM8,7.011L8.315,6.775L8.785,6.489L9,6.385L9,5L8,5zz" fill="#383838"/>
      <path d="M5.084,0.009961L4.818,0.06367L4.72,0.0834L4.638,0.1393L4.421,0.2855L4.34,0.34L4.286,0.4205L4.139,0.6377L4.083,0.7203L4.064,0.8182L4.01,1.084L4,1.133L4,1.183L4,2.5L5,2.5L5,1.233L5.024,1.114L5.06,1.06L5.114,1.024L5.233,1L7.768,1L7.886,1.024L7.94,1.06L7.976,1.114L8,1.233L8,2.5L9,2.5L9,1.183L9,1.133L8.99,1.084L8.936,0.8182L8.917,0.7205L8.861,0.6379L8.715,0.4207L8.66,0.34L8.58,0.2857L8.363,0.1393L8.28,0.0834L8.182,0.06367L7.917,0.009961L7.868,0L7.818,0L5.183,0L5.133,0zz" fill="#383838"/>
    </g>
    <g id="overlay">
      <path d="M11.5,7.5c-2.209,0,-4,1.791,-4,4c0,2.209,1.791,4,4,4s4,-1.791,4,-4C15.5,9.291,13.709,7.5,11.5,7.5zM13.654,12.946l-0.707,0.707L11.5,12.207l-1.446,1.446l-0.707,-0.707L10.793,11.5l-1.446,-1.446l0.707,-0.707L11.5,10.793l1.446,-1.446l0.707,0.707L12.207,11.5L13.654,12.946z" fill="#F7BFBF"/>
      <path d="M11.5,7.5c-2.209,0,-4,1.791,-4,4c0,2.209,1.791,4,4,4s4,-1.791,4,-4C15.5,9.291,13.709,7.5,11.5,7.5zM13.654,12.946l-0.707,0.707L11.5,12.207l-1.446,1.446l-0.707,-0.707L10.793,11.5l-1.446,-1.446l0.707,-0.707L11.5,10.793l1.446,-1.446l0.707,0.707L12.207,11.5L13.654,12.946z" fill="#DB2E2A" opacity="0.3"/>
      <path d="M11.5,16c-2.481,0,-4.5,-2.019,-4.5,-4.5s2.019,-4.5,4.5,-4.5s4.5,2.019,4.5,4.5S13.981,16,11.5,16zM11.5,8c-1.93,0,-3.5,1.57,-3.5,3.5s1.57,3.5,3.5,3.5s3.5,-1.57,3.5,-3.5S13.43,8,11.5,8z" fill="#DB2E2A"/>
      <polygon points="12.946,13.654 11.5,12.207 10.054,13.654 9.346,12.946 10.793,11.5 9.346,10.054 10.054,9.346 11.5,10.793 12.946,9.346 13.654,10.054 12.207,11.5 13.654,12.946" fill="#FFFFFF" stroke-linejoin="miter"/>
    </g>
  </g>
</svg>
