<?xml version="1.0" encoding="UTF-8"?>
<!DOCTYPE svg PUBLIC "-//W3C//DTD SVG 1.1//EN" "http://www.w3.org/Graphics/SVG/1.1/DTD/svg11.dtd">
<svg version="1.1" id="Layer_1" xmlns="http://www.w3.org/2000/svg" xmlns:xlink="http://www.w3.org/1999/xlink" x="0px" y="0px" width="16px" height="16px" viewBox="0 0 16 16" enable-background="new 0 0 16 16" xml:space="preserve">
  <g id="main">
    <g id="icon">
      <path d="M0.8506,1.545L0.6682,1.668L0.5451,1.851L0.5,2.074L0.5,4.5L5.8,4.5L5.84,3.825L5.956,3.172L6.145,2.548L6.401,1.956L6.566,1.668L6.335,1.551L6.011,1.5L1.074,1.5zz" fill="#FFFFFF"/>
      <path d="M0.975,1.01L0.7516,1.055L0.6537,1.075L0.5711,1.13L0.3887,1.254L0.308,1.308L0.2535,1.389L0.1305,1.571L0.0748,1.654L0.05508,1.752L0.009961,1.975L0,2.024L0,2.074L0,4.5L0,5L0.5,5L5.825,5L5.8,4.5L5.829,4L1,4L1,2.124L1.015,2.047L1.028,2.028L1.047,2.015L1.124,2L5.971,2L6.18,2.033L6.334,2.111L6.401,1.956L6.72,1.401L6.835,1.243L6.56,1.105L6.49,1.07L6.413,1.057L6.089,1.006L6.05,1L6.011,1L1.074,1L1.024,1zz" fill="#E57428"/>
      <path d="M0.5,14.5L14.5,14.5L14.5,9.337L14.04,9.599L13.45,9.855L12.83,10.04L12.18,10.16L11.5,10.2L10.92,10.17L10.35,10.08L9.807,9.943L9.283,9.751L8.785,9.511L8.315,9.225L7.876,8.897L7.471,8.529L7.103,8.124L6.775,7.685L6.489,7.215L6.249,6.717L6.057,6.193L5.916,5.647L5.829,5.082L5.8,4.5L0.5,4.5zz" fill="#F7DA8E"/>
      <path d="M0,4.5L0,14.5L0,15L0.5,15L14.5,15L15,15L15,14.5L15,8.986L14.6,9.28L14.04,9.599L14,9.618L14,14L1,14L1,5L5.825,5L5.8,4.5L5.829,4L0.5,4L0,4zz" fill="#E57428"/>
    </g>
    <g id="overlay">
      <path d="M11.5,8.5c2.209,0,4,-1.791,4,-4c0,-2.209,-1.791,-4,-4,-4S7.5,2.291,7.5,4.5C7.5,6.709,9.291,8.5,11.5,8.5zM11.5,1.824l2.564,2.533l-0.703,0.711L12,3.723v3.292h-1V3.723L9.639,5.068l-0.703,-0.711L11.5,1.824z" fill="#92CBEE"/>
      <path d="M11.5,8.5c2.209,0,4,-1.791,4,-4c0,-2.209,-1.791,-4,-4,-4S7.5,2.291,7.5,4.5C7.5,6.709,9.291,8.5,11.5,8.5zM11.5,1.824l2.564,2.533l-0.703,0.711L12,3.723v3.292h-1V3.723L9.639,5.068l-0.703,-0.711L11.5,1.824z" fill="#0964B0" opacity="0.2"/>
      <path d="M11.5,0c2.481,0,4.5,2.019,4.5,4.5s-2.019,4.5,-4.5,4.5S7,6.981,7,4.5S9.019,0,11.5,0zM11.5,8c1.93,0,3.5,-1.57,3.5,-3.5s-1.57,-3.5,-3.5,-3.5S8,2.57,8,4.5S9.57,8,11.5,8z" fill="#0964B0"/>
      <polygon points="11.5,1.824 14.064,4.356 13.361,5.068 12,3.723 12,7.016 11,7.016 11,3.723 9.639,5.068 8.936,4.356" fill="#FFFFFF" stroke-linejoin="miter"/>
    </g>
  </g>
</svg>
