<?xml version="1.0" encoding="UTF-8"?>
<!DOCTYPE svg PUBLIC "-//W3C//DTD SVG 1.1//EN" "http://www.w3.org/Graphics/SVG/1.1/DTD/svg11.dtd">
<svg version="1.1" id="Layer_1" xmlns="http://www.w3.org/2000/svg" xmlns:xlink="http://www.w3.org/1999/xlink" x="0px" y="0px" width="16px" height="16px" viewBox="0 0 16 16" enable-background="new 0 0 16 16" xml:space="preserve">
  <g id="icon">
    <path d="M9,12.5H0.5V4.5h8.5V12.5zM12,4.5v8h3.5V4.5H12z" fill="#FFFFFF"/>
    <path d="M16,4v9h-4v-1h3V5h-3V4H16zM9,12H1V5h8V4H0v9h9V12z" fill="#383838"/>
    <path d="M9,10.5H2.5V6.5h6.5V10.5zM12,6.5v4h1.5V6.5H12z" fill="#92CBEE"/>
    <path d="M9,11H2V6h7v1H3v3h6V11zM12,6v1h1v3h-1v1h2V6H12z" fill="#0964B0"/>
    <path d="M7,1.5h0.958C9.362,1.5,10.5,2.659,10.5,4.088v8.824C10.5,14.341,9.362,15.5,7.958,15.5H7" fill="none" stroke="#383838" stroke-width="1" stroke-miterlimit="50"/>
    <path d="M14,1.5h-0.958C11.638,1.5,10.5,2.659,10.5,4.088v8.824c0,1.429,1.138,2.588,2.542,2.588H14" fill="none" stroke="#383838" stroke-width="1" stroke-miterlimit="50"/>
  </g>
</svg>
