<?xml version="1.0" encoding="UTF-8"?>
<!DOCTYPE svg PUBLIC "-//W3C//DTD SVG 1.1//EN" "http://www.w3.org/Graphics/SVG/1.1/DTD/svg11.dtd">
<svg version="1.1" id="Layer_1" xmlns="http://www.w3.org/2000/svg" xmlns:xlink="http://www.w3.org/1999/xlink" x="0px" y="0px" width="16px" height="16px" viewBox="0 0 16 16" enable-background="new 0 0 16 16" xml:space="preserve">
  <g id="main">
    <g id="icon">
      <path d="M9.433,1.972L8.604,2.8L10.2,2.8L10.2,6.2L8.604,6.2L9.432,7.028L7.028,9.433L6.2,8.604L6.2,10.2L2.8,10.2L2.8,8.604L2.5,8.904L2.5,15.5L14.5,15.5L14.5,1.5L8.961,1.5zz" fill="#FFFFFF"/>
      <path d="M9.433,1.972L9.405,2L14,2L14,15L3,15L3,10.2L2.8,10.2L2.8,8.604L2,9.404L2,15.5L2,16L2.5,16L14.5,16L15,16L15,15.5L15,1.5L15,1L14.5,1L8.461,1zz" fill="#383838"/>
    </g>
    <g id="overlay">
      <path d="M4.5,0v9M9,4.5H0M7.382,1.618L1.618,7.382M7.382,7.382L1.618,1.618" fill="none" stroke="#ED8730" stroke-width="1" stroke-miterlimit="10"/>
    </g>
  </g>
</svg>
