<?xml version="1.0" encoding="UTF-8"?>
<!DOCTYPE svg PUBLIC "-//W3C//DTD SVG 1.1//EN" "http://www.w3.org/Graphics/SVG/1.1/DTD/svg11.dtd">
<svg version="1.1" id="Layer_1" xmlns="http://www.w3.org/2000/svg" xmlns:xlink="http://www.w3.org/1999/xlink" x="0px" y="0px" width="16px" height="16px" viewBox="0 0 16 16" enable-background="new 0 0 16 16" xml:space="preserve">
  <g id="main">
    <g id="icon">
      <path d="M10.93,0.008008L10.87,0.01348L10.81,0.02969L10.38,0.1588L10.32,0.1754L10.27,0.2029L9.857,0.4178L9.803,0.4459L9.756,0.4844L9.388,0.7852L9.364,0.8045L9.342,0.826L6.206,3.966L7.055,4.814L10.17,1.696L10.47,1.452L10.77,1.293L11.1,1.197L11.43,1.165L11.77,1.197L12.09,1.293L12.4,1.453L12.7,1.696L13.3,2.305L13.55,2.603L13.71,2.907L13.8,3.232L13.83,3.57L13.8,3.907L13.71,4.232L13.55,4.537L13.3,4.836L12.28,5.859L12.83,5.956L13.45,6.145L13.62,6.217L14.17,5.662L14.2,5.64L14.22,5.617L14.52,5.247L14.55,5.201L14.58,5.147L14.8,4.737L14.82,4.684L14.84,4.628L14.97,4.19L14.99,4.135L14.99,4.078L15.03,3.626L15.04,3.57L15.03,3.513L14.99,3.062L14.99,3.004L14.97,2.949L14.84,2.512L14.82,2.455L14.8,2.403L14.58,1.993L14.55,1.939L14.52,1.892L14.22,1.523L14.2,1.5L14.17,1.478L13.52,0.826L13.5,0.8045L13.48,0.7852L13.11,0.4844L13.06,0.4459L13.01,0.4178L12.6,0.2029L12.55,0.1754L12.49,0.1588L12.05,0.02969L12,0.01348L11.94,0.008008L11.86,0L11.01,0zz" fill="#D43318"/>
      <path d="M0.8266,9.337L0.8043,9.359L0.7846,9.383L0.4842,9.753L0.4459,9.799L0.4178,9.853L0.2031,10.26L0.1758,10.32L0.1592,10.37L0.03027,10.81L0.01406,10.87L0.008594,10.92L-0,11.01L0,11.85L0.008594,11.94L0.01406,12L0.03047,12.05L0.1592,12.49L0.1758,12.55L0.2031,12.6L0.418,13.01L0.4459,13.06L0.4842,13.11L0.7848,13.48L0.8039,13.5L0.8254,13.52L1.476,14.17L1.498,14.2L1.521,14.21L1.89,14.52L1.937,14.55L1.991,14.58L2.401,14.8L2.453,14.82L2.509,14.84L2.946,14.97L3.002,14.99L3.059,14.99L3.51,15.03L3.567,15.04L3.624,15.03L4.075,14.99L4.132,14.99L4.188,14.97L4.625,14.84L4.681,14.82L4.734,14.8L5.143,14.58L5.197,14.55L5.244,14.52L5.612,14.21L5.635,14.2L5.656,14.18L6.216,13.62L6.145,13.45L5.956,12.83L5.859,12.28L4.832,13.3L4.532,13.55L4.228,13.71L3.904,13.8L3.567,13.83L3.23,13.8L2.906,13.71L2.602,13.55L2.304,13.3L1.696,12.7L1.453,12.4L1.294,12.09L1.198,11.77L1.166,11.43L1.198,11.09L1.294,10.77L1.453,10.46L1.696,10.16L4.773,7.098L3.927,6.248zz" fill="#D43318"/>
      <path d="M4.656,2.813L5.656,2.813L5.656,0L4.656,0zM0.8145,1.441L2.851,3.478L3.559,2.771L1.521,0.7334zM0,5.656L2.813,5.656L2.813,4.656L0,4.656zz" fill="#64180B"/>
    </g>
    <g id="overlay">
      <path d="M15.5,11.5c0,2.209,-1.791,4,-4,4s-4,-1.791,-4,-4s1.791,-4,4,-4S15.5,9.291,15.5,11.5z" fill="#FFFFFF" stroke="#EE3D3B" stroke-width="1" stroke-miterlimit="10"/>
      <path d="M9.488,12.112L11.5,10.127l2.012,1.986M11.5,14.2l0,-4.022M9.5,9.5h4" fill="none" stroke="#EE3D3B" stroke-width="1" stroke-miterlimit="10"/>
    </g>
  </g>
</svg>
