<?xml version="1.0" encoding="UTF-8"?>
<!DOCTYPE svg PUBLIC "-//W3C//DTD SVG 1.1//EN" "http://www.w3.org/Graphics/SVG/1.1/DTD/svg11.dtd">
<svg version="1.1" id="Layer_1" xmlns="http://www.w3.org/2000/svg" xmlns:xlink="http://www.w3.org/1999/xlink" x="0px" y="0px" width="16px" height="16px" viewBox="0 0 16 16" enable-background="new 0 0 16 16" xml:space="preserve">
  <g id="main">
    <g id="icon">
      <path d="M10.87,0.05586L10.33,0.2201L9.836,0.4873L9.394,0.852L5.346,4.928L4.975,5.385L4.71,5.893L4.552,6.434L4.499,6.992L4.552,7.55L4.711,8.091L4.976,8.599L5.347,9.057L5.979,9.693L6.07,9.771L6.249,9.283L6.489,8.785L6.557,8.674L6.141,8.256L5.914,7.975L5.752,7.664L5.654,7.333L5.622,6.991L5.654,6.649L5.752,6.317L5.914,6.006L6.141,5.726L10.19,1.651L10.46,1.428L10.76,1.264L11.09,1.164L11.44,1.13L11.79,1.164L12.13,1.264L12.43,1.428L12.7,1.651L13.36,2.315L13.59,2.596L13.75,2.907L13.85,3.238L13.88,3.58L13.85,3.922L13.75,4.253L13.59,4.564L13.36,4.844L12.34,5.868L12.83,5.956L13.45,6.145L13.59,6.205L14.15,5.644L14.52,5.187L14.79,4.679L14.95,4.138L15,3.58L14.95,3.022L14.79,2.481L14.52,1.973L14.15,1.516L13.49,0.852L13.05,0.4873L12.56,0.2201L12.01,0.05586L11.44,0zz" fill="#228BCB"/>
      <path d="M7.73,5.41L7.536,5.719L7.904,5.89L8.234,6.148L8.655,6.568L8.785,6.489L9.283,6.249L9.741,6.081L9.663,5.985L9.029,5.352L8.687,5.06L8.314,4.828zM0.848,9.383L0.477,9.838L0.2117,10.34L0.05273,10.88L-0,11.43L0,11.44L0.05273,11.99L0.2117,12.53L0.477,13.04L0.848,13.49L1.508,14.15L1.95,14.52L2.447,14.78L2.988,14.94L3.56,15L4.132,14.94L4.673,14.78L5.17,14.52L5.612,14.15L6.195,13.57L6.145,13.45L5.956,12.83L5.863,12.31L4.815,13.36L4.545,13.58L4.24,13.74L3.909,13.84L3.559,13.87L3.209,13.84L2.878,13.74L2.573,13.58L2.303,13.36L1.643,12.69L1.416,12.42L1.253,12.11L1.156,11.78L1.123,11.44L1.155,11.1L1.253,10.77L1.415,10.46L1.642,10.18L3.732,8.102L3.58,7.4L3.561,6.685zz" fill="#228BCB"/>
    </g>
    <g id="overlay">
      <path d="M11.5,7.5c-2.209,0,-4,1.791,-4,4c0,2.209,1.791,4,4,4s4,-1.791,4,-4C15.5,9.291,13.709,7.5,11.5,7.5zM13.5,13v1H9.5v-1h1.417l-1.78,-1.756l0.702,-0.712L11,11.678V8.8h1v2.878l1.161,-1.146l0.702,0.712L12.083,13H13.5z" fill="#B2DBB4"/>
      <path d="M11.5,7.5c-2.209,0,-4,1.791,-4,4c0,2.209,1.791,4,4,4s4,-1.791,4,-4C15.5,9.291,13.709,7.5,11.5,7.5zM13.5,13v1H9.5v-1h1.417l-1.78,-1.756l0.702,-0.712L11,11.678V8.8h1v2.878l1.161,-1.146l0.702,0.712L12.083,13H13.5z" fill="#009949" opacity="0.2"/>
      <path d="M11.5,16c-2.481,0,-4.5,-2.019,-4.5,-4.5s2.019,-4.5,4.5,-4.5s4.5,2.019,4.5,4.5S13.981,16,11.5,16zM11.5,8c-1.93,0,-3.5,1.57,-3.5,3.5s1.57,3.5,3.5,3.5s3.5,-1.57,3.5,-3.5S13.43,8,11.5,8z" fill="#009949"/>
      <polygon points="13.5,14 9.5,14 9.5,13 10.917,13 9.137,11.244 9.839,10.532 11,11.678 11,8.8 12,8.8 12,11.678 13.161,10.532 13.863,11.244 12.083,13 13.5,13" fill="#FFFFFF" stroke-linejoin="miter"/>
    </g>
  </g>
</svg>
