<?xml version="1.0" encoding="UTF-8"?>
<!DOCTYPE svg PUBLIC "-//W3C//DTD SVG 1.1//EN" "http://www.w3.org/Graphics/SVG/1.1/DTD/svg11.dtd">
<svg version="1.1" id="Layer_1" xmlns="http://www.w3.org/2000/svg" xmlns:xlink="http://www.w3.org/1999/xlink" x="0px" y="0px" width="16px" height="16px" viewBox="0 0 16 16" enable-background="new 0 0 16 16" xml:space="preserve">
  <g id="icon">
    <path d="M12.927,11.415c1.421,0,2.573,-1.22,2.573,-2.724c0,-1.26,-0.809,-2.321,-1.907,-2.631C13.339,4.05,11.714,2.5,9.747,2.5c-1.592,0,-2.96,1.015,-3.559,2.468" fill="#FFFFFF" stroke="#383838" stroke-width="1" stroke-miterlimit="50"/>
    <path d="M9.17,7.053c0.416,-0.247,0.888,-0.388,1.39,-0.388c1.66,0,3.005,1.53,3.005,3.417c0,1.887,-1.345,3.417,-3.005,3.417H2.895C1.572,13.5,0.5,12.28,0.5,10.776c0,-1.26,0.753,-2.321,1.775,-2.631c0.237,-2.009,1.749,-3.559,3.581,-3.559C7.339,4.585,8.612,5.601,9.17,7.053c0.193,0.503,0.301,1.059,0.301,1.643" fill="#92CBEE" stroke="#0964B0" stroke-width="1" stroke-miterlimit="50"/>
  </g>
</svg>
