<?xml version="1.0" encoding="UTF-8"?>
<!DOCTYPE svg PUBLIC "-//W3C//DTD SVG 1.1//EN" "http://www.w3.org/Graphics/SVG/1.1/DTD/svg11.dtd">
<svg version="1.1" id="Layer_1" xmlns="http://www.w3.org/2000/svg" xmlns:xlink="http://www.w3.org/1999/xlink" x="0px" y="0px" width="16px" height="16px" viewBox="0 0 16 16" enable-background="new 0 0 16 16" xml:space="preserve">
  <g id="main">
    <g id="icon">
      <path d="M10.87,0.05586L10.33,0.2201L9.836,0.4873L9.394,0.852L5.346,4.928L4.975,5.385L4.71,5.893L4.552,6.434L4.499,6.992L4.552,7.55L4.711,8.091L4.976,8.599L5.347,9.057L5.979,9.693L6.32,9.987L6.686,10.21L6.733,10.12L7.008,9.736L6.984,9.667L7.037,9.701L7.469,9.323L7.103,9.152L6.774,8.892L6.141,8.256L5.914,7.975L5.752,7.664L5.654,7.333L5.622,6.991L5.654,6.649L5.752,6.317L5.914,6.006L6.141,5.726L10.19,1.651L10.46,1.428L10.76,1.264L11.09,1.164L11.44,1.13L11.79,1.164L12.13,1.264L12.43,1.428L12.7,1.651L13.36,2.315L13.59,2.596L13.75,2.907L13.85,3.238L13.88,3.58L13.85,3.922L13.75,4.253L13.59,4.564L13.36,4.844L11.48,6.728L11.65,6.696L12.06,6.341L12.54,6.075L13.06,5.907L13.63,5.849L13.93,5.87L14.15,5.644L14.52,5.187L14.79,4.679L14.95,4.138L15,3.58L14.95,3.022L14.79,2.481L14.52,1.973L14.15,1.516L13.49,0.852L13.05,0.4873L12.56,0.2201L12.01,0.05586L11.44,0zz" fill="#228BCB"/>
      <path d="M7.73,5.41L7.536,5.719L7.904,5.89L8.234,6.148L8.867,6.78L9.094,7.059L9.257,7.369L9.346,7.672L9.805,7.335L10.34,7.086L10.3,6.946L10.03,6.441L9.663,5.985L9.029,5.352L8.687,5.06L8.314,4.828zM0.848,9.383L0.477,9.838L0.2117,10.34L0.05273,10.88L-0,11.43L0,11.44L0.05273,11.99L0.2117,12.53L0.477,13.04L0.848,13.49L1.508,14.15L1.95,14.52L2.447,14.78L2.988,14.94L3.56,15L4.132,14.94L4.673,14.78L5.17,14.52L5.612,14.15L6.794,12.97L6.727,12.88L6.523,12.45L6.396,11.99L6.378,11.79L4.815,13.36L4.545,13.58L4.24,13.74L3.909,13.84L3.559,13.87L3.209,13.84L2.878,13.74L2.573,13.58L2.303,13.36L1.643,12.69L1.416,12.42L1.253,12.11L1.156,11.78L1.123,11.44L1.155,11.1L1.253,10.77L1.415,10.46L1.642,10.18L3.732,8.102L3.58,7.4L3.561,6.685zz" fill="#228BCB"/>
    </g>
    <g id="overlay">
      <path d="M9.245,12.549c0.433,1.259,1.631,2.164,3.041,2.164c0.101,0,0.202,-0.005,0.301,-0.014M14.503,13.828c0.614,-0.584,0.997,-1.407,0.997,-2.32c0,-0.916,-0.386,-1.742,-1.004,-2.326M12.583,8.317c-0.098,-0.009,-0.197,-0.014,-0.297,-0.014c-1.404,0,-2.598,0.898,-3.035,2.149" fill="none" stroke="#228BCB" stroke-width="0.9" stroke-miterlimit="10"/>
      <path d="M9.25,10.452c0.507,0.084,0.893,0.521,0.893,1.048c0,0.528,-0.389,0.966,-0.898,1.049M9.25,10.452c-0.058,-0.01,-0.118,-0.015,-0.179,-0.015C8.48,10.437,8,10.913,8,11.5c0,0.587,0.48,1.063,1.071,1.063c0.059,0,0.117,-0.005,0.173,-0.014M14.496,9.182c0.126,-0.174,0.201,-0.388,0.201,-0.619c0,-0.587,-0.48,-1.063,-1.071,-1.063c-0.507,0,-0.931,0.349,-1.042,0.817M12.583,8.317c-0.019,0.079,-0.029,0.161,-0.029,0.245c0,0.587,0.48,1.063,1.071,1.063c0.359,0,0.676,-0.175,0.871,-0.444M12.586,14.698c0.117,0.461,0.538,0.802,1.039,0.802c0.592,0,1.071,-0.476,1.071,-1.063c0,-0.227,-0.072,-0.437,-0.194,-0.609M14.503,13.828c-0.194,-0.274,-0.515,-0.454,-0.878,-0.454c-0.592,0,-1.071,0.476,-1.071,1.063c0,0.09,0.011,0.177,0.033,0.261" fill="#FFFFFF" stroke="#228BCB" stroke-width="0.9" stroke-miterlimit="10"/>
    </g>
  </g>
</svg>
