<?xml version="1.0" encoding="UTF-8"?>
<!DOCTYPE svg PUBLIC "-//W3C//DTD SVG 1.1//EN" "http://www.w3.org/Graphics/SVG/1.1/DTD/svg11.dtd">
<svg version="1.1" id="Layer_1" xmlns="http://www.w3.org/2000/svg" xmlns:xlink="http://www.w3.org/1999/xlink" x="0px" y="0px" width="16px" height="16px" viewBox="0 0 16 16" enable-background="new 0 0 16 16" xml:space="preserve">
  <g id="main">
    <g id="icon">
      <path d="M0.5,14.5L3.98,14.5L3.871,14.13L3.8,13.4L3.8,12.6L3.877,11.84L4.099,11.12L4.45,10.48L4.914,9.914L5.477,9.45L6.123,9.099L6.836,8.877L7.601,8.8L9.8,8.8L11.6,8.8L13.4,8.8L14.13,8.871L14.5,8.981L14.5,3.5L0.5,3.5zz" fill="#FFFFFF"/>
      <path d="M0,3.5L0,14.5L0,15L0.5,15L4.169,15L4.077,14.82L3.871,14.13L3.858,14L1,14L1,4L14,4L14,8.858L14.13,8.871L14.82,9.077L15,9.169L15,3.5L15,3L14.5,3L0.5,3L0,3zz" fill="#383838"/>
      <path d="M0.5,3.5L14.5,3.5L14.5,0.5L0.5,0.5zz" fill="#92CBEE"/>
      <path d="M0,0.5L0,3.5L0,4L0.5,4L14.5,4L15,4L15,3.5L15,0.5L15,0L14.5,0L0.5,0L0,0zM14,1L14,3L1,3L1,1zz" fill="#0964B0"/>
      <path d="M3,7L12,7L12,6L3,6zz" fill="#787979"/>
      <path d="M3,9L6.442,9L6.836,8.877L7.601,8.8L9.8,8.8L11.6,8.8L12,8.8L12,8L3,8zz" fill="#787979"/>
      <path d="M3,11L4.166,11L4.45,10.48L4.844,10L3,10zz" fill="#787979"/>
    </g>
    <g id="overlay">
      <path d="M9.5,14v-1.399c0,-1.155,0.945,-2.101,2.101,-2.101h1.799c1.155,0,2.101,0.945,2.101,2.101v0.799c0,1.155,-0.945,2.101,-2.101,2.101H12.4M8.6,10.5h-0.999C6.445,10.5,5.5,11.445,5.5,12.601v0.799C5.5,14.555,6.445,15.5,7.601,15.5h1.799c1.155,0,2.101,-0.945,2.101,-2.101V12" fill="none" stroke="#228BCB" stroke-width="1" stroke-miterlimit="10"/>
    </g>
  </g>
</svg>
