<?xml version="1.0" encoding="UTF-8"?>
<!DOCTYPE svg PUBLIC "-//W3C//DTD SVG 1.1//EN" "http://www.w3.org/Graphics/SVG/1.1/DTD/svg11.dtd">
<svg version="1.1" id="Layer_1" xmlns="http://www.w3.org/2000/svg" xmlns:xlink="http://www.w3.org/1999/xlink" x="0px" y="0px" width="16px" height="16px" viewBox="0 0 16 16" enable-background="new 0 0 16 16" xml:space="preserve">
  <g id="main">
    <g id="icon">
      <path d="M0.5,4.5L14.5,4.5L14.5,0.5L0.5,0.5zz" fill="#FFFFFF"/>
      <path d="M0,0.5L0,4.5L0,5L0.5,5L14.5,5L15,5L15,4.5L15,0.5L15,0L14.5,0L0.5,0L0,0zM14,1L14,4L1,4L1,1zz" fill="#383838"/>
      <path d="M2,3L4,3L4,2L2,2zz" fill="#238BCB"/>
      <path d="M0.5,8.5L6.662,8.5L6.775,8.315L7.103,7.876L7.471,7.471L7.876,7.103L8.315,6.775L8.785,6.489L9.283,6.249L9.807,6.057L10.35,5.916L10.92,5.829L11.5,5.8L12.18,5.84L12.83,5.956L13.45,6.145L14.04,6.401L14.5,6.663L14.5,4.5L0.5,4.5zz" fill="#FFFFFF"/>
      <path d="M0,4.5L0,8.5L0,9L0.5,9L6.385,9L6.489,8.785L6.775,8.315L7.011,8L1,8L1,5L14,5L14,6.382L14.04,6.401L14.6,6.72L15,7.014L15,4.5L15,4L14.5,4L0.5,4L0,4zz" fill="#383838"/>
      <path d="M2,7L4,7L4,6L2,6zz" fill="#238BCB"/>
      <path d="M0.5,12.5L5.898,12.5L5.84,12.18L5.8,11.5L5.829,10.92L5.916,10.35L6.057,9.807L6.249,9.283L6.489,8.785L6.662,8.5L0.5,8.5zz" fill="#FFFFFF"/>
      <path d="M0,8.5L0,12.5L0,13L0.5,13L6.008,13L5.956,12.83L5.84,12.18L5.829,12L1,12L1,9L6.385,9L6.489,8.785L6.775,8.315L7.011,8L0.5,8L0,8zz" fill="#383838"/>
      <path d="M2,11L4,11L4,10L2,10zz" fill="#238BCB"/>
    </g>
    <g id="overlay">
      <circle cx="11.5" cy="11.5" r="4" fill="#FFFFFF" stroke="#228BCB" stroke-width="1" stroke-miterlimit="10"/>
      <path d="M11.486,7.512c-0.913,0.547,-1.486,2.505,-1.486,4.002c0,1.478,0.525,3.435,1.45,3.964M11.513,15.479c0.902,-0.529,1.487,-2.486,1.487,-3.964c0,-1.496,-0.612,-3.455,-1.502,-4.002M7.7,12.55h7.6M7.7,10.45h7.6" fill="none" stroke="#228BCB" stroke-width="0.9" stroke-miterlimit="10"/>
    </g>
  </g>
</svg>
