<?xml version="1.0" encoding="UTF-8"?>
<!DOCTYPE svg PUBLIC "-//W3C//DTD SVG 1.1//EN" "http://www.w3.org/Graphics/SVG/1.1/DTD/svg11.dtd">
<svg version="1.1" id="Layer_1" xmlns="http://www.w3.org/2000/svg" xmlns:xlink="http://www.w3.org/1999/xlink" x="0px" y="0px" width="16px" height="16px" viewBox="0 0 16 16" enable-background="new 0 0 16 16" xml:space="preserve">
  <g id="main">
    <g id="icon">
      <path d="M5.522,2.373L4.848,2.582L4.23,2.916L3.68,3.359L3.21,3.9L2.833,4.525L2.559,5.221L2.402,5.974L2.006,6.129L1.643,6.35L1.319,6.631L1.04,6.964L0.8131,7.343L0.6432,7.761L0.5367,8.212L0.5,8.689L0.5521,9.255L0.7018,9.783L0.9383,10.26L1.252,10.68L1.632,11.02L2.068,11.28L2.55,11.44L3.067,11.5L5.867,11.5L5.917,11.44L12.57,4.749L12.53,4.724L11.93,4.519L11.28,4.447L10.88,4.474L10.5,4.551L9.791,4.847L9.532,4.307L9.207,3.817L8.824,3.382L8.387,3.011L7.904,2.711L7.381,2.487L6.824,2.348L6.24,2.3zz" fill="#92CBEE"/>
      <path d="M6.19,1.803L5.471,1.875L5.421,1.88L5.373,1.895L4.699,2.105L4.653,2.119L4.611,2.142L3.993,2.476L3.952,2.497L3.916,2.527L3.366,2.97L3.332,2.998L3.303,3.031L2.833,3.572L2.805,3.605L2.782,3.641L2.405,4.266L2.383,4.303L2.367,4.342L2.094,5.038L2.079,5.077L2.07,5.118L1.968,5.607L1.823,5.664L1.783,5.679L1.746,5.702L1.383,5.923L1.347,5.945L1.316,5.972L0.9918,6.253L0.9613,6.279L0.9355,6.31L0.6568,6.643L0.6318,6.673L0.6115,6.706L0.3844,7.085L0.3645,7.119L0.3498,7.154L0.1799,7.573L0.1654,7.609L0.1566,7.646L0.0502,8.097L0.04121,8.135L0.03828,8.173L0.001562,8.651L-0,8.671L0,8.712L0.002148,8.735L0.0543,9.301L0.0584,9.347L0.07109,9.392L0.2207,9.919L0.2332,9.964L0.2537,10.01L0.4902,10.48L0.5109,10.52L0.5389,10.56L0.8523,10.98L0.8811,11.02L0.9164,11.05L1.296,11.39L1.333,11.42L1.376,11.45L1.812,11.71L1.857,11.74L1.906,11.75L2.388,11.92L2.44,11.93L2.494,11.94L3.012,12L3.039,12L3.067,12L5.529,12L5.748,11.64L5.917,11.44L6.357,11L3.094,11L2.659,10.95L2.278,10.82L1.93,10.62L1.622,10.34L1.366,9.997L1.17,9.603L1.046,9.163L1.002,8.685L1.032,8.289L1.121,7.913L1.262,7.566L1.449,7.255L1.677,6.982L1.938,6.756L2.229,6.579L2.584,6.44L2.836,6.341L2.891,6.076L3.04,5.363L3.282,4.748L3.616,4.195L4.028,3.721L4.508,3.334L5.043,3.045L5.622,2.865L6.245,2.802L6.743,2.843L7.222,2.963L7.672,3.155L8.091,3.416L8.473,3.74L8.81,4.122L9.096,4.554L9.322,5.026L9.537,5.759L9.616,6.589L10.61,6.495L10.53,5.616L10.52,5.569L10.51,5.523L10.4,5.136L10.65,5.032L10.95,4.97L11.27,4.949L11.82,5.01L12.19,5.136L12.92,4.403L12.94,4.385L12.79,4.294L12.74,4.268L12.69,4.251L12.09,4.045L12.04,4.028L11.98,4.022L11.33,3.95L11.29,3.945L11.25,3.948L10.85,3.975L10.82,3.977L10.78,3.984L10.4,4.061L10.35,4.071L10.31,4.09L10.04,4.203L9.983,4.091L9.968,4.06L9.949,4.031L9.624,3.541L9.605,3.512L9.582,3.486L9.198,3.051L9.175,3.025L9.147,3.001L8.711,2.63L8.683,2.606L8.651,2.587L8.169,2.286L8.136,2.266L8.101,2.251L7.578,2.027L7.541,2.012L7.502,2.002L6.946,1.863L6.906,1.853L6.865,1.85L6.281,1.802L6.235,1.798zM13.49,11.2L13.89,10.84L13.93,10.81L13.96,10.77L14.06,10.63zz" fill="#0964B0"/>
    </g>
    <g id="overlay">
      <path d="M7.084,12.61l7.005,-7.044c0.376,-0.376,1.722,0.969,1.345,1.345l-7.009,7.04C8.231,14.146,5.958,15.1,5.958,15.1S6.889,12.805,7.084,12.61zM13.07,6.592l1.307,1.293M7.131,12.591l1.344,1.344" fill="#FFFFFF" stroke="#228BCB" stroke-width="0.9" stroke-miterlimit="10"/>
    </g>
  </g>
</svg>
