<?xml version="1.0" encoding="UTF-8"?>
<!DOCTYPE svg PUBLIC "-//W3C//DTD SVG 1.1//EN" "http://www.w3.org/Graphics/SVG/1.1/DTD/svg11.dtd">
<svg version="1.1" id="Layer_1" xmlns="http://www.w3.org/2000/svg" xmlns:xlink="http://www.w3.org/1999/xlink" x="0px" y="0px" width="16px" height="16px" viewBox="0 0 16 16" enable-background="new 0 0 16 16" xml:space="preserve">
  <g id="main">
    <g id="icon">
      <path d="M0.5,10.5L5.894,10.5L5.916,10.35L6.057,9.807L6.249,9.283L6.489,8.785L6.775,8.315L7.103,7.876L7.471,7.471L7.876,7.103L8.315,6.775L8.785,6.489L9.283,6.249L9.807,6.057L10.35,5.916L10.92,5.829L11.5,5.8L12.18,5.84L12.83,5.956L13.45,6.145L14.04,6.401L14.5,6.663L14.5,0.5L0.5,0.5zz" fill="#FFFFFF"/>
      <path d="M0,0.5L0,10.5L0,11L0.5,11L5.825,11L5.829,10.92L5.916,10.35L6.007,10L1,10L1,1L14,1L14,6.382L14.04,6.401L14.6,6.72L15,7.014L15,0.5L15,0L14.5,0L0.5,0L0,0zz" fill="#383838"/>
      <path d="M2.5,14.5L6.663,14.5L6.401,14.04L6.145,13.45L5.956,12.83L5.898,12.5L2.5,12.5zz" fill="#FFFFFF"/>
      <path d="M2,12.5L2,14.5L2,15L2.5,15L7.014,15L6.72,14.6L6.401,14.04L6.382,14L3,14L3,13L6.008,13L5.956,12.83L5.84,12.18L5.829,12L2.5,12L2,12zz" fill="#383838"/>
    </g>
    <g id="overlay">
      <circle cx="11.5" cy="11.5" r="4" fill="#FFFFFF" stroke="#228BCB" stroke-width="1" stroke-miterlimit="10"/>
      <path d="M11.486,7.512c-0.913,0.547,-1.486,2.505,-1.486,4.002c0,1.478,0.525,3.435,1.45,3.964M11.513,15.479c0.902,-0.529,1.487,-2.486,1.487,-3.964c0,-1.496,-0.612,-3.455,-1.502,-4.002M7.7,12.55h7.6M7.7,10.45h7.6" fill="none" stroke="#228BCB" stroke-width="0.9" stroke-miterlimit="10"/>
    </g>
  </g>
</svg>
