<?xml version="1.0" encoding="UTF-8"?>
<!DOCTYPE svg PUBLIC "-//W3C//DTD SVG 1.1//EN" "http://www.w3.org/Graphics/SVG/1.1/DTD/svg11.dtd">
<svg version="1.1" id="Layer_1" xmlns="http://www.w3.org/2000/svg" xmlns:xlink="http://www.w3.org/1999/xlink" x="0px" y="0px" width="16px" height="16px" viewBox="0 0 16 16" enable-background="new 0 0 16 16" xml:space="preserve">
  <g id="icon">
    <polygon points="7.9972,2.7135 2.5,7.172 2.5,15.5 6.5,15.5 6.5,10.5 9.5,10.5 9.5,15.5 13.5,15.5 13.5,7.1305" fill="#FFFFFF" stroke-linejoin="miter" opacity="0.5"/>
    <polygon points="13,6.7291 13,15 10,15 10,10 6,10 6,15 3,15 3,6.7664 2,7.5775 2,16 7,16 7,11 9,11 9,16 14,16 14,7.5318" fill="#6D6E71" stroke-linejoin="miter"/>
    <polygon points="0.782,7.5353 0.0261,6.6033 7.9907,0.1437 15.9715,6.5497 15.2204,7.4855 7.9946,1.6855" fill="#6485C3" stroke-linejoin="miter"/>
  </g>
</svg>
