<?xml version="1.0" encoding="UTF-8"?>
<!DOCTYPE svg PUBLIC "-//W3C//DTD SVG 1.1//EN" "http://www.w3.org/Graphics/SVG/1.1/DTD/svg11.dtd">
<svg version="1.1" id="Layer_1" xmlns="http://www.w3.org/2000/svg" xmlns:xlink="http://www.w3.org/1999/xlink" x="0px" y="0px" width="24px" height="24px" viewBox="0 0 24 24" enable-background="new 0 0 24 24" xml:space="preserve">
  <g id="icon">
    <path d="M14.5016,9.0739c0.3595,-0.0655,0.7243,-0.0985,1.0909,-0.0985c3.4442,0,6.2463,2.87,6.2463,6.3977c0,0.0825,-0.0031,0.1642,-0.0061,0.2459c0.6293,-0.7085,1.0159,-1.6642,1.0159,-2.7166c0,-1.8298,-1.1668,-3.3686,-2.7507,-3.8197c-0.3671,-2.917,-2.7107,-5.1671,-5.5491,-5.1671c-1.8674,0,-3.5206,0.9742,-4.538,2.4713C11.7745,6.6727,13.3909,7.6354,14.5016,9.0739z" fill="#FFFFFF" opacity="0.5"/>
    <path d="M21.5584,16.7884c0.1213,-0.4943,0.1828,-1.0033,0.1828,-1.5128c0,-0.3855,-0.0365,-0.7771,-0.1084,-1.164l-0.0107,-0.0574l0.0226,-0.0538c0.1598,-0.3806,0.2408,-0.7828,0.2408,-1.1953c0,-1.3131,-0.8139,-2.462,-1.9791,-2.7939c-0.4101,-0.1168,-0.7097,-0.4669,-0.7632,-0.8919c-0.3039,-2.4142,-2.237,-4.2348,-4.4967,-4.2348c-1.3362,0,-2.5993,0.6333,-3.4653,1.7376l-0.0826,0.1053l-0.128,-0.0391c-0.5937,-0.1813,-1.2112,-0.279,-1.8353,-0.2904l-0.3321,-0.0061l0.167,-0.2872c1.2023,-2.0679,3.3773,-3.3525,5.6762,-3.3525c3.084,0,5.7976,2.2849,6.4894,5.4474c1.7476,0.7971,2.8711,2.5932,2.8711,4.6055c0,1.6886,-0.8029,3.255,-2.1476,4.1902l-0.4241,0.2949L21.5584,16.7884z" fill="#6485C3"/>
    <path d="M13.3352,11.6931c0.5942,-0.3204,1.2696,-0.5026,1.9866,-0.5026c2.3722,0,4.2952,1.9835,4.2952,4.4303c0,2.4468,-1.923,4.4303,-4.2952,4.4303H4.3659c-1.8909,0,-3.4237,-1.5811,-3.4237,-3.5314c0,-1.6342,1.0764,-3.0084,2.5376,-3.4113c0.3387,-2.6051,2.5007,-4.6146,5.1191,-4.6146C10.718,8.4938,12.5382,9.8103,13.3352,11.6931z" fill="#FFFFFF" opacity="0.5"/>
    <path d="M4.4221,21C1.9837,21,0,18.964,0,16.4613c0,-1.7822,1.0578,-3.4388,2.6426,-4.1554c0.6567,-2.8153,3.1568,-4.8481,5.9822,-4.8481c2.0815,0,4.0499,1.1082,5.1744,2.9028c0.4882,-0.1486,0.9922,-0.2238,1.5006,-0.2238c2.9154,0,5.2873,2.4366,5.2873,5.4316S18.2152,21,15.2998,21H4.4221zM8.6248,9.5187c-2.0462,0,-3.7953,1.5852,-4.0685,3.6875c-0.0535,0.4127,-0.3455,0.7504,-0.7441,0.8602c-1.0402,0.2869,-1.7667,1.2718,-1.7667,2.3949c0,1.3662,1.0661,2.4777,2.3765,2.4777h10.8777c1.7875,0,3.2418,-1.5121,3.2418,-3.3706c0,-1.8586,-1.4543,-3.3707,-3.2418,-3.3707c-0.5245,0,-1.0256,0.1269,-1.4896,0.3773c-0.1477,0.0798,-0.3146,0.122,-0.4827,0.122c-0.1161,0,-0.2305,-0.0197,-0.34,-0.0586c-0.2698,-0.0958,-0.4887,-0.3028,-0.6008,-0.5678C11.7307,10.5204,10.2541,9.5187,8.6248,9.5187z" fill="#6485C3"/>
  </g>
</svg>
