<?xml version="1.0" encoding="UTF-8"?>
<!DOCTYPE svg PUBLIC "-//W3C//DTD SVG 1.1//EN" "http://www.w3.org/Graphics/SVG/1.1/DTD/svg11.dtd">
<svg version="1.1" id="Layer_1" xmlns="http://www.w3.org/2000/svg" xmlns:xlink="http://www.w3.org/1999/xlink" x="0px" y="0px" width="16px" height="16px" viewBox="0 0 16 16" enable-background="new 0 0 16 16" xml:space="preserve">
  <g id="main">
    <g id="icon">
      <path d="M0.8393,0.5436L0.6629,0.6621L0.5438,0.8375L0.5,1.052L0.5,12.95L0.5438,13.16L0.6629,13.34L0.8393,13.46L1.055,13.5L6.166,13.5L6.145,13.45L5.956,12.83L5.84,12.18L5.8,11.5L5.829,10.92L5.916,10.35L6.057,9.807L6.249,9.283L6.489,8.785L6.775,8.315L7.103,7.876L7.471,7.471L7.876,7.103L8.315,6.775L8.785,6.489L9.283,6.249L9.807,6.057L10.35,5.916L10.92,5.829L11.5,5.8L12.18,5.84L12.83,5.956L13.45,6.145L13.5,6.165L13.5,1.208L13.44,0.9326L13.29,0.7074L13.07,0.5557L12.79,0.5L1.055,0.5zz" fill="#FFFFFF" opacity="0.5"/>
      <path d="M0.6445,0.08281L0.3092,0.3084L0.08301,0.6428L0,1.052L0,12.95L0.08301,13.36L0.3092,13.69L0.6445,13.92L1.055,14L6.382,14L6.145,13.45L6.008,13L1.055,13L1,12.95L1,1.052L1.055,1L12.79,1L12.94,1.062L13,1.208L13,6.009L13.45,6.145L14,6.381L14,1.209L13.91,0.7455L13.64,0.3531L13.25,0.09121L12.79,0L1.055,0zz" fill="#6D6E71"/>
      <path d="M6,3.5L12,3.5L12,2.5L6,2.5zM6,7.5L7.445,7.5L7.471,7.471L7.876,7.103L8.315,6.775L8.767,6.5L6,6.5zz" fill="#7B7B7B"/>
      <path d="M3.198,1.53L2.917,1.617L2.662,1.754L2.44,1.936L2.256,2.156L2.118,2.409L2.03,2.688L2,2.987L2.03,3.287L2.118,3.566L2.256,3.819L2.44,4.039L2.662,4.221L2.917,4.358L3.198,4.445L3.5,4.475L3.802,4.445L4.083,4.358L4.338,4.221L4.56,4.039L4.744,3.819L4.882,3.566L4.97,3.287L5,2.988L4.97,2.688L4.882,2.409L4.744,2.156L4.56,1.936L4.338,1.754L4.083,1.617L3.802,1.53L3.5,1.5zM3.695,2.538L3.853,2.643L3.961,2.798L4,2.988L3.961,3.177L3.853,3.332L3.695,3.437L3.5,3.475L3.305,3.437L3.147,3.332L3.039,3.177L3,2.988L3.039,2.798L3.147,2.643L3.305,2.538L3.5,2.5zM3.198,5.53L2.917,5.617L2.662,5.754L2.44,5.936L2.256,6.156L2.118,6.409L2.03,6.688L2,6.987L2.03,7.287L2.118,7.566L2.256,7.819L2.44,8.039L2.662,8.221L2.917,8.358L3.198,8.445L3.5,8.475L3.802,8.445L4.083,8.358L4.338,8.221L4.56,8.039L4.744,7.819L4.882,7.566L4.97,7.287L5,6.988L4.97,6.688L4.882,6.409L4.744,6.156L4.56,5.936L4.338,5.754L4.083,5.617L3.802,5.53L3.5,5.5zM3.695,6.538L3.853,6.643L3.961,6.798L4,6.988L3.961,7.177L3.853,7.332L3.695,7.437L3.5,7.475L3.305,7.437L3.147,7.332L3.039,7.177L3,6.988L3.039,6.798L3.147,6.643L3.305,6.538L3.5,6.5zM3.198,9.53L2.917,9.617L2.662,9.754L2.44,9.936L2.256,10.16L2.118,10.41L2.03,10.69L2,10.99L2.03,11.29L2.118,11.57L2.256,11.82L2.44,12.04L2.662,12.22L2.917,12.36L3.198,12.44L3.5,12.47L3.802,12.44L4.083,12.36L4.338,12.22L4.56,12.04L4.744,11.82L4.882,11.57L4.97,11.29L5,10.99L4.97,10.69L4.882,10.41L4.744,10.16L4.56,9.936L4.338,9.754L4.083,9.617L3.802,9.53L3.5,9.5zM3.695,10.54L3.853,10.64L3.961,10.8L4,10.99L3.961,11.18L3.853,11.33L3.695,11.44L3.5,11.48L3.305,11.44L3.147,11.33L3.039,11.18L3,10.99L3.039,10.8L3.147,10.64L3.305,10.54L3.5,10.5zz" fill="#CB525D"/>
    </g>
    <g id="overlay">
      <ellipse cx="11.4956" cy="11.4907" rx="3.9334" ry="3.9289" fill="#FFFFFF" opacity="0.5"/>
      <path d="M11.5,15.9907c-2.4813,0,-4.5,-2.0167,-4.5,-4.4956s2.0187,-4.4956,4.5,-4.4956s4.5,2.0167,4.5,4.4956S13.9813,15.9907,11.5,15.9907zM11.5,8.2218c-1.8074,0,-3.2778,1.4684,-3.2778,3.2734S9.6926,14.7686,11.5,14.7686s3.2778,-1.4684,3.2778,-3.2734S13.3074,8.2218,11.5,8.2218z" fill="#6485C3"/>
      <path d="M11.232,15.5524c-1.0443,-0.588,-1.7458,-2.566,-1.7458,-4.0444c0,-1.4329,0.7276,-3.4586,1.7716,-4.0743l0.1507,-0.0889l0.0767,0.1301l0.0768,-0.1301l0.1507,0.0889c1.0638,0.6273,1.8052,2.6507,1.8052,4.0743c0,1.4339,-0.7386,3.4476,-1.7985,4.0444l-0.1525,0.0858l-0.0912,-0.1621l-0.0913,0.1621L11.232,15.5524zM11.4866,8.3606c-0.6052,0.5896,-1.1226,2.0256,-1.1226,3.1474c0,1.1641,0.513,2.5982,1.1124,3.1421c0.6167,-0.5518,1.1637,-2.0138,1.1637,-3.1421C12.6401,10.3918,12.1083,8.9552,11.4866,8.3606z" fill="#6485C3"/>
      <path d="M7.8567,12.9045v-0.8449h7.2776v0.8449H7.8567zM7.8567,10.9303v-0.8448h7.2776v0.8448H7.8567z" fill="#6485C3"/>
    </g>
  </g>
</svg>
