<?xml version="1.0" encoding="UTF-8"?>
<!DOCTYPE svg PUBLIC "-//W3C//DTD SVG 1.1//EN" "http://www.w3.org/Graphics/SVG/1.1/DTD/svg11.dtd">
<svg version="1.1" id="Layer_1" xmlns="http://www.w3.org/2000/svg" xmlns:xlink="http://www.w3.org/1999/xlink" x="0px" y="0px" width="16px" height="16px" viewBox="0 0 16 16" enable-background="new 0 0 16 16" xml:space="preserve">
  <g id="main">
    <g id="icon">
      <path d="M10.09,0.05312L9.578,0.2096L9.105,0.4639L8.685,0.8113L4.953,4.568L4.6,5.003L4.348,5.486L4.197,6.001L4.147,6.532L4.197,7.063L4.349,7.578L4.601,8.061L4.953,8.496L5.537,9.082L5.858,9.359L6.216,9.583L6.273,9.612L6.856,9.029L7.054,8.71L7.084,8.628L7,8.6L6.673,8.446L6.392,8.223L5.809,7.637L5.61,7.392L5.468,7.12L5.383,6.83L5.355,6.532L5.383,6.233L5.468,5.943L5.61,5.671L5.809,5.426L9.541,1.67L9.776,1.475L10.04,1.332L10.33,1.245L10.64,1.215L10.94,1.245L11.23,1.332L11.5,1.475L11.73,1.67L12.34,2.281L12.54,2.526L12.68,2.798L12.76,3.088L12.79,3.386L12.76,3.685L12.68,3.974L12.54,4.246L12.34,4.491L10.47,6.365L10.48,6.415L10.62,7.048L10.63,7.453L10.94,7.329L11.32,7.229L13.19,5.35L13.55,4.915L13.8,4.432L13.95,3.917L14,3.387L13.95,2.856L13.8,2.341L13.55,1.858L13.19,1.423L12.59,0.8113L12.17,0.4639L11.69,0.2096L11.18,0.05312L10.64,0zz" fill="#6485C3"/>
      <path d="M7.151,5.012L6.952,5.329L6.923,5.412L7.006,5.44L7.334,5.593L7.616,5.815L8.199,6.398L8.398,6.642L8.54,6.912L8.625,7.201L8.653,7.498L8.625,7.795L8.54,8.083L8.398,8.354L8.199,8.597L4.464,12.34L4.228,12.53L3.962,12.67L3.673,12.76L3.367,12.79L3.062,12.76L2.772,12.67L2.507,12.53L2.271,12.34L1.663,11.73L1.464,11.49L1.322,11.21L1.237,10.93L1.209,10.63L1.237,10.33L1.321,10.04L1.463,9.775L1.661,9.531L3.538,7.668L3.522,7.618L3.386,6.989L3.369,6.344L3.383,6.116L0.807,8.675L0.4539,9.108L0.2018,9.589L0.05059,10.1L0,10.63L0.05059,11.16L0.2018,11.67L0.4539,12.15L0.807,12.58L1.415,13.19L1.835,13.54L2.309,13.79L2.824,13.95L3.368,14L3.911,13.95L4.426,13.79L4.9,13.54L5.32,13.19L6.831,11.68L6.845,11.5L6.92,11.16L7.203,10.54L7.639,10.03L8.199,9.648L8.522,9.119L8.908,8.641L9.349,8.219L9.827,7.864L9.862,7.497L9.812,6.969L9.66,6.457L9.408,5.976L9.055,5.543L8.471,4.959L8.149,4.684L7.791,4.461L7.735,4.432zz" fill="#6485C3"/>
    </g>
    <g id="overlay">
      <path d="M12.3837,15.4373c-1.382,-0.0169,-2.6196,-0.829,-3.1945,-2.0655c0.0292,0.0017,0.0586,0.0027,0.0882,0.0027c0.0814,0,0.1642,-0.0067,0.2461,-0.02c0.185,-0.03,0.3573,-0.0919,0.5117,-0.1795c0.4406,0.8052,1.2626,1.3417,2.1886,1.4109c-0.0055,0.0524,-0.0084,0.1055,-0.0084,0.1593c0,0.1062,0.0112,0.2126,0.0327,0.3135l0.005,0.0251l0.0146,0.0576l0.0097,0.0338C12.3046,15.2669,12.3409,15.3542,12.3837,15.4373zM15.1476,9.5451c-0.037,0.0886,-0.0816,0.1743,-0.1355,0.2554l-0.0193,0.0287l-0.0348,0.0482l-0.0161,0.0202c-0.0961,0.123,-0.211,0.2291,-0.3386,0.3162c0.3582,0.4712,0.5523,1.0422,0.5523,1.6477c0,0.6009,-0.1913,1.1681,-0.5444,1.6374c0.1294,0.0897,0.2457,0.199,0.3427,0.3261l0.0177,0.0231l0.0372,0.0528l0.0141,0.0223c0.0513,0.0791,0.0939,0.1629,0.1293,0.2496c0.5483,-0.6445,0.8478,-1.4515,0.8478,-2.3112C16,10.9991,15.6989,10.1904,15.1476,9.5451zM9.2775,10.3328c0.0647,0,0.1306,0.0043,0.1958,0.0127l0.0332,0.0045l0.0594,0.0099l0.0255,0.0055c0.1628,0.0336,0.3137,0.0925,0.4509,0.1706c0.4427,-0.7987,1.2628,-1.3306,2.1838,-1.3989c-0.0066,-0.0575,-0.0104,-0.1158,-0.0104,-0.175c0,-0.1175,0.0139,-0.2356,0.0412,-0.351c0.0272,-0.1148,0.0679,-0.2231,0.1183,-0.3251c-1.3704,0.0202,-2.6009,0.8248,-3.178,2.0489C9.2237,10.3335,9.2505,10.3328,9.2775,10.3328z" fill="#7B7B7B"/>
      <path d="M13.7402,16c-0.5549,0,-1.0514,-0.3701,-1.2075,-0.9l-0.007,-0.024l-0.013,-0.0512l-0.0037,-0.0186c-0.0182,-0.0857,-0.0274,-0.1735,-0.0274,-0.2611c0,-0.6919,0.5646,-1.2548,1.2587,-1.2548c0.3906,0,0.7653,0.1854,1.0022,0.496l0.0146,0.0191l0.0305,0.0433l0.0107,0.0168c0.1313,0.2026,0.2007,0.4375,0.2007,0.6795C14.9989,15.4371,14.4343,16,13.7402,16zM9.2775,13.1085c-0.694,0,-1.2587,-0.5629,-1.2587,-1.2548s0.5646,-1.2548,1.2587,-1.2548c0.0533,0,0.1077,0.0035,0.1616,0.0105l0.0236,0.0031l0.053,0.0088l0.0191,0.0042c0.5896,0.1216,1.0014,0.6267,1.0014,1.2283c0,0.6183,-0.4438,1.139,-1.0552,1.2383C9.4132,13.1029,9.3447,13.1085,9.2775,13.1085zM13.7402,10.2169c-0.694,0,-1.2587,-0.5629,-1.2587,-1.2548c0,-0.0969,0.0115,-0.1943,0.0341,-0.2897c0.1348,-0.5682,0.6384,-0.9652,1.2246,-0.9652c0.694,0,1.2587,0.5629,1.2587,1.2548c0,0.247,-0.072,0.486,-0.2084,0.6912l-0.0135,0.0203l-0.031,0.043l-0.0121,0.0152C14.4968,10.0356,14.1253,10.2169,13.7402,10.2169z" fill="#6485C3"/>
    </g>
  </g>
</svg>
