<?xml version="1.0" encoding="UTF-8"?>
<!DOCTYPE svg PUBLIC "-//W3C//DTD SVG 1.1//EN" "http://www.w3.org/Graphics/SVG/1.1/DTD/svg11.dtd">
<svg version="1.1" id="Layer_1" xmlns="http://www.w3.org/2000/svg" xmlns:xlink="http://www.w3.org/1999/xlink" x="0px" y="0px" width="16px" height="16px" viewBox="0 0 16 16" enable-background="new 0 0 16 16" xml:space="preserve">
  <g id="main">
    <g id="icon">
      <path d="M5.168,1.604L4.544,1.792L3.972,2.091L3.463,2.489L3.028,2.974L2.679,3.535L2.426,4.159L2.28,4.835L1.913,4.975L1.577,5.173L1.277,5.425L1.019,5.724L0.8086,6.064L0.6512,6.439L0.5527,6.844L0.5186,7.272L0.5668,7.78L0.7053,8.254L0.9244,8.683L1.215,9.056L1.566,9.364L1.97,9.597L2.416,9.744L2.895,9.795L8.569,9.795L8.6,9.396L8.772,8.729L9.053,8.155L9.441,7.677L9.932,7.299L10.52,7.024L11.2,6.857L11.98,6.8L12.01,6.8L12.78,6.857L13.44,7.018L13.48,6.63L13.42,5.992L13.25,5.398L12.97,4.86L12.61,4.392L12.17,4.005L11.66,3.714L11.1,3.529L10.5,3.465L9.779,3.559L9.121,3.824L8.881,3.34L8.581,2.899L8.226,2.51L7.821,2.177L7.374,1.907L6.89,1.706L6.374,1.581L5.833,1.538zz" fill="#FFFFFF" opacity="0.5"/>
      <path d="M5.121,1.066L4.445,1.258L3.818,1.564L3.251,1.973L2.756,2.475L2.345,3.059L2.029,3.714L1.821,4.429L1.431,4.631L1.078,4.889L0.7672,5.197L0.5029,5.549L0.2895,5.939L0.1316,6.36L0.03359,6.806L0,7.272L0.05898,7.888L0.2279,8.462L0.4951,8.982L0.8488,9.436L1.278,9.81L1.769,10.09L2.312,10.27L2.895,10.33L8.556,10.33L8.542,10.15L8.6,9.396L8.636,9.256L2.895,9.256L2.521,9.216L2.172,9.1L1.857,8.917L1.582,8.675L1.355,8.381L1.183,8.044L1.075,7.671L1.037,7.272L1.063,6.941L1.138,6.626L1.422,6.063L1.623,5.826L1.858,5.625L2.124,5.466L2.417,5.354L2.671,5.189L2.794,4.905L2.921,4.321L3.14,3.783L3.442,3.302L3.817,2.886L4.254,2.547L4.742,2.292L5.272,2.132L5.833,2.077L6.284,2.112L6.718,2.216L7.129,2.383L7.512,2.61L7.861,2.893L8.17,3.228L8.433,3.61L8.644,4.036L8.767,4.217L8.949,4.332L9.161,4.361L9.365,4.299L9.915,4.078L10.5,4.003L11,4.057L11.46,4.21L11.88,4.453L12.24,4.774L12.54,5.162L12.77,5.609L12.91,6.101L12.96,6.63L12.94,6.895L13.47,7.024L13.94,7.244L14,6.63L13.93,5.885L13.72,5.19L13.4,4.561L12.97,4.012L12.46,3.56L11.86,3.218L11.2,3.002L10.5,2.927L9.923,2.977L9.363,3.128L9.061,2.661L8.708,2.243L8.309,1.88L7.871,1.573L7.399,1.328L6.898,1.148L6.374,1.038L5.833,1zz" fill="#6485C3"/>
    </g>
    <g id="overlay">
      <path d="M15.4006,15.5084c0.0639,0,0.1143,-0.0512,0.1095,-0.1112l-0.0148,-0.1843c-0.052,-0.6475,-0.378,-1.827,-1.9768,-2.4507c-0.3674,-0.148,-0.5422,-0.4696,-0.3674,-0.7035c0.4369,-0.5555,0.6109,-1.269,0.6109,-1.92c0,-1.0081,-0.3159,-1.6467,-1.7263,-1.6467h-0.0274c-1.4049,0,-1.7196,0.6386,-1.7196,1.6467c0,0.651,0.1733,1.3645,0.6085,1.92c0.1741,0.2339,0,0.5555,-0.366,0.7035c-1.5925,0.6237,-1.9172,1.8032,-1.969,2.4507l-0.0147,0.1843c-0.0048,0.06,0.0454,0.1112,0.1091,0.1112H15.4006z" fill="#FFFFFF" opacity="0.5"/>
      <path d="M8.6274,16c-0.1763,0,-0.3453,-0.0737,-0.4639,-0.2024c-0.1163,-0.1261,-0.1752,-0.296,-0.1615,-0.4662l0.0147,-0.183c0.0615,-0.763,0.4415,-2.1508,2.2956,-2.8726c0.0211,-0.0085,0.0388,-0.0175,0.0537,-0.0261c-0.4029,-0.5717,-0.6242,-1.3142,-0.6242,-2.0981c0,-0.9237,0.232,-2.1517,2.2378,-2.1517h0.0274c2.0118,0,2.2445,1.228,2.2445,2.1517c0,0.7837,-0.2219,1.526,-0.6259,2.0976c0.0154,0.009,0.034,0.0185,0.0562,0.0274c1.8586,0.7207,2.2398,2.1086,2.3015,2.8717l0.0148,0.183c0.0138,0.1701,-0.0451,0.3399,-0.1614,0.4661c-0.1187,0.1287,-0.288,0.2025,-0.4645,0.2025H8.6274zM14.9126,14.9667c-0.1164,-0.5634,-0.4947,-1.2964,-1.6101,-1.7284c-0.3703,-0.1481,-0.6444,-0.4273,-0.7337,-0.747c-0.0733,-0.2624,-0.0238,-0.5264,0.1395,-0.7433l0.0064,-0.0083c0.3231,-0.4079,0.5008,-0.9716,0.5008,-1.5879c0,-0.8253,-0.1826,-1.1183,-1.2085,-1.1183h-0.0274c-1.0202,0,-1.2017,0.293,-1.2017,1.1183c0,0.6167,0.1767,1.1802,0.4976,1.5868l0.0067,0.0087c0.1635,0.218,0.213,0.4823,0.1396,0.7447c-0.0893,0.3192,-0.3606,0.5974,-0.7259,0.744c-1.115,0.4336,-1.4926,1.1672,-1.6085,1.7308H14.9126z" fill="#9070B1"/>
    </g>
  </g>
</svg>
