<?xml version="1.0" encoding="UTF-8"?>
<!DOCTYPE svg PUBLIC "-//W3C//DTD SVG 1.1//EN" "http://www.w3.org/Graphics/SVG/1.1/DTD/svg11.dtd">
<svg version="1.1" id="Layer_1" xmlns="http://www.w3.org/2000/svg" xmlns:xlink="http://www.w3.org/1999/xlink" x="0px" y="0px" width="16px" height="16px" viewBox="0 0 16 16" enable-background="new 0 0 16 16" xml:space="preserve">
  <g id="main">
    <g id="icon">
      <path d="M1,13L6.008,13L5.956,12.83L5.84,12.18L5.8,11.5L5.829,10.92L5.916,10.35L6.057,9.807L6.249,9.283L6.489,8.785L6.775,8.315L7.103,7.876L7.471,7.471L7.876,7.103L8.315,6.775L8.785,6.489L9.283,6.249L9.807,6.057L10.35,5.916L10.92,5.829L11.5,5.8L12.18,5.84L12.83,5.956L13,6.008L13,1L1,1zz" fill="#FFFFFF" opacity="0.4"/>
      <path d="M0,14L6.382,14L6.145,13.45L6.008,13L1,13L1,1L13,1L13,6.008L13.45,6.145L14,6.382L14,0L0,0zz" fill="#6D6E71"/>
      <path d="M9.403,2.092L9.073,2.194L8.775,2.356L8.515,2.571L8.3,2.831L8.138,3.129L8.036,3.459L8,3.813L8.036,4.167L8.138,4.497L8.3,4.795L8.515,5.055L8.775,5.27L9.073,5.432L9.403,5.534L9.757,5.57L10.11,5.534L10.44,5.432L10.74,5.27L11,5.055L11.21,4.795L11.38,4.497L11.48,4.167L11.51,3.813L11.48,3.459L11.38,3.129L11.21,2.831L11,2.571L10.74,2.356L10.44,2.194L10.11,2.092L9.757,2.056zz" fill="#EEAC55"/>
      <path d="M1,8.05L1,13L6.008,13L5.956,12.83L5.84,12.18L5.8,11.5L5.829,10.92L5.916,10.35L6.057,9.807L6.249,9.283L6.421,8.925L3.336,5.325zz" fill="#52B4C0"/>
    </g>
    <g id="overlay">
      <ellipse cx="11.4956" cy="11.4956" rx="3.9334" ry="3.9331" fill="#FFFFFF" opacity="0.5"/>
      <path d="M11.5,16c-2.4813,0,-4.5,-2.0187,-4.5,-4.5s2.0187,-4.5,4.5,-4.5s4.5,2.0187,4.5,4.5S13.9813,16,11.5,16zM11.5,8.2229c-1.8074,0,-3.2778,1.4701,-3.2778,3.2771S9.6926,14.7771,11.5,14.7771S14.7778,13.307,14.7778,11.5S13.3074,8.2229,11.5,8.2229z" fill="#6D6E71"/>
      <path d="M11.3065,15.3182c-0.5571,-0.2434,-1.0862,-0.7801,-1.4958,-1.5156c-0.2552,0.0942,-0.5145,0.2101,-0.7718,0.3451l-0.0886,0.0465l-0.3263,-0.6217l0.0885,-0.0465c0.2646,-0.139,0.532,-0.2599,0.7961,-0.3602c-0.1757,-0.4426,-0.2882,-0.8947,-0.3282,-1.3189H7.9775v-0.7022h1.2066c0.0438,-0.4168,0.1602,-0.8614,0.3393,-1.297c-0.2757,-0.1004,-0.548,-0.2209,-0.8108,-0.3588l-0.0885,-0.0464l0.3265,-0.6219l0.0885,0.0465c0.2574,0.1352,0.5244,0.2514,0.7948,0.3459c0.4181,-0.7306,0.9646,-1.2886,1.5082,-1.5373l0.0909,-0.0416l0.0607,0.1326l0.0606,-0.1326l0.091,0.0417c0.5402,0.2471,1.0825,0.8065,1.4966,1.5414c0.342,-0.1168,0.6192,-0.2469,0.7962,-0.3382l0.0889,-0.0458l0.322,0.624l-0.0889,0.0458c-0.1813,0.0936,-0.4634,0.2268,-0.8119,0.3507c0.1751,0.4333,0.2889,0.8758,0.3317,1.291h1.2581v0.7022h-1.2548c-0.0398,0.4232,-0.152,0.8745,-0.3272,1.3163c0.2585,0.0975,0.5206,0.2146,0.7806,0.3487l0.0889,0.0458l-0.322,0.6241l-0.0889,-0.0458c-0.2542,-0.1312,-0.5096,-0.2439,-0.7602,-0.3357c-0.4098,0.7367,-0.9394,1.2743,-1.4971,1.518l-0.0917,0.04l-0.0837,-0.1917l-0.0837,0.1917L11.3065,15.3182zM10.5047,13.5971c0.1938,0.3181,0.4166,0.5906,0.645,0.7902v-0.8881C10.9375,13.5161,10.7213,13.5489,10.5047,13.5971zM11.852,14.3535c0.2153,-0.1964,0.4251,-0.4575,0.6081,-0.7578c-0.2046,-0.0453,-0.4083,-0.0769,-0.6081,-0.0941V14.3535zM9.886,11.8469c0.0398,0.3554,0.1402,0.734,0.2933,1.106c0.3253,-0.083,0.6509,-0.1359,0.9704,-0.1578v-0.9481H9.886zM11.852,12.797c0.3066,0.0229,0.6198,0.0746,0.9333,0.1542c0.1527,-0.3714,0.2529,-0.7495,0.2926,-1.1043H11.852V12.797zM13.0736,11.1446c-0.0435,-0.3504,-0.146,-0.7241,-0.2997,-1.0916c-0.3097,0.0732,-0.619,0.1209,-0.922,0.1422v0.9494H13.0736zM11.1497,11.1446v-0.9476c-0.3147,-0.0204,-0.6345,-0.0693,-0.953,-0.1459c-0.1569,0.3685,-0.2616,0.7428,-0.306,1.0935H11.1497zM10.5314,9.4065c0.207,0.0424,0.4141,0.0714,0.6183,0.0867v-0.8474C10.9299,8.8452,10.7197,9.1038,10.5314,9.4065zM11.852,9.4911c0.1948,-0.0156,0.393,-0.0438,0.592,-0.0841c-0.1803,-0.2945,-0.3815,-0.5473,-0.592,-0.7443V9.4911z" fill="#6D6E71"/>
    </g>
  </g>
</svg>
