<?xml version="1.0" encoding="UTF-8"?>
<!DOCTYPE svg PUBLIC "-//W3C//DTD SVG 1.1//EN" "http://www.w3.org/Graphics/SVG/1.1/DTD/svg11.dtd">
<svg version="1.1" id="Layer_1" xmlns="http://www.w3.org/2000/svg" xmlns:xlink="http://www.w3.org/1999/xlink" x="0px" y="0px" width="16px" height="16px" viewBox="0 0 16 16" enable-background="new 0 0 16 16" xml:space="preserve">
  <g id="main">
    <g id="icon">
      <path d="M5.168,1.604L4.544,1.792L3.972,2.091L3.463,2.489L3.028,2.974L2.679,3.535L2.426,4.159L2.28,4.835L1.913,4.975L1.577,5.173L1.277,5.425L1.019,5.724L0.8086,6.064L0.6512,6.439L0.5527,6.844L0.5186,7.272L0.5668,7.78L0.7053,8.254L0.9244,8.683L1.215,9.056L1.566,9.364L1.97,9.597L2.416,9.744L2.895,9.795L7.981,9.795L8.199,9.648L8.522,9.119L8.908,8.641L9.349,8.219L9.838,7.856L10.37,7.558L10.94,7.329L11.53,7.173L12.14,7.095L12.49,6.847L12.88,6.663L13.3,6.547L13.47,6.531L13.42,5.992L13.25,5.398L12.97,4.86L12.61,4.392L12.17,4.005L11.66,3.714L11.1,3.529L10.5,3.465L9.779,3.559L9.121,3.824L8.881,3.34L8.581,2.899L8.226,2.51L7.821,2.177L7.374,1.907L6.89,1.706L6.374,1.581L5.833,1.538zz" fill="#FFFFFF" opacity="0.5"/>
      <path d="M5.121,1.066L4.445,1.258L3.818,1.564L3.251,1.973L2.756,2.475L2.345,3.059L2.029,3.714L1.821,4.429L1.431,4.631L1.078,4.889L0.7672,5.197L0.5029,5.549L0.2895,5.939L0.1316,6.36L0.03359,6.806L0,7.272L0.05898,7.888L0.2279,8.462L0.4951,8.982L0.8488,9.436L1.278,9.81L1.769,10.09L2.312,10.27L2.895,10.33L7.377,10.33L7.639,10.03L8.199,9.648L8.438,9.256L2.895,9.256L2.521,9.216L2.172,9.1L1.857,8.917L1.582,8.675L1.355,8.381L1.183,8.044L1.075,7.671L1.037,7.272L1.063,6.941L1.138,6.626L1.422,6.063L1.623,5.826L1.858,5.625L2.124,5.466L2.417,5.354L2.671,5.189L2.794,4.905L2.921,4.321L3.14,3.783L3.442,3.302L3.817,2.886L4.254,2.547L4.742,2.292L5.272,2.132L5.833,2.077L6.284,2.112L6.718,2.216L7.129,2.383L7.512,2.61L7.861,2.893L8.17,3.228L8.433,3.61L8.644,4.036L8.767,4.217L8.949,4.332L9.161,4.361L9.365,4.299L9.915,4.078L10.5,4.003L11,4.057L11.46,4.21L11.88,4.453L12.24,4.774L12.54,5.162L12.77,5.609L12.91,6.101L12.96,6.63L12.96,6.639L13.3,6.547L13.74,6.507L13.99,6.528L13.93,5.885L13.72,5.19L13.4,4.561L12.97,4.012L12.46,3.56L11.86,3.218L11.2,3.002L10.5,2.927L9.923,2.977L9.363,3.128L9.061,2.661L8.708,2.243L8.309,1.88L7.871,1.573L7.399,1.328L6.898,1.148L6.374,1.038L5.833,1zz" fill="#6485C3"/>
    </g>
    <g id="overlay">
      <path d="M12.3837,15.4373c-1.382,-0.0169,-2.6196,-0.829,-3.1945,-2.0655c0.0292,0.0017,0.0586,0.0027,0.0882,0.0027c0.0814,0,0.1642,-0.0067,0.2461,-0.02c0.185,-0.03,0.3573,-0.0919,0.5117,-0.1795c0.4406,0.8052,1.2626,1.3417,2.1886,1.4109c-0.0055,0.0524,-0.0084,0.1055,-0.0084,0.1593c0,0.1062,0.0112,0.2126,0.0327,0.3135l0.005,0.0251l0.0146,0.0576l0.0097,0.0338C12.3046,15.2669,12.3409,15.3542,12.3837,15.4373zM15.1476,9.5451c-0.037,0.0886,-0.0816,0.1743,-0.1355,0.2554l-0.0193,0.0287l-0.0348,0.0482l-0.0161,0.0202c-0.0961,0.123,-0.211,0.2291,-0.3386,0.3162c0.3582,0.4712,0.5523,1.0422,0.5523,1.6477c0,0.6009,-0.1913,1.1681,-0.5444,1.6374c0.1294,0.0897,0.2457,0.199,0.3427,0.3261l0.0177,0.0231l0.0372,0.0528l0.0141,0.0223c0.0513,0.0791,0.0939,0.1629,0.1293,0.2496c0.5483,-0.6445,0.8478,-1.4515,0.8478,-2.3112C16,10.9991,15.6989,10.1904,15.1476,9.5451zM9.2775,10.3328c0.0647,0,0.1306,0.0043,0.1958,0.0127l0.0332,0.0045l0.0594,0.0099l0.0255,0.0055c0.1628,0.0336,0.3137,0.0925,0.4509,0.1706c0.4427,-0.7987,1.2628,-1.3306,2.1838,-1.3989c-0.0066,-0.0575,-0.0104,-0.1158,-0.0104,-0.175c0,-0.1175,0.0139,-0.2356,0.0412,-0.351c0.0272,-0.1148,0.0679,-0.2231,0.1183,-0.3251c-1.3704,0.0202,-2.6009,0.8248,-3.178,2.0489C9.2237,10.3335,9.2505,10.3328,9.2775,10.3328z" fill="#7B7B7B"/>
      <path d="M13.7402,16c-0.5549,0,-1.0514,-0.3701,-1.2075,-0.9l-0.007,-0.024l-0.013,-0.0512l-0.0037,-0.0186c-0.0182,-0.0857,-0.0274,-0.1735,-0.0274,-0.2611c0,-0.6919,0.5646,-1.2548,1.2587,-1.2548c0.3906,0,0.7653,0.1854,1.0022,0.496l0.0146,0.0191l0.0305,0.0433l0.0107,0.0168c0.1313,0.2026,0.2007,0.4375,0.2007,0.6795C14.9989,15.4371,14.4343,16,13.7402,16zM9.2775,13.1085c-0.694,0,-1.2587,-0.5629,-1.2587,-1.2548s0.5646,-1.2548,1.2587,-1.2548c0.0533,0,0.1077,0.0035,0.1616,0.0105l0.0236,0.0031l0.053,0.0088l0.0191,0.0042c0.5896,0.1216,1.0014,0.6267,1.0014,1.2283c0,0.6183,-0.4438,1.139,-1.0552,1.2383C9.4132,13.1029,9.3447,13.1085,9.2775,13.1085zM13.7402,10.2169c-0.694,0,-1.2587,-0.5629,-1.2587,-1.2548c0,-0.0969,0.0115,-0.1943,0.0341,-0.2897c0.1348,-0.5682,0.6384,-0.9652,1.2246,-0.9652c0.694,0,1.2587,0.5629,1.2587,1.2548c0,0.247,-0.072,0.486,-0.2084,0.6912l-0.0135,0.0203l-0.031,0.043l-0.0121,0.0152C14.4968,10.0356,14.1253,10.2169,13.7402,10.2169z" fill="#6485C3"/>
    </g>
  </g>
</svg>
