<?xml version="1.0" encoding="UTF-8"?>
<!DOCTYPE svg PUBLIC "-//W3C//DTD SVG 1.1//EN" "http://www.w3.org/Graphics/SVG/1.1/DTD/svg11.dtd">
<svg version="1.1" id="Layer_1" xmlns="http://www.w3.org/2000/svg" xmlns:xlink="http://www.w3.org/1999/xlink" x="0px" y="0px" width="16px" height="16px" viewBox="0 0 16 16" enable-background="new 0 0 16 16" xml:space="preserve">
  <g id="icon">
    <path d="M8.0093,9H2.7V2.4833C2.7,2.0507,3.0507,1.7,3.4833,1.7H10.25l2.5409,2.5825c-0.1316,0.0897,-0.2559,0.1921,-0.371,0.3071L8.0093,9z" id="b" fill="#262626"/>
    <path d="M9,2H4c-0.5523,0,-1,0.4477,-1,1v5.5c0,0.2923,-0.2509,0.5261,-0.5491,0.4977c-0.26,-0.0248,-0.4509,-0.258,-0.4509,-0.5191V3c0,-1.1046,0.8954,-2,2,-2h5.5858c0.3978,0,0.7794,0.158,1.0607,0.4393l2.5973,2.5973c-0.3043,0.1267,-0.5838,0.313,-0.8239,0.553l-0.0186,0.0186L10,2.2071V4.5c0,0.2761,0.2239,0.5,0.5,0.5h1.5095l-1,1H10.5c-0.8284,0,-1.5,-0.6716,-1.5,-1.5V2z" id="c1" fill="#d4d4d4"/>
    <path d="M13.625,14.5H2.375c-0.4832,0,-0.875,-0.3918,-0.875,-0.875v-2.25c0,-0.4832,0.3918,-0.875,0.875,-0.875h11.25c0.4832,0,0.875,0.3918,0.875,0.875v2.25C14.5,14.1082,14.1082,14.5,13.625,14.5z" id="b" fill="#262626"/>
    <path d="M15,11.375v2.25c0,0.7594,-0.6156,1.375,-1.375,1.375H2.375C1.6156,15,1,14.3844,1,13.625v-2.25c0,-0.7594,0.6156,-1.375,1.375,-1.375h4.9443c-0.0326,0.0883,-0.061,0.1784,-0.083,0.2707L7.0627,11H2.375c-0.2071,0,-0.375,0.1679,-0.375,0.375v2.25c0,0.2071,0.1679,0.375,0.375,0.375h11.25c0.2071,0,0.375,-0.1679,0.375,-0.375v-2.25c0,-0.2071,-0.1679,-0.375,-0.375,-0.375h-0.3928l0.9017,-0.9016C14.6411,10.3008,15,10.7955,15,11.375zM6.9217,13H3.5c-0.2761,0,-0.5,-0.2239,-0.5,-0.5s0.2239,-0.5,0.5,-0.5h3.3246l-0.0056,0.0234C6.7392,12.3588,6.7785,12.7008,6.9217,13z" id="c2" fill="#d4d4d4"/>
    <path d="M14.2257,5.4941c-0.2409,0,-0.4672,0.0938,-0.6374,0.2641l-4.5527,4.5524c-0.0944,0.0944,-0.1606,0.2129,-0.1916,0.3428l-0.3511,1.4744l1.4744,-0.351c0.1298,-0.0309,0.2484,-0.0971,0.3429,-0.1916l4.5527,-4.5525c0.1701,-0.1701,0.2638,-0.3964,0.2638,-0.6373c0,-0.2409,-0.0937,-0.4672,-0.2638,-0.6373C14.6927,5.5878,14.4664,5.4941,14.2257,5.4941z" id="b" fill="#262626"/>
    <path d="M8.2551,12.8415c-0.1272,0,-0.2468,-0.0495,-0.3367,-0.1394c-0.1179,-0.1179,-0.1652,-0.285,-0.1266,-0.447l0.4174,-1.7528c0.0589,-0.2473,0.1851,-0.4732,0.365,-0.653l4.5527,-4.5525c0.2935,-0.2935,0.6837,-0.4551,1.0987,-0.4551s0.8052,0.1616,1.0987,0.455c0.6058,0.6056,0.6058,1.5912,0.0001,2.197l-4.5527,4.5525c-0.1799,0.1799,-0.4058,0.3061,-0.6532,0.365l-1.753,0.4173C8.3293,12.8372,8.2922,12.8415,8.2551,12.8415zM14.6508,6.8204c0.2345,-0.2344,0.2345,-0.6158,0,-0.8503c-0.1135,-0.1135,-0.2645,-0.1761,-0.4251,-0.1761s-0.3117,0.0625,-0.4252,0.1761l-4.5527,4.5525c-0.0552,0.0552,-0.0938,0.1244,-0.1119,0.2002l-0.2382,1.0001l1.0001,-0.2381c0.0759,-0.0181,0.1452,-0.0568,0.2004,-0.1119L14.6508,6.8204z" id="c2" fill="#d4d4d4"/>
  </g>
</svg>
