<?xml version="1.0" encoding="UTF-8"?>
<!DOCTYPE svg PUBLIC "-//W3C//DTD SVG 1.1//EN" "http://www.w3.org/Graphics/SVG/1.1/DTD/svg11.dtd">
<svg version="1.1" id="Layer_1" xmlns="http://www.w3.org/2000/svg" xmlns:xlink="http://www.w3.org/1999/xlink" x="0px" y="0px" width="16px" height="16px" viewBox="0 0 16 16" enable-background="new 0 0 16 16" xml:space="preserve">
  <g id="main">
    <g id="icon">
      <path d="M3.178,1.762L2.929,1.929L2.762,2.178L2.7,2.483L2.7,13.52L2.762,13.82L2.929,14.07L3.178,14.24L3.483,14.3L6.779,14.3L6.641,14.07L6.368,13.48L6.167,12.85L6.043,12.19L6,11.5L6.029,10.94L6.112,10.39L6.248,9.866L6.433,9.361L6.665,8.88L6.941,8.427L7.257,8.004L7.613,7.613L8.004,7.257L8.427,6.941L8.88,6.665L9.361,6.433L9.866,6.248L10.39,6.112L10.94,6.029L11.5,6L12.19,6.043L12.3,6.064L12.3,4.8L9.25,1.7L3.483,1.7zz" fill="#262626"/>
      <path d="M3.597,1.041L3.221,1.157L2.882,1.342L2.586,1.586L2.342,1.882L2.157,2.221L2.041,2.597L2,3L2,13L2.041,13.4L2.157,13.78L2.342,14.12L2.586,14.41L2.882,14.66L3.221,14.84L3.597,14.96L4,15L7.272,15L6.98,14.63L6.641,14.07L6.607,14L4,14L3.611,13.92L3.293,13.71L3.079,13.39L3,13L3,3L3.079,2.611L3.293,2.293L3.611,2.079L4,2L8,2L8,4.5L8.03,4.802L8.118,5.084L8.256,5.339L8.439,5.561L8.661,5.744L8.916,5.882L9.198,5.97L9.5,6L11.5,6L12,6L12,6.031L12.19,6.043L12.85,6.167L13,6.216L13,5.414L12.97,5.12L12.89,4.84L12.75,4.582L12.56,4.354L9.646,1.439L9.418,1.252L9.16,1.114L8.88,1.029L8.586,1L4,1zM11.79,5L9.5,5L9.305,4.961L9.146,4.854L9.039,4.695L9,4.5L9,2.207zz" fill="#d4d4d4"/>
    </g>
    <g id="overlay">
      <circle cx="11.5" cy="11.5" r="4" id="b" fill="#171717"/>
      <path d="M11.5,7c-2.4853,0,-4.5,2.0147,-4.5,4.5c0,2.4853,2.0147,4.5,4.5,4.5c2.4853,0,4.5,-2.0147,4.5,-4.5C16,9.0147,13.9853,7,11.5,7zM11.5,15c-1.933,0,-3.5,-1.567,-3.5,-3.5s1.567,-3.5,3.5,-3.5s3.5,1.567,3.5,3.5S13.433,15,11.5,15z" id="c3" fill="#047857"/>
      <path d="M13.5,11h-1.5V9.5c0,-0.2761,-0.2239,-0.5,-0.5,-0.5s-0.5,0.2239,-0.5,0.5v1.5H9.5c-0.2761,0,-0.5,0.2239,-0.5,0.5s0.2239,0.5,0.5,0.5h1.5v1.5c0,0.2761,0.2239,0.5,0.5,0.5s0.5,-0.2239,0.5,-0.5v-1.5h1.5c0.2761,0,0.5,-0.2239,0.5,-0.5S13.7761,11,13.5,11z" id="c3" fill="#047857"/>
    </g>
  </g>
</svg>
