<?xml version="1.0" encoding="UTF-8"?>
<!DOCTYPE svg PUBLIC "-//W3C//DTD SVG 1.1//EN" "http://www.w3.org/Graphics/SVG/1.1/DTD/svg11.dtd">
<svg version="1.1" id="Layer_1" xmlns="http://www.w3.org/2000/svg" xmlns:xlink="http://www.w3.org/1999/xlink" x="0px" y="0px" width="16px" height="16px" viewBox="0 0 16 16" enable-background="new 0 0 16 16" xml:space="preserve">
  <g id="main">
    <g id="icon">
      <path d="M2.698,2.53L2.417,2.618L2.162,2.756L1.94,2.94L1.756,3.162L1.618,3.417L1.53,3.698L1.5,4L1.5,12L1.53,12.3L1.618,12.58L1.756,12.84L1.94,13.06L2.162,13.24L2.417,13.38L2.698,13.47L3,13.5L13,13.5L13.3,13.47L13.58,13.38L13.84,13.24L14.06,13.06L14.24,12.84L14.38,12.58L14.47,12.3L14.5,12L14.5,9.099L14.07,9.359L13.48,9.632L12.85,9.833L12.19,9.957L11.5,10L10.94,9.971L10.39,9.888L9.866,9.752L9.361,9.567L8.88,9.335L8.427,9.059L8.004,8.743L7.613,8.387L7.257,7.996L6.941,7.573L6.665,7.12L6.433,6.639L6.248,6.134L6.112,5.607L6.029,5.062L6,4.5L6.043,3.814L6.167,3.153L6.368,2.522L6.378,2.5L3,2.5zz" fill="#262626"/>
      <path d="M2.597,2.041L2.221,2.157L1.882,2.342L1.586,2.586L1.342,2.882L1.157,3.221L1.041,3.597L1,4L1,12L1.041,12.4L1.157,12.78L1.342,13.12L1.586,13.41L1.882,13.66L2.221,13.84L2.597,13.96L3,14L13,14L13.4,13.96L13.78,13.84L14.12,13.66L14.41,13.41L14.66,13.12L14.84,12.78L14.96,12.4L15,12L15,8.728L14.63,9.02L14.07,9.359L14,9.393L14,12L13.92,12.39L13.71,12.71L13.39,12.92L13,13L3,13L2.611,12.92L2.293,12.71L2.079,12.39L2,12L2,5.5L6.096,5.5L6.029,5.062L6,4.5L2,4.5L2,4L2.079,3.611L2.293,3.293L2.611,3.079L3,3L6.216,3L6.368,2.522L6.607,2L3,2zz" fill="#d4d4d4"/>
    </g>
    <g id="overlay">
      <path d="M11.5,8.5361c-2.2291,0,-4.0361,-1.807,-4.0361,-4.0361S9.2709,0.4639,11.5,0.4639S15.5361,2.2709,15.5361,4.5S13.7291,8.5361,11.5,8.5361z" id="b" fill="#171717"/>
      <path d="M7,4.5c0,-2.4813,2.0187,-4.5,4.5,-4.5s4.5,2.0187,4.5,4.5s-2.0187,4.5,-4.5,4.5S7,6.9813,7,4.5zM15.0352,4.5c0,-1.9493,-1.5859,-3.5352,-3.5352,-3.5352S7.9648,2.5507,7.9648,4.5S9.5507,8.0352,11.5,8.0352S15.0352,6.4493,15.0352,4.5z" id="c3" fill="#06b6d4"/>
      <path d="M9.282,5.152c0,-0.128,0.0499,-0.2484,0.1404,-0.339l1.7387,-1.7386c0.1869,-0.1869,0.491,-0.1869,0.678,0l1.7386,1.7387c0.0905,0.0906,0.1404,0.2109,0.1404,0.339s-0.0499,0.2484,-0.1404,0.339c-0.187,0.1869,-0.4911,0.1869,-0.678,0L11.5,4.0913L10.1003,5.491c-0.1869,0.1869,-0.491,0.1869,-0.678,0C9.3318,5.4004,9.282,5.28,9.282,5.152z" id="c3" fill="#06b6d4"/>
    </g>
  </g>
</svg>
