<?xml version="1.0" encoding="UTF-8"?>
<!DOCTYPE svg PUBLIC "-//W3C//DTD SVG 1.1//EN" "http://www.w3.org/Graphics/SVG/1.1/DTD/svg11.dtd">
<svg version="1.1" id="Layer_1" xmlns="http://www.w3.org/2000/svg" xmlns:xlink="http://www.w3.org/1999/xlink" x="0px" y="0px" width="16px" height="16px" viewBox="0 0 16 16" enable-background="new 0 0 16 16" xml:space="preserve">
  <g id="icon">
    <path d="M12.1052,13.5H3.8948C3.1277,13.5,2.5,12.8723,2.5,12.1052V3.8948C2.5,3.1277,3.1277,2.5,3.8948,2.5h8.2103C12.8723,2.5,13.5,3.1277,13.5,3.8948v8.2103C13.5,12.8723,12.8723,13.5,12.1052,13.5z" id="b" fill="#262626"/>
    <path d="M12.1052,14H3.8948C2.85,14,2,13.15,2,12.1052V3.8948C2,2.85,2.85,2,3.8948,2h8.2104C13.15,2,14,2.85,14,3.8948v8.2104C14,13.15,13.15,14,12.1052,14zM3.8948,3C3.4014,3,3,3.4014,3,3.8948v8.2104c0,0.4934,0.4014,0.8948,0.8948,0.8948h8.2104c0.4934,0,0.8948,-0.4014,0.8948,-0.8948V3.8948c0,-0.4934,-0.4014,-0.8948,-0.8948,-0.8948H3.8948z" id="c1" fill="#d4d4d4"/>
    <path d="M11.475,12h-0.95c-0.2899,0,-0.525,-0.2351,-0.525,-0.525v-0.95c0,-0.2899,0.2351,-0.525,0.525,-0.525h0.95c0.2899,0,0.525,0.2351,0.525,0.525v0.95C12,11.7649,11.7649,12,11.475,12zM10,9.475v-0.95c0,-0.2899,-0.2351,-0.525,-0.525,-0.525h-0.95C8.2351,8,8,8.2351,8,8.525v0.95c0,0.2899,0.2351,0.525,0.525,0.525h0.95C9.7649,10,10,9.7649,10,9.475zM7,6.15v-1.3c0,-0.4687,-0.3813,-0.85,-0.85,-0.85h-1.3c-0.4687,0,-0.85,0.3813,-0.85,0.85v1.3c0,0.4687,0.3813,0.85,0.85,0.85h1.3C6.6187,7,7,6.6187,7,6.15zM5,5h1v1H5V5zM7,11.15v-1.3c0,-0.4687,-0.3813,-0.85,-0.85,-0.85h-1.3c-0.4687,0,-0.85,0.3813,-0.85,0.85v1.3c0,0.4687,0.3813,0.85,0.85,0.85h1.3C6.6187,12,7,11.6187,7,11.15zM5,10h1v1H5V10zM12,6.15v-1.3c0,-0.4687,-0.3813,-0.85,-0.85,-0.85h-1.3c-0.4687,0,-0.85,0.3813,-0.85,0.85v1.3c0,0.4687,0.3813,0.85,0.85,0.85h1.3C11.6187,7,12,6.6187,12,6.15zM10,5h1v1h-1V5z" id="c2" fill="#d4d4d4"/>
  </g>
</svg>
