<?xml version="1.0" encoding="UTF-8"?>
<!DOCTYPE svg PUBLIC "-//W3C//DTD SVG 1.1//EN" "http://www.w3.org/Graphics/SVG/1.1/DTD/svg11.dtd">
<svg version="1.1" id="Layer_1" xmlns="http://www.w3.org/2000/svg" xmlns:xlink="http://www.w3.org/1999/xlink" x="0px" y="0px" width="16px" height="16px" viewBox="0 0 16 16" enable-background="new 0 0 16 16" xml:space="preserve">
  <g id="main">
    <g id="icon">
      <path d="M7.334,4.451L6.704,4.62L6.123,4.889L5.601,5.249L5.149,5.692L4.778,6.208L4.501,6.787L4.328,7.421L4.27,7.746L3.872,7.746L3.374,7.796L2.911,7.938L2.491,8.162L2.125,8.459L1.823,8.819L1.595,9.231L1.45,9.687L1.4,10.18L1.45,10.67L1.595,11.12L1.823,11.53L2.125,11.89L2.491,12.19L2.911,12.42L3.374,12.56L3.872,12.61L6.122,12.61L6.043,12.19L6,11.5L6.029,10.94L6.112,10.39L6.248,9.866L6.433,9.361L6.665,8.88L6.941,8.427L7.257,8.004L7.613,7.613L8.004,7.257L8.427,6.941L8.88,6.665L9.361,6.433L9.866,6.248L10.39,6.112L10.94,6.029L11.09,6.021L10.85,5.692L10.4,5.249L9.877,4.889L9.296,4.62L8.666,4.451L8,4.393zz" fill="#262626"/>
      <path d="M7.27,4.064L6.579,4.25L5.942,4.548L5.369,4.947L4.873,5.437L4.467,6.007L4.163,6.648L3.973,7.35L3.968,7.383L3.872,7.383L3.302,7.44L2.771,7.604L2.29,7.863L1.87,8.206L1.524,8.622L1.263,9.099L1.098,9.626L1.04,10.19L1.098,10.76L1.263,11.28L1.524,11.76L1.87,12.18L2.29,12.52L2.771,12.78L3.302,12.94L3.872,13L6.216,13L6.167,12.85L6.043,12.19L6.032,12.01L3.872,12.01L3.503,11.98L3.158,11.87L2.847,11.7L2.575,11.48L2.351,11.21L2.181,10.9L2.074,10.56L2.037,10.19L2.074,9.825L2.181,9.483L2.351,9.174L2.575,8.904L2.847,8.682L3.158,8.514L3.503,8.408L3.872,8.371L3.872,8.371L4.415,8.371L4.603,8.334L4.758,8.235L4.867,8.086L4.912,7.901L5.001,7.307L5.197,6.757L5.49,6.261L5.868,5.832L6.319,5.479L6.833,5.213L7.397,5.046L8,4.988L8.603,5.046L9.167,5.213L9.681,5.479L10.13,5.832L10.38,6.115L10.39,6.112L10.94,6.029L11.5,6L11.53,6.002L11.13,5.437L10.63,4.947L10.06,4.548L9.421,4.25L8.73,4.064L8,4zz" fill="#d4d4d4"/>
    </g>
    <g id="overlay">
      <circle cx="11.5" cy="11.5" r="4" id="b" fill="#171717"/>
      <path d="M11.5,7c-2.4853,0,-4.5,2.0147,-4.5,4.5c0,2.4853,2.0147,4.5,4.5,4.5c2.4853,0,4.5,-2.0147,4.5,-4.5C16,9.0147,13.9853,7,11.5,7zM11.5,15c-1.933,0,-3.5,-1.567,-3.5,-3.5s1.567,-3.5,3.5,-3.5s3.5,1.567,3.5,3.5S13.433,15,11.5,15z" id="c3" fill="#6ee7b7"/>
      <path d="M13.5,11h-1.5V9.5c0,-0.2761,-0.2239,-0.5,-0.5,-0.5s-0.5,0.2239,-0.5,0.5v1.5H9.5c-0.2761,0,-0.5,0.2239,-0.5,0.5s0.2239,0.5,0.5,0.5h1.5v1.5c0,0.2761,0.2239,0.5,0.5,0.5s0.5,-0.2239,0.5,-0.5v-1.5h1.5c0.2761,0,0.5,-0.2239,0.5,-0.5S13.7761,11,13.5,11z" id="c3" fill="#6ee7b7"/>
    </g>
  </g>
</svg>
