<?xml version="1.0" encoding="UTF-8"?>
<!DOCTYPE svg PUBLIC "-//W3C//DTD SVG 1.1//EN" "http://www.w3.org/Graphics/SVG/1.1/DTD/svg11.dtd">
<svg version="1.1" id="Layer_1" xmlns="http://www.w3.org/2000/svg" xmlns:xlink="http://www.w3.org/1999/xlink" x="0px" y="0px" width="16px" height="16px" viewBox="0 0 16 16" enable-background="new 0 0 16 16" xml:space="preserve">
  <g id="icon">
    <path d="M12,14.5H4c-0.8284,0,-1.5,-0.6716,-1.5,-1.5V3c0,-0.8284,0.6716,-1.5,1.5,-1.5h8c0.8284,0,1.5,0.6716,1.5,1.5v10C13.5,13.8284,12.8284,14.5,12,14.5z" id="b" fill="#262626"/>
    <path d="M12,1H4c-1.1028,0,-2,0.8972,-2,2v10c0,1.1028,0.8972,2,2,2h8c1.1028,0,2,-0.8972,2,-2V3C14,1.8972,13.1028,1,12,1zM13,13c0,0.5514,-0.4486,1,-1,1H4c-0.5514,0,-1,-0.4486,-1,-1V3c0,-0.5514,0.4486,-1,1,-1h1v0.2333C5,2.6568,5.3432,3,5.7667,3h4.4667c0.4234,0,0.7667,-0.3432,0.7667,-0.7667V2h1c0.5514,0,1,0.4486,1,1V13z" id="c1" fill="#d4d4d4"/>
    <path d="M7.9975,13C5.7933,13,4,11.2056,4,9s1.7933,-4,3.9975,-4s3.9975,1.7944,3.9975,4S10.2018,13,7.9975,13zM7.9975,6C6.3447,6,5,7.3458,5,9s1.3447,3,2.9975,3s2.9975,-1.3458,2.9975,-3S9.6503,6,7.9975,6zM7.9673,8.0291c-0.522,0,-0.9452,0.4232,-0.9452,0.9452c0,0.522,0.4232,0.9452,0.9452,0.9452s0.9452,-0.4232,0.9452,-0.9452C8.9125,8.4523,8.4894,8.0291,7.9673,8.0291z" id="c2" fill="#d4d4d4"/>
  </g>
</svg>
