<?xml version="1.0" encoding="UTF-8"?>
<!DOCTYPE svg PUBLIC "-//W3C//DTD SVG 1.1//EN" "http://www.w3.org/Graphics/SVG/1.1/DTD/svg11.dtd">
<svg version="1.1" id="Layer_1" xmlns="http://www.w3.org/2000/svg" xmlns:xlink="http://www.w3.org/1999/xlink" x="0px" y="0px" width="16px" height="16px" viewBox="0 0 16 16" enable-background="new 0 0 16 16" xml:space="preserve">
  <g id="main">
    <g id="icon">
      <path d="M4.545,1.527L4.299,1.603L3.883,1.883L3.603,2.299L3.527,2.545L3.5,2.808L3.5,13.19L3.527,13.46L3.603,13.7L3.883,14.12L4.299,14.4L4.545,14.47L4.808,14.5L7.085,14.5L6.829,14.07L6.562,13.48L6.364,12.85L6.242,12.19L6.2,11.5L6.228,10.94L6.31,10.39L6.443,9.866L6.625,9.361L6.853,8.88L7.123,8.427L7.783,7.613L8.167,7.257L8.583,6.941L9.028,6.665L9.5,6.433L9.996,6.248L10.51,6.112L11.05,6.029L11.5,6.005L11.5,2.808L11.47,2.545L11.4,2.299L11.12,1.883L10.7,1.603L10.46,1.527L10.19,1.5L4.808,1.5zz" fill="#262626"/>
      <path d="M4.444,1.037L4.105,1.142L3.798,1.309L3.53,1.53L3.309,1.798L3.142,2.105L3.037,2.444L3,2.808L3,13.19L3.037,13.56L3.142,13.89L3.309,14.2L3.53,14.47L3.798,14.69L4.105,14.86L4.444,14.96L4.808,15L7.448,15L7.162,14.63L6.829,14.07L6.796,14L4.808,14L4.494,13.94L4.237,13.76L4.064,13.51L4,13.19L4,2.808L4.064,2.494L4.237,2.237L4.494,2.064L4.808,2L10.19,2L10.51,2.064L10.76,2.237L10.94,2.494L11,2.808L11,6.036L11.05,6.029L11.6,6L12,6.025L12,2.808L11.96,2.444L11.86,2.105L11.69,1.798L11.47,1.53L11.2,1.309L10.89,1.142L10.56,1.037L10.19,1L4.808,1zz" fill="#d4d4d4"/>
      <path d="M3.6,6L11.6,6L11.7,6L11.7,5L3.6,5zz" fill="#d4d4d4"/>
      <path d="M8.305,3.039L8.146,3.146L8.039,3.305L8,3.5L8.039,3.695L8.146,3.854L8.305,3.961L8.5,4L9.5,4L9.695,3.961L9.854,3.854L9.961,3.695L10,3.5L9.961,3.305L9.854,3.146L9.695,3.039L9.5,3L8.5,3zz" fill="#d4d4d4"/>
      <path d="M6.302,10.19L6.226,10.44L6.2,10.7L6.226,10.96L6.227,10.96L6.228,10.94L6.31,10.39L6.395,10.06zz" fill="#d4d4d4"/>
    </g>
    <g id="overlay">
      <path d="M15.5344,11.5c0,2.2223,-1.7615,4.0238,-3.9344,4.0238S7.6656,13.7223,7.6656,11.5S9.4271,7.4762,11.6,7.4762S15.5344,9.2777,15.5344,11.5z" id="b" fill="#171717"/>
      <path d="M11.6,7c-2.4261,0,-4.4,2.0187,-4.4,4.5c0,2.4813,1.9739,4.5,4.4,4.5s4.4,-2.0187,4.4,-4.5C16,9.0187,14.0261,7,11.6,7zM14.4466,9.4762h-1.0915c-0.1055,-0.4539,-0.246,-0.8752,-0.4191,-1.2498C13.5482,8.4887,14.0714,8.9259,14.4466,9.4762zM15.0688,11.5c0,0.3733,-0.057,0.7332,-0.1621,1.0714H13.518c0.0394,-0.3468,0.0609,-0.705,0.0609,-1.0714s-0.0215,-0.7247,-0.0609,-1.0715h1.3887C15.0118,10.7668,15.0688,11.1267,15.0688,11.5zM11.6,15.0476c-0.0274,0,-0.0545,-0.0015,-0.0818,-0.0021c-0.3035,-0.3642,-0.553,-0.8959,-0.7256,-1.5217h1.615c-0.1727,0.6258,-0.4221,1.1575,-0.7256,1.5217C11.6545,15.0462,11.6274,15.0476,11.6,15.0476zM10.6,12.5714c-0.0464,-0.3461,-0.0716,-0.7061,-0.0716,-1.0714s0.0252,-0.7253,0.0716,-1.0715h2c0.0464,0.3461,0.0716,0.7061,0.0716,1.0715s-0.0252,0.7253,-0.0716,1.0714H10.6zM8.1312,11.5c0,-0.3733,0.057,-0.7332,0.1621,-1.0715H9.682c-0.0394,0.3468,-0.0609,0.705,-0.0609,1.0715s0.0215,0.7247,0.0609,1.0714H8.2933C8.1883,12.2332,8.1312,11.8733,8.1312,11.5zM11.6,7.9524c0.0274,0,0.0545,0.0015,0.0818,0.0021c0.3035,0.3642,0.553,0.8959,0.7257,1.5217h-1.615c0.1727,-0.6258,0.4221,-1.1575,0.7257,-1.5217C11.5455,7.9538,11.5726,7.9524,11.6,7.9524zM10.264,8.2264c-0.1731,0.3746,-0.3136,0.7959,-0.4191,1.2498H8.7534C9.1286,8.9259,9.6518,8.4887,10.264,8.2264zM8.7534,13.5238h1.0915c0.1055,0.4539,0.246,0.8752,0.4191,1.2498C9.6518,14.5113,9.1286,14.0741,8.7534,13.5238zM12.936,14.7736c0.1731,-0.3746,0.3136,-0.7959,0.4191,-1.2498h1.0915C14.0714,14.0741,13.5482,14.5113,12.936,14.7736z" id="c1" fill="#d4d4d4"/>
    </g>
  </g>
</svg>
