<?xml version="1.0" encoding="UTF-8"?>
<!DOCTYPE svg PUBLIC "-//W3C//DTD SVG 1.1//EN" "http://www.w3.org/Graphics/SVG/1.1/DTD/svg11.dtd">
<svg version="1.1" id="Layer_1" xmlns="http://www.w3.org/2000/svg" xmlns:xlink="http://www.w3.org/1999/xlink" x="0px" y="0px" width="16px" height="16px" viewBox="0 0 16 16" enable-background="new 0 0 16 16" xml:space="preserve">
  <g id="main">
    <g id="icon">
      <path d="M6.704,4.62L6.123,4.889L5.601,5.249L5.149,5.692L4.778,6.208L4.501,6.787L4.328,7.421L4.27,7.746L3.872,7.746L3.374,7.796L2.911,7.938L2.491,8.162L2.125,8.459L1.823,8.819L1.595,9.231L1.45,9.687L1.4,10.18L1.45,10.67L1.595,11.12L1.823,11.53L2.125,11.89L2.491,12.19L2.911,12.42L3.374,12.56L3.872,12.61L12.13,12.61L12.63,12.56L13.09,12.42L13.51,12.19L13.88,11.89L14.18,11.53L14.41,11.12L14.55,10.67L14.6,10.18L14.55,9.687L14.41,9.231L14.18,8.819L13.88,8.459L13.66,8.281L13.62,8.338L13.33,8.613L12.87,8.855L12.35,8.938L11.82,8.848L11.34,8.592L11.24,8.507L7.588,5.291L7.337,5.023L7.152,4.711L7.087,4.517zz" fill="#262626"/>
      <path d="M6.579,4.25L5.942,4.548L5.369,4.947L4.873,5.437L4.467,6.007L4.163,6.648L3.973,7.35L3.968,7.383L3.872,7.383L3.302,7.44L2.771,7.604L2.29,7.863L1.87,8.206L1.524,8.622L1.263,9.099L1.098,9.626L1.04,10.19L1.098,10.76L1.263,11.28L1.524,11.76L1.87,12.18L2.29,12.52L2.771,12.78L3.302,12.94L3.872,13L12.13,13L12.7,12.94L13.23,12.78L13.71,12.52L14.13,12.18L14.48,11.76L14.74,11.28L14.9,10.76L14.96,10.19L14.9,9.626L14.74,9.099L14.48,8.622L14.13,8.206L13.88,8L13.83,8L13.62,8.338L13.33,8.613L13.17,8.696L13.42,8.904L13.65,9.174L13.82,9.483L13.93,9.825L13.96,10.19L13.93,10.56L13.82,10.9L13.65,11.21L13.42,11.48L13.15,11.7L12.84,11.87L12.5,11.98L12.13,12.01L3.872,12.01L3.503,11.98L3.158,11.87L2.847,11.7L2.575,11.48L2.351,11.21L2.181,10.9L2.074,10.56L2.037,10.19L2.074,9.825L2.181,9.483L2.351,9.174L2.575,8.904L2.847,8.682L3.158,8.514L3.503,8.408L3.872,8.371L3.872,8.371L4.415,8.371L4.603,8.334L4.758,8.235L4.867,8.086L4.912,7.901L5.001,7.307L5.197,6.757L5.49,6.261L5.868,5.832L6.319,5.479L6.833,5.213L7.367,5.054L7.337,5.023L7.152,4.711L7.037,4.367L7.012,4.134zz" fill="#d4d4d4"/>
    </g>
    <g id="overlay">
      <path d="M8.5449,4.2291l3.6822,3.3215c0.1113,0.0881,0.273,0.0068,0.273,-0.1372v-1.812l2.4278,-0.0004c0.3159,0,0.5722,-0.5228,0.5722,-0.5721l0.0004,-1.9551c0.0001,-0.3161,-0.2562,-0.5724,-0.5723,-0.5724L12.5,2.5017V0.6893c0,-0.144,-0.1616,-0.2253,-0.273,-0.1372L8.5449,3.8736C8.4312,3.9635,8.4312,4.1392,8.5449,4.2291z" id="b" fill="#171717"/>
      <path d="M7.9973,4.0014c0,-0.2067,0.0898,-0.4011,0.2467,-0.5345l3.6682,-3.2315c0.0124,-0.012,0.0256,-0.0233,0.0393,-0.0339c0.2293,-0.1774,0.5455,-0.1848,0.7888,-0.0059C12.9104,0.3207,13,0.528,13,0.7392v1.2622h1.9c0.2463,0,0.5088,0.0716,0.7013,0.2252c0.2557,0.204,0.3987,0.503,0.3987,0.824l-0.0003,1.9014c-0.0002,0.5785,-0.4703,1.0493,-1.048,1.0494H13v1.2621c0,0.2112,-0.0897,0.4186,-0.2598,0.5437c-0.2433,0.1789,-0.5595,0.1715,-0.7889,-0.006c-0.0138,-0.0107,-0.0267,-0.0219,-0.0391,-0.0338L8.2439,4.5359C8.0871,4.4024,7.9973,4.2081,7.9973,4.0014zM9.0405,4.0513L12,6.5412v-0.9508c0,-0.2697,0.2346,-0.5891,0.5,-0.5891h2.4c0.0476,0,0.1,-0.039,0.1,-0.0866l0.0004,-1.8266c0,-0.0235,-0.0087,-0.0448,-0.025,-0.0614c-0.0164,-0.0167,-0.0522,-0.0254,-0.0754,-0.0254h-2.4c-0.0941,0,-0.1898,-0.0198,-0.2692,-0.0704c-0.1473,-0.0939,-0.2308,-0.2496,-0.2308,-0.4183v-0.9512L9.0405,4.0513z" id="c3" fill="#06b6d4"/>
    </g>
  </g>
</svg>
