<?xml version="1.0" encoding="UTF-8"?>
<!DOCTYPE svg PUBLIC "-//W3C//DTD SVG 1.1//EN" "http://www.w3.org/Graphics/SVG/1.1/DTD/svg11.dtd">
<svg version="1.1" id="Layer_1" xmlns="http://www.w3.org/2000/svg" xmlns:xlink="http://www.w3.org/1999/xlink" x="0px" y="0px" width="16px" height="16px" viewBox="0 0 16 16" enable-background="new 0 0 16 16" xml:space="preserve">
  <g id="main">
    <g id="icon">
      <path d="M2.961,2.746L2.773,2.873L2.646,3.061L2.6,3.292L2.6,10.81L2.646,11.04L2.773,11.23L2.961,11.35L3.192,11.4L6.205,11.4L6.228,10.94L6.31,10.39L6.443,9.866L6.625,9.361L6.853,8.88L7.123,8.427L7.783,7.613L8.167,7.257L8.583,6.941L9.028,6.665L9.5,6.433L9.996,6.248L10.51,6.112L11.05,6.029L11.6,6L12.27,6.042L12.91,6.165L13.4,6.322L13.4,3.292L13.35,3.061L13.23,2.873L13.04,2.746L12.81,2.7L3.192,2.7zz" fill="#262626"/>
      <path d="M4.301,13.05L4.178,13.18L4.09,13.36L4.057,13.55L4.092,13.73L4.194,13.87L4.355,13.97L4.571,14L6.796,14L6.562,13.48L6.412,13L6,13L4.507,13L4.443,13zz" fill="#d4d4d4"/>
      <path d="M3.119,2.052L2.85,2.154L2.61,2.3L2.403,2.483L2.107,2.938L2.028,3.196L2,3.467L2,10.57L2,10.63L2.03,10.92L2.116,11.19L2.251,11.42L2.43,11.62L2.647,11.78L2.896,11.9L3.171,11.97L3.465,12L6,12L6.23,12L6.2,11.5L6.225,11L3.468,11L3.401,11L3.254,10.96L3.125,10.87L3.034,10.72L3,10.54L3,3.465L3,3.465L3,3.398L3.036,3.252L3.134,3.124L3.282,3.034L3.468,3L12.53,3L12.6,3L12.75,3.035L12.87,3.133L12.97,3.28L13,3.465L13,6.193L13.53,6.364L14,6.581L14,3.533L14,3.465L13.97,3.171L13.88,2.896L13.75,2.647L13.57,2.43L13.35,2.251L13.1,2.116L12.83,2.03L12.53,2L3.591,2L3.411,2zz" fill="#d4d4d4"/>
    </g>
    <g id="overlay">
      <path d="M15.5344,11.5c0,2.2223,-1.7615,4.0238,-3.9344,4.0238S7.6656,13.7223,7.6656,11.5S9.4271,7.4762,11.6,7.4762S15.5344,9.2777,15.5344,11.5z" id="b" fill="#171717"/>
      <path d="M11.6,7c-2.4261,0,-4.4,2.0187,-4.4,4.5c0,2.4813,1.9739,4.5,4.4,4.5s4.4,-2.0187,4.4,-4.5C16,9.0187,14.0261,7,11.6,7zM14.4466,9.4762h-1.0915c-0.1055,-0.4539,-0.246,-0.8752,-0.4191,-1.2498C13.5482,8.4887,14.0714,8.9259,14.4466,9.4762zM15.0688,11.5c0,0.3733,-0.057,0.7332,-0.1621,1.0714H13.518c0.0394,-0.3468,0.0609,-0.705,0.0609,-1.0714s-0.0215,-0.7247,-0.0609,-1.0715h1.3887C15.0118,10.7668,15.0688,11.1267,15.0688,11.5zM11.6,15.0476c-0.0274,0,-0.0545,-0.0015,-0.0818,-0.0021c-0.3035,-0.3642,-0.553,-0.8959,-0.7256,-1.5217h1.615c-0.1727,0.6258,-0.4221,1.1575,-0.7256,1.5217C11.6545,15.0462,11.6274,15.0476,11.6,15.0476zM10.6,12.5714c-0.0464,-0.3461,-0.0716,-0.7061,-0.0716,-1.0714s0.0252,-0.7253,0.0716,-1.0715h2c0.0464,0.3461,0.0716,0.7061,0.0716,1.0715s-0.0252,0.7253,-0.0716,1.0714H10.6zM8.1312,11.5c0,-0.3733,0.057,-0.7332,0.1621,-1.0715H9.682c-0.0394,0.3468,-0.0609,0.705,-0.0609,1.0715s0.0215,0.7247,0.0609,1.0714H8.2933C8.1883,12.2332,8.1312,11.8733,8.1312,11.5zM11.6,7.9524c0.0274,0,0.0545,0.0015,0.0818,0.0021c0.3035,0.3642,0.553,0.8959,0.7257,1.5217h-1.615c0.1727,-0.6258,0.4221,-1.1575,0.7257,-1.5217C11.5455,7.9538,11.5726,7.9524,11.6,7.9524zM10.264,8.2264c-0.1731,0.3746,-0.3136,0.7959,-0.4191,1.2498H8.7534C9.1286,8.9259,9.6518,8.4887,10.264,8.2264zM8.7534,13.5238h1.0915c0.1055,0.4539,0.246,0.8752,0.4191,1.2498C9.6518,14.5113,9.1286,14.0741,8.7534,13.5238zM12.936,14.7736c0.1731,-0.3746,0.3136,-0.7959,0.4191,-1.2498h1.0915C14.0714,14.0741,13.5482,14.5113,12.936,14.7736z" id="c1" fill="#d4d4d4"/>
    </g>
  </g>
</svg>
