<?xml version="1.0" encoding="UTF-8"?>
<!DOCTYPE svg PUBLIC "-//W3C//DTD SVG 1.1//EN" "http://www.w3.org/Graphics/SVG/1.1/DTD/svg11.dtd">
<svg version="1.1" id="Layer_1" xmlns="http://www.w3.org/2000/svg" xmlns:xlink="http://www.w3.org/1999/xlink" x="0px" y="0px" width="16px" height="16px" viewBox="0 0 16 16" enable-background="new 0 0 16 16" xml:space="preserve">
  <g id="main">
    <clipPath id="clip_mask">
      <path d="M7.6564,0C9.0722,0.9961,10,2.6412,10,4.5c0,3.0327,-2.4673,5.5,-5.5,5.5c-1.8588,0,-3.5039,-0.9278,-4.5,-2.3436V16h16V0H7.6564z"/>
    </clipPath>
    <g id="icon" clip-path="url(#clip_mask)">
      <g id="transformed_icon" transform="translate(1 1)">
        <path d="M0,4h14.9963l0.0033,8.9996c0.0002,0.5524,-0.4476,1.0004,-1,1.0004H1c-0.5523,0,-1,-0.4477,-1,-1L0,4z" fill-rule="evenodd" fill="#E9B664"/>
        <path d="M15,3H0V1C0,0.4477,0.4477,0,1,0h4.2745c0.4243,0,0.8313,0.1686,1.1314,0.4686l1.0628,1.0627C7.7687,1.8314,8.1757,2,8.6,2h5.4C14.5523,2,15,2.4477,15,3L15,3z" fill-rule="evenodd" fill="#96762C"/>
      </g>
    </g>
    <g id="overlay">
      <path d="M8.7375,3.9804L6.326,3.8797c-0.0271,-0.0799,-0.0592,-0.1576,-0.0961,-0.2324l1.6339,-1.7762c0.1025,-0.1025,0.1025,-0.2687,0,-0.3712l-0.3637,-0.3637c-0.1025,-0.1025,-0.2687,-0.1025,-0.3712,0L5.3527,2.7701c-0.0748,-0.037,-0.1525,-0.069,-0.2324,-0.0961L5.0196,0.2625c0,-0.145,-0.1175,-0.2625,-0.2625,-0.2625h-0.5143c-0.145,0,-0.2625,0.1175,-0.2625,0.2625L3.8797,2.674c-0.0799,0.0271,-0.1575,0.0592,-0.2324,0.0961L1.8711,1.1362c-0.1025,-0.1025,-0.2687,-0.1025,-0.3712,0l-0.3637,0.3637c-0.1025,0.1025,-0.1025,0.2687,0,0.3712l1.6339,1.7762c-0.037,0.0748,-0.069,0.1525,-0.0961,0.2324L0.2625,3.9804C0.1175,3.9804,0,4.0979,0,4.2429v0.5143c0,0.145,0.1175,0.2625,0.2625,0.2625l2.4115,0.1007c0.0271,0.0799,0.0592,0.1576,0.0961,0.2324L1.1362,7.1289c-0.1025,0.1025,-0.1025,0.2687,0,0.3712l0.3637,0.3637c0.1025,0.1025,0.2687,0.1025,0.3712,0l1.7762,-1.6339c0.0748,0.037,0.1525,0.069,0.2324,0.0961l0.1007,2.4115c0,0.145,0.1175,0.2625,0.2625,0.2625h0.5143c0.145,0,0.2625,-0.1175,0.2625,-0.2625l0.1007,-2.4115c0.0799,-0.0271,0.1576,-0.0592,0.2324,-0.0961l1.7762,1.6339c0.1025,0.1025,0.2687,0.1025,0.3712,0l0.3637,-0.3637c0.1025,-0.1025,0.1025,-0.2687,0,-0.3712L6.2299,5.3527c0.037,-0.0748,0.069,-0.1525,0.0961,-0.2324l2.4115,-0.1007c0.145,0,0.2625,-0.1175,0.2625,-0.2625v-0.5143C9,4.0979,8.8825,3.9804,8.7375,3.9804zM4.5,5.1c-0.426,0,-0.6,-0.174,-0.6,-0.6c0,-0.426,0.174,-0.6,0.6,-0.6s0.6,0.174,0.6,0.6C5.1,4.926,4.926,5.1,4.5,5.1z" fill-rule="evenodd" fill="#EAB765"/>
    </g>
  </g>
</svg>
