<?xml version="1.0" encoding="UTF-8"?>
<!DOCTYPE svg PUBLIC "-//W3C//DTD SVG 1.1//EN" "http://www.w3.org/Graphics/SVG/1.1/DTD/svg11.dtd">
<svg version="1.1" id="Layer_1" xmlns="http://www.w3.org/2000/svg" xmlns:xlink="http://www.w3.org/1999/xlink" x="0px" y="0px" width="16px" height="16px" viewBox="0 0 16 16" enable-background="new 0 0 16 16" xml:space="preserve">
  <g id="main">
    <clipPath id="clip_mask">
      <path d="M6,11.5c0,-3.0327,2.4673,-5.5,5.5,-5.5c1.8588,0,3.5039,0.9278,4.5,2.3436V0H0v16h8.3436C6.9278,15.0039,6,13.3588,6,11.5z"/>
    </clipPath>
    <g id="icon" clip-path="url(#clip_mask)">
      <path d="M6.154,4.001L9.306,0.852c0.519,-0.519,1.239,-0.817,1.984,-0.817c0.733,0,1.41,0.277,1.916,0.782l0.986,0.985c1.063,1.062,1.052,2.814,-0.035,3.9l-3.178,3.162c-0.052,-0.544,-0.224,-1.12,-0.58,-1.751l2.587,-2.585c0.203,-0.203,0.325,-0.482,0.337,-0.774c0.013,-0.306,-0.094,-0.583,-0.298,-0.787l-0.986,-0.985c-0.195,-0.195,-0.456,-0.301,-0.749,-0.301c-0.311,0,-0.604,0.123,-0.818,0.336L7.899,4.589C7.271,4.23,6.668,4.026,6.154,4.001zM7.147,10.361l-2.589,2.587c-0.213,0.213,-0.513,0.336,-0.824,0.336c0,0,-0.007,0.009,-0.007,0.009c-0.293,0,-0.568,-0.099,-0.763,-0.293l-0.985,-0.985c-0.205,-0.204,-0.298,-0.489,-0.285,-0.795c0.013,-0.292,0.148,-0.579,0.351,-0.782l2.576,-2.574c-0.359,-0.627,-0.563,-1.23,-0.588,-1.744L0.879,9.272c-0.518,0.518,-0.822,1.216,-0.834,1.954c-0.012,0.743,0.253,1.442,0.767,1.955l0.986,0.985c0.505,0.505,1.219,0.796,1.952,0.796c0.745,0,1.501,-0.284,2.02,-0.803l3.191,-3.188C8.393,10.91,7.782,10.714,7.147,10.361z" fill="#CD4C32"/>
      <path d="M14.5,10h-2c-0.276,0,-0.5,-0.224,-0.5,-0.5v0c0,-0.276,0.224,-0.5,0.5,-0.5h2c0.276,0,0.5,0.224,0.5,0.5v0C15,9.776,14.776,10,14.5,10zM13.975,13.975L13.975,13.975c0.195,-0.195,0.195,-0.512,0,-0.707l-2.121,-2.121c-0.195,-0.195,-0.512,-0.195,-0.707,0l0,0c-0.195,0.195,-0.195,0.512,0,0.707l2.121,2.121C13.463,14.17,13.78,14.17,13.975,13.975zM9.5,15L9.5,15c0.276,0,0.5,-0.224,0.5,-0.5v-2c0,-0.276,-0.224,-0.5,-0.5,-0.5h0c-0.276,0,-0.5,0.224,-0.5,0.5v2C9,14.776,9.224,15,9.5,15z" fill="#58595B"/>
      <path d="M0.5,5h2c0.276,0,0.5,0.224,0.5,0.5v0c0,0.276,-0.224,0.5,-0.5,0.5H0.5c-0.276,0,-0.5,-0.224,-0.5,-0.5v0C0,5.224,0.224,5,0.5,5zM1.025,1.025L1.025,1.025c-0.195,0.195,-0.195,0.512,0,0.707l2.121,2.121c0.195,0.195,0.512,0.195,0.707,0l0,0c0.195,-0.195,0.195,-0.512,0,-0.707L1.732,1.025C1.537,0.83,1.22,0.83,1.025,1.025zM5.5,0L5.5,0c-0.276,0,-0.5,0.224,-0.5,0.5v2c0,0.276,0.224,0.5,0.5,0.5h0c0.276,0,0.5,-0.224,0.5,-0.5V0.5C6,0.224,5.776,0,5.5,0z" fill="#58595B"/>
    </g>
    <g id="overlay">
      <path d="M14.682,8.318c-1.7574,-1.7574,-4.6066,-1.7574,-6.364,0c-1.7574,1.7574,-1.7574,4.6066,0,6.364s4.6066,1.7574,6.364,0C16.4393,12.9246,16.4393,10.0754,14.682,8.318zM13.5,11.4l-1.6,1.6h1.6v1H9.5v-1h1.6l-1.6,-1.6V9.8l1.5,1.5V8.5h1v2.8l1.5,-1.5V11.4z" fill-rule="evenodd" fill="#4EA17E"/>
      <polygon points="13.5,9.8 12,11.3 12,8.5 11,8.5 11,11.3 9.5,9.8 9.5,11.4 11.1,13 9.5,13 9.5,14 13.5,14 13.5,13 11.9,13 13.5,11.4" fill="#FFFFFF" stroke-linejoin="miter"/>
    </g>
  </g>
</svg>
