<?xml version="1.0" encoding="UTF-8"?>
<!DOCTYPE svg PUBLIC "-//W3C//DTD SVG 1.1//EN" "http://www.w3.org/Graphics/SVG/1.1/DTD/svg11.dtd">
<svg version="1.1" id="Layer_1" xmlns="http://www.w3.org/2000/svg" xmlns:xlink="http://www.w3.org/1999/xlink" x="0px" y="0px" width="16px" height="16px" viewBox="0 0 16 16" enable-background="new 0 0 16 16" xml:space="preserve">
  <g id="main">
    <clipPath id="clip_mask">
      <path d="M6,11.5c0,-3.0327,2.4673,-5.5,5.5,-5.5c1.8588,0,3.5039,0.9278,4.5,2.3436V0H0v16h8.3436C6.9278,15.0039,6,13.3588,6,11.5z"/>
    </clipPath>
    <g id="icon" clip-path="url(#clip_mask)">
      <path d="M14.1842,6.0204l-2.5205,2.5287c0.059,-0.5717,-0.0256,-1.432,-0.4167,-1.9061l1.7795,-1.7849c0.2019,-0.2026,0.3248,-0.486,0.3375,-0.7775c0.0132,-0.3057,-0.0915,-0.5865,-0.2949,-0.7907l-1.3418,-1.3471c-0.1936,-0.1944,-0.4605,-0.3015,-0.7514,-0.3015c-0.3092,0,-0.6081,0.122,-0.8201,0.3347L6.384,5.7615c-0.2029,0.2037,-0.3101,0.4738,-0.3019,0.7607c0.0081,0.2809,0.1255,0.549,0.3306,0.7549l1.3594,1.3647L6.6144,9.804L5.2551,8.4392c-0.516,-0.518,-0.8036,-1.2012,-0.8098,-1.9238c-0.0063,-0.7237,0.2711,-1.4042,0.7811,-1.9162L8.9983,0.814c0.5162,-0.5182,1.2369,-0.8154,1.9773,-0.8154c0.7289,0,1.407,0.2778,1.9094,0.7822l1.3418,1.347C15.2839,3.1892,15.2649,4.9354,14.1842,6.0204zM0.7874,12.9039l1.3418,1.3471c0.5024,0.5044,1.1805,0.7822,1.9094,0.7822c0.7404,0,1.4612,-0.2972,1.9773,-0.8155l3.7719,-3.7852c1.0466,-1.0507,1.0337,-2.7733,-0.0287,-3.84L8.3998,5.2278L7.2422,6.39l1.3593,1.3647c0.4313,0.433,0.444,1.0987,0.0288,1.5156l-3.772,3.7705c-0.2119,0.2127,-0.5108,0.3201,-0.82,0.3201c0,0,0,0,-0.0001,0c-0.2909,0,-0.5578,-0.0924,-0.7514,-0.2869l-1.3417,-1.3397c-0.2034,-0.2042,-0.3081,-0.4813,-0.2949,-0.787c0.0126,-0.2915,0.1356,-0.5731,0.3375,-0.7757l1.7795,-1.784c-0.3911,-0.4734,-0.4757,-1.3337,-0.4166,-1.9057L0.83,9.0111c-0.5152,0.5173,-0.8053,1.2084,-0.8168,1.9458C0.0017,11.6996,0.2767,12.3911,0.7874,12.9039z" fill="#E68055"/>
    </g>
    <g id="overlay">
      <path d="M8.318,14.682c1.7574,1.7574,4.6066,1.7574,6.364,0c1.7574,-1.7574,1.7574,-4.6066,0,-6.364s-4.6066,-1.7574,-6.364,0C6.5607,10.0754,6.5607,12.9246,8.318,14.682zM9.5,11.6l1.6,-1.6H9.5V9h4v1h-1.6l1.6,1.6v1.6l-1.5,-1.5v2.8h-1v-2.8l-1.5,1.5V11.6z" fill-rule="evenodd" fill="#CD4C32"/>
      <polygon points="9.5,13.2 11,11.7 11,14.5 12,14.5 12,11.7 13.5,13.2 13.5,11.6 11.9,10 13.5,10 13.5,9 9.5,9 9.5,10 11.1,10 9.5,11.6" fill="#FFFFFF" stroke-linejoin="miter"/>
    </g>
  </g>
</svg>
