<?xml version="1.0" encoding="UTF-8"?>
<!DOCTYPE svg PUBLIC "-//W3C//DTD SVG 1.1//EN" "http://www.w3.org/Graphics/SVG/1.1/DTD/svg11.dtd">
<svg version="1.1" id="Layer_1" xmlns="http://www.w3.org/2000/svg" xmlns:xlink="http://www.w3.org/1999/xlink" x="0px" y="0px" width="32px" height="32px" viewBox="0 0 32 32" enable-background="new 0 0 32 32" xml:space="preserve">
  <g id="icon">
    <path d="M25.7321,20.8212c0,-3.4403,-2.7575,-6.2292,-6.1591,-6.2292c-0.8987,0,-1.7515,0.1963,-2.5213,0.5462c-1.0729,-2.5607,-3.5027,-4.3489,-6.3303,-4.3489c-3.4964,0,-6.3852,2.7333,-6.8507,6.282c-2.1359,0.6558,-3.6841,2.5914,-3.6841,4.8778c0,4.5645,4.3979,5.0058,7.3167,5.0168c0.0593,0.0265,0.1224,0.034,0.1892,0.034h12.4786c0.0707,0,0.2121,-0.0079,0.3881,-0.0392C23.8222,26.8424,25.7321,24.1841,25.7321,20.8212z" fill-rule="evenodd" fill="#3E79B4"/>
    <path d="M27.5386,12.7737c-0.5452,-4.1568,-3.929,-7.3584,-8.0245,-7.3584c-2.9759,0,-5.5748,1.6915,-6.9834,4.2104c2.2789,0.4519,4.1155,1.7374,5.0603,3.9921c0.8657,-0.3936,1.8964,-0.2578,2.9072,-0.2578c2.9186,0,6.6424,3.1367,6.6424,7.006c0,1.4075,-0.261,2.7059,-0.7756,3.7897c2.7882,-0.4528,5.489,-1.7976,5.489,-5.6684C31.854,15.8091,30.0405,13.5418,27.5386,12.7737z" fill-rule="evenodd" fill="#3E79B4"/>
  </g>
</svg>
