<?xml version="1.0" encoding="UTF-8"?>
<!DOCTYPE svg PUBLIC "-//W3C//DTD SVG 1.1//EN" "http://www.w3.org/Graphics/SVG/1.1/DTD/svg11.dtd">
<svg version="1.1" id="Layer_1" xmlns="http://www.w3.org/2000/svg" xmlns:xlink="http://www.w3.org/1999/xlink" x="0px" y="0px" width="16px" height="16px" viewBox="0 0 16 16" enable-background="new 0 0 16 16" xml:space="preserve">
  <g id="icon">
    <path d="M12.5845,10.6492c0,-1.8657,-1.3582,-3.3782,-3.0336,-3.3782c-0.4426,0,-0.8627,0.1064,-1.2418,0.2962c-0.5284,-1.3887,-1.7252,-2.3585,-3.1179,-2.3585c-1.7221,0,-3.145,1.4823,-3.3742,3.4068C0.765,8.9712,0.0024,10.0209,0.0024,11.2609c0,2.4754,2.1661,2.7147,3.6037,2.7207c0.0292,0.0144,0.0603,0.0185,0.0932,0.0185h6.1462c0.0348,0,0.1045,-0.0043,0.1911,-0.0212C11.6438,13.9145,12.5845,12.4729,12.5845,10.6492z" fill-rule="evenodd" fill="#3E79B4"/>
    <path d="M13.9373,5.8224c-0.2696,-2.2637,-2.0432,-3.8072,-4.0688,-3.8072c-1.4718,0,-2.7572,0.9211,-3.4539,2.2929c1.1271,0.2461,2.0355,0.8462,2.5028,2.074c0.4282,-0.2143,0.9379,-0.2404,1.4378,-0.2404c1.4435,0,3.3852,1.9081,3.3852,4.0152c0,0.7665,0.0709,1.5735,-0.1836,2.1638c1.379,-0.2466,2.4148,-1.0789,2.4148,-3.1868C15.9717,7.6754,15.1748,6.2407,13.9373,5.8224z" fill-rule="evenodd" fill="#3E79B4"/>
  </g>
</svg>
