<?xml version="1.0" encoding="UTF-8"?>
<!DOCTYPE svg PUBLIC "-//W3C//DTD SVG 1.1//EN" "http://www.w3.org/Graphics/SVG/1.1/DTD/svg11.dtd">
<svg version="1.1" id="Layer_1" xmlns="http://www.w3.org/2000/svg" xmlns:xlink="http://www.w3.org/1999/xlink" x="0px" y="0px" width="16px" height="16px" viewBox="0 0 16 16" enable-background="new 0 0 16 16" xml:space="preserve">
  <g id="main">
    <clipPath id="clip_mask">
      <path d="M12.1091,15.166l-2.5424,-1.0524c-0.3138,0.1429,-0.6577,0.2228,-1.0138,0.2228c-0.3056,0,-0.606,-0.0566,-0.8928,-0.1683c-1.2731,-0.496,-1.9193,-1.9539,-1.4406,-3.2499c0.3627,-0.9821,1.3006,-1.6419,2.3339,-1.6419c0.3057,0,0.6061,0.0566,0.8929,0.1683c0.0422,0.0164,0.0836,0.0341,0.1244,0.0526l2.5368,-1.05c0.0167,-0.0576,0.0349,-0.115,0.0559,-0.172c0.3628,-0.9822,1.3008,-1.6431,2.334,-1.6431c0.3057,0,0.6061,0.0561,0.8929,0.1678c0.2237,0.0871,0.4275,0.2047,0.6098,0.3453V0H0v16h12.53C12.3404,15.7503,12.1972,15.4673,12.1091,15.166z"/>
    </clipPath>
    <g id="icon" clip-path="url(#clip_mask)">
      <path d="M14.1842,6.0204l-2.5205,2.5287c0.059,-0.5717,-0.0256,-1.432,-0.4167,-1.9061l1.7795,-1.7849c0.2019,-0.2026,0.3248,-0.486,0.3375,-0.7775c0.0132,-0.3057,-0.0915,-0.5865,-0.2949,-0.7907l-1.3418,-1.3471c-0.1936,-0.1944,-0.4605,-0.3015,-0.7514,-0.3015c-0.3092,0,-0.6081,0.122,-0.8201,0.3347L6.384,5.7615c-0.2029,0.2037,-0.3101,0.4738,-0.3019,0.7607c0.0081,0.2809,0.1255,0.549,0.3306,0.7549l1.3594,1.3647L6.6144,9.804L5.2551,8.4392c-0.516,-0.518,-0.8036,-1.2012,-0.8098,-1.9238c-0.0063,-0.7237,0.2711,-1.4042,0.7811,-1.9162L8.9983,0.814c0.5162,-0.5182,1.2369,-0.8154,1.9773,-0.8154c0.7289,0,1.407,0.2778,1.9094,0.7822l1.3418,1.347C15.2839,3.1892,15.2649,4.9354,14.1842,6.0204zM0.7874,12.9039l1.3418,1.3471c0.5024,0.5044,1.1805,0.7822,1.9094,0.7822c0.7404,0,1.4612,-0.2972,1.9773,-0.8155l3.7719,-3.7852c1.0466,-1.0507,1.0337,-2.7733,-0.0287,-3.84L8.3998,5.2278L7.2422,6.39l1.3593,1.3647c0.4313,0.433,0.444,1.0987,0.0288,1.5156l-3.772,3.7705c-0.2119,0.2127,-0.5108,0.3201,-0.82,0.3201c0,0,0,0,-0.0001,0c-0.2909,0,-0.5578,-0.0924,-0.7514,-0.2869l-1.3417,-1.3397c-0.2034,-0.2042,-0.3081,-0.4813,-0.2949,-0.787c0.0126,-0.2915,0.1356,-0.5731,0.3375,-0.7757l1.7795,-1.784c-0.3911,-0.4734,-0.4757,-1.3337,-0.4166,-1.9057L0.83,9.0111c-0.5152,0.5173,-0.8053,1.2084,-0.8168,1.9458C0.0017,11.6996,0.2767,12.3911,0.7874,12.9039z" fill="#3E79B4"/>
    </g>
    <g id="overlay">
      <polygon points="8.1555,11.9061 8.2033,11.8062 8.1555,11.7063 14.5463,9.061 14.6419,9.2608 8.4925,11.8062 14.6419,14.3516 14.5463,14.5514" fill="none" stroke="#4DA07D" stroke-width="1" stroke-linecap="round" stroke-miterlimit="1" stroke-linejoin="round"/>
      <path d="M14.4968,15.9818c-0.181,0,-0.3593,-0.0337,-0.5299,-0.1001c-0.7682,-0.2993,-1.1565,-1.1838,-0.8655,-1.9716c0.2184,-0.5912,0.7794,-0.9885,1.3959,-0.9885c0.181,0,0.3593,0.0337,0.53,0.1002c0.7682,0.2993,1.1565,1.1837,0.8655,1.9716C15.6743,15.5845,15.1133,15.9818,14.4968,15.9818L14.4968,15.9818zM8.5529,13.3364c-0.181,0,-0.3593,-0.0337,-0.5299,-0.1002c-0.7682,-0.2993,-1.1565,-1.1838,-0.8654,-1.9716c0.2183,-0.5912,0.7793,-0.9884,1.3959,-0.9884c0.181,0,0.3593,0.0337,0.53,0.1002c0.7682,0.2993,1.1565,1.1837,0.8655,1.9716C9.7305,12.9392,9.1695,13.3364,8.5529,13.3364zM14.4968,10.6911c-0.1811,0,-0.3593,-0.0337,-0.53,-0.1002c-0.7682,-0.2993,-1.1565,-1.1837,-0.8655,-1.9716c0.2184,-0.5912,0.7794,-0.9884,1.3959,-0.9884c0.181,0,0.3593,0.0337,0.5299,0.1002c0.7682,0.2993,1.1565,1.1838,0.8655,1.9716C15.6743,10.2938,15.1134,10.6911,14.4968,10.6911L14.4968,10.6911z" fill="#4DA07D"/>
    </g>
  </g>
</svg>
