<?xml version="1.0" encoding="UTF-8"?>
<!DOCTYPE svg PUBLIC "-//W3C//DTD SVG 1.1//EN" "http://www.w3.org/Graphics/SVG/1.1/DTD/svg11.dtd">
<svg version="1.1" id="Layer_1" xmlns="http://www.w3.org/2000/svg" xmlns:xlink="http://www.w3.org/1999/xlink" x="0px" y="0px" width="16px" height="16px" viewBox="0 0 16 16" enable-background="new 0 0 16 16" xml:space="preserve">
  <g id="icon">
    <path d="M15.9845,10.1728c0,-2.131,-1.7252,-3.8585,-3.8533,-3.8585c-0.5622,0,-1.0958,0.1216,-1.5774,0.3383c-0.6712,-1.5862,-2.1914,-2.6938,-3.9604,-2.6938c-2.1875,0,-3.9948,1.6931,-4.286,3.8912C0.971,8.2562,0.0024,9.4552,0.0024,10.8714c0,2.8273,2.7515,3.1007,4.5775,3.1075c0.0371,0.0164,0.0766,0.0211,0.1184,0.0211h7.807c0.0443,0,0.1327,-0.0049,0.2428,-0.0243C14.7896,13.9024,15.9845,12.2558,15.9845,10.1728z" fill-rule="evenodd" fill="#3E79B4"/>
  </g>
</svg>
