<?xml version="1.0" encoding="UTF-8"?>
<!DOCTYPE svg PUBLIC "-//W3C//DTD SVG 1.1//EN" "http://www.w3.org/Graphics/SVG/1.1/DTD/svg11.dtd">
<svg version="1.1" id="Layer_1" xmlns="http://www.w3.org/2000/svg" xmlns:xlink="http://www.w3.org/1999/xlink" x="0px" y="0px" width="16px" height="16px" viewBox="0 0 16 16" enable-background="new 0 0 16 16" xml:space="preserve">
  <g id="main">
    <clipPath id="clip_mask">
      <path d="M6.1115,15.4688l0.9699,-2.2687c0.098,-0.2294,0.2768,-0.4109,0.4979,-0.5138c0.0489,-0.1051,0.1161,-0.2019,0.1996,-0.2854l4.8635,-4.8635c0.0782,-0.0781,0.166,-0.1406,0.2597,-0.1875c0.0545,-0.1371,0.1392,-0.2618,0.2496,-0.3641l0.5781,-0.5356c0.3549,-0.346,0.7265,-0.4193,0.9774,-0.4193c0.2547,0,0.6338,0.0755,0.9937,0.4353L16,6.7654V0H0v16h6.0411C6.0164,15.8235,6.0383,15.64,6.1115,15.4688z"/>
    </clipPath>
    <g id="icon" clip-path="url(#clip_mask)">
      <path d="M14.9845,9.2222c0,-2.1137,-1.6173,-3.8271,-3.6122,-3.8271c-0.5271,0,-1.0272,0.1206,-1.4787,0.3356C9.2644,4.1574,7.8393,3.0588,6.181,3.0588c-2.0506,0,-3.7449,1.6793,-4.0178,3.8596C0.9104,7.3212,0.0024,8.5104,0.0024,9.9152c0,2.8043,2.5793,3.0663,4.2911,3.0731c0.0348,0.0163,0.0718,0.0118,0.111,0.0118h7.3185c0.0415,0,0.1244,0.0043,0.2276,-0.0149C13.8644,12.9123,14.9845,11.2883,14.9845,9.2222z" fill-rule="evenodd" fill="#3E79B4"/>
    </g>
    <g id="overlay">
      <path d="M8.486,13.108l4.8635,-4.8635l1.4369,1.4369l-4.8635,4.8635L8.486,13.108zM14.4206,7.1734c0.1899,-0.1899,0.3832,-0.1899,0.5732,0l0.8637,0.8637c0.1899,0.1899,0.1899,0.3833,0,0.5732l-0.5809,0.5443l-1.4453,-1.4352L14.4206,7.1734zM7.031,15.8619l0.9699,-2.2687l1.4369,1.4369L7.169,16L7.031,15.8619z" fill-rule="evenodd" fill="#E9B665"/>
    </g>
  </g>
</svg>
