<?xml version="1.0" encoding="UTF-8"?>
<!DOCTYPE svg PUBLIC "-//W3C//DTD SVG 1.1//EN" "http://www.w3.org/Graphics/SVG/1.1/DTD/svg11.dtd">
<svg version="1.1" id="Layer_1" xmlns="http://www.w3.org/2000/svg" xmlns:xlink="http://www.w3.org/1999/xlink" x="0px" y="0px" width="16px" height="16px" viewBox="0 0 16 16" enable-background="new 0 0 16 16" xml:space="preserve">
  <g id="main">
    <clipPath id="clip_mask">
      <path d="M6,11.5c0,-3.0327,2.4673,-5.5,5.5,-5.5c1.8588,0,3.5039,0.9278,4.5,2.3436V0H0v16h8.3436C6.9278,15.0039,6,13.3588,6,11.5z"/>
    </clipPath>
    <g id="icon" clip-path="url(#clip_mask)">
      <path d="M14.9845,9.2222c0,-2.1137,-1.6173,-3.8271,-3.6122,-3.8271c-0.5271,0,-1.0272,0.1206,-1.4787,0.3356C9.2644,4.1574,7.8393,3.0588,6.181,3.0588c-2.0506,0,-3.7449,1.6793,-4.0178,3.8596C0.9104,7.3212,0.0024,8.5104,0.0024,9.9152c0,2.8043,2.5793,3.0663,4.2911,3.0731c0.0348,0.0163,0.0718,0.0118,0.111,0.0118h7.3185c0.0415,0,0.1244,0.0043,0.2276,-0.0149C13.8644,12.9123,14.9845,11.2883,14.9845,9.2222z" fill-rule="evenodd" fill="#3E79B4"/>
    </g>
    <g id="overlay">
      <path d="M11.5,7c-2.4853,0,-4.5,2.0147,-4.5,4.5c0,2.4853,2.0147,4.5,4.5,4.5s4.5,-2.0147,4.5,-4.5C16,9.0147,13.9853,7,11.5,7zM13.8335,13.1263l-0.7071,0.7071L11.5,12.2071l-1.6263,1.6263l-0.7071,-0.7071L10.7929,11.5L9.1665,9.8737l0.7071,-0.7071L11.5,10.7929l1.6263,-1.6263l0.7071,0.7071L12.2071,11.5L13.8335,13.1263z" fill-rule="evenodd" fill="#CD4C32"/>
      <polygon points="13.8335,9.8737 13.1263,9.1665 11.5,10.7929 9.8737,9.1665 9.1665,9.8737 10.7929,11.5 9.1665,13.1263 9.8737,13.8335 11.5,12.2071 13.1263,13.8335 13.8335,13.1263 12.2071,11.5" fill-rule="evenodd" fill="#FFFFFF" stroke-linejoin="miter"/>
    </g>
  </g>
</svg>
