<?xml version="1.0" encoding="UTF-8"?>
<!DOCTYPE svg PUBLIC "-//W3C//DTD SVG 1.1//EN" "http://www.w3.org/Graphics/SVG/1.1/DTD/svg11.dtd">
<svg version="1.1" id="Layer_1" xmlns="http://www.w3.org/2000/svg" xmlns:xlink="http://www.w3.org/1999/xlink" x="0px" y="0px" width="16px" height="16px" viewBox="0 0 16 16" enable-background="new 0 0 16 16" xml:space="preserve">
  <g id="icon">
    <path d="M12.8,0H2.2c-0.66,0,-1.2,0.54,-1.2,1.2v13.6c0,0.66,0.54,1.2,1.2,1.2h10.6c0.66,0,1.2,-0.54,1.2,-1.2V1.2C14,0.54,13.46,0,12.8,0zM2.544,0.992c0.294,0,0.532,0.238,0.532,0.532s-0.238,0.532,-0.532,0.532s-0.532,-0.238,-0.532,-0.532S2.25,0.992,2.544,0.992zM2.544,15.035c-0.294,0,-0.532,-0.238,-0.532,-0.532c0,-0.294,0.238,-0.532,0.532,-0.532s0.532,0.238,0.532,0.532C3.076,14.797,2.838,15.035,2.544,15.035zM7.5,12.4c-3.038,0,-5.5,-2.46,-5.5,-5.494c0,-3.034,2.462,-5.494,5.5,-5.494c3.038,0,5.5,2.46,5.5,5.494C13,9.94,10.538,12.4,7.5,12.4zM12.528,15.035c-0.294,0,-0.532,-0.238,-0.532,-0.532c0,-0.294,0.238,-0.532,0.532,-0.532c0.294,0,0.532,0.238,0.532,0.532C13.06,14.797,12.822,15.035,12.528,15.035zM12.528,2.057c-0.294,0,-0.532,-0.238,-0.532,-0.532s0.238,-0.532,0.532,-0.532c0.294,0,0.532,0.238,0.532,0.532S12.822,2.057,12.528,2.057z" fill="#3E79B4"/>
    <path d="M3.076,1.524c0,0.294,-0.238,0.532,-0.532,0.532s-0.532,-0.238,-0.532,-0.532s0.238,-0.532,0.532,-0.532S3.076,1.23,3.076,1.524zM12.528,0.992c-0.294,0,-0.532,0.238,-0.532,0.532s0.238,0.532,0.532,0.532s0.532,-0.238,0.532,-0.532S12.822,0.992,12.528,0.992zM12.528,13.97c-0.294,0,-0.532,0.238,-0.532,0.532c0,0.294,0.238,0.532,0.532,0.532s0.532,-0.238,0.532,-0.532C13.06,14.209,12.822,13.97,12.528,13.97zM2.544,13.97c-0.294,0,-0.532,0.238,-0.532,0.532c0,0.294,0.238,0.532,0.532,0.532s0.532,-0.238,0.532,-0.532C3.076,14.209,2.838,13.97,2.544,13.97zM7.5,1.413c-3.038,0,-5.5,2.46,-5.5,5.494S4.462,12.4,7.5,12.4s5.5,-2.46,5.5,-5.494S10.538,1.413,7.5,1.413z" fill="#FFFFFF"/>
    <ellipse cx="7.478" cy="6.906" rx="0.84" ry="0.839" fill="#797979"/>
    <path d="M7.5,4.261c-1.463,0,-2.649,1.185,-2.649,2.646S6.037,9.552,7.5,9.552s2.649,-1.185,2.649,-2.646S8.963,4.261,7.5,4.261zM7.5,8.842c-1.07,0,-1.938,-0.867,-1.938,-1.936S6.43,4.971,7.5,4.971s1.938,0.867,1.938,1.936S8.57,8.842,7.5,8.842z" fill="#B4B4B5"/>
  </g>
</svg>
