<?xml version="1.0" encoding="UTF-8"?>
<!DOCTYPE svg PUBLIC "-//W3C//DTD SVG 1.1//EN" "http://www.w3.org/Graphics/SVG/1.1/DTD/svg11.dtd">
<svg version="1.1" id="Layer_1" xmlns="http://www.w3.org/2000/svg" xmlns:xlink="http://www.w3.org/1999/xlink" x="0px" y="0px" width="16px" height="16px" viewBox="0 0 16 16" enable-background="new 0 0 16 16" xml:space="preserve">
  <g id="main">
    <clipPath id="clip_mask">
      <path d="M12.1091,15.166l-2.5424,-1.0524c-0.3138,0.1429,-0.6577,0.2228,-1.0138,0.2228c-0.3056,0,-0.606,-0.0566,-0.8928,-0.1683c-1.2731,-0.496,-1.9193,-1.9539,-1.4406,-3.2499c0.3627,-0.9821,1.3006,-1.6419,2.3339,-1.6419c0.3057,0,0.6061,0.0566,0.8929,0.1683c0.0422,0.0164,0.0836,0.0341,0.1244,0.0526l2.5368,-1.05c0.0167,-0.0576,0.0349,-0.115,0.0559,-0.172c0.3628,-0.9822,1.3008,-1.6431,2.334,-1.6431c0.3057,0,0.6061,0.0561,0.8929,0.1678c0.2237,0.0871,0.4275,0.2047,0.6098,0.3453V0H0v16h12.53C12.3404,15.7503,12.1972,15.4673,12.1091,15.166z"/>
    </clipPath>
    <g id="icon" clip-path="url(#clip_mask)">
      <path d="M14.9845,9.2222c0,-2.1137,-1.6173,-3.8271,-3.6122,-3.8271c-0.5271,0,-1.0272,0.1206,-1.4787,0.3356C9.2644,4.1574,7.8393,3.0588,6.181,3.0588c-2.0506,0,-3.7449,1.6793,-4.0178,3.8596C0.9104,7.3212,0.0024,8.5104,0.0024,9.9152c0,2.8043,2.5793,3.0663,4.2911,3.0731c0.0348,0.0163,0.0718,0.0118,0.111,0.0118h7.3185c0.0415,0,0.1244,0.0043,0.2276,-0.0149C13.8644,12.9123,14.9845,11.2883,14.9845,9.2222z" fill-rule="evenodd" fill="#3E79B4"/>
    </g>
    <g id="overlay">
      <polygon points="8.1555,11.9061 8.2033,11.8062 8.1555,11.7063 14.5463,9.061 14.6419,9.2608 8.4925,11.8062 14.6419,14.3516 14.5463,14.5514" fill="none" stroke="#4DA07D" stroke-width="1" stroke-linecap="round" stroke-miterlimit="1" stroke-linejoin="round"/>
      <path d="M14.4968,15.9818c-0.181,0,-0.3593,-0.0337,-0.5299,-0.1001c-0.7682,-0.2993,-1.1565,-1.1838,-0.8655,-1.9716c0.2184,-0.5912,0.7794,-0.9885,1.3959,-0.9885c0.181,0,0.3593,0.0337,0.53,0.1002c0.7682,0.2993,1.1565,1.1837,0.8655,1.9716C15.6743,15.5845,15.1133,15.9818,14.4968,15.9818L14.4968,15.9818zM8.5529,13.3364c-0.181,0,-0.3593,-0.0337,-0.5299,-0.1002c-0.7682,-0.2993,-1.1565,-1.1838,-0.8654,-1.9716c0.2183,-0.5912,0.7793,-0.9884,1.3959,-0.9884c0.181,0,0.3593,0.0337,0.53,0.1002c0.7682,0.2993,1.1565,1.1837,0.8655,1.9716C9.7305,12.9392,9.1695,13.3364,8.5529,13.3364zM14.4968,10.6911c-0.1811,0,-0.3593,-0.0337,-0.53,-0.1002c-0.7682,-0.2993,-1.1565,-1.1837,-0.8655,-1.9716c0.2184,-0.5912,0.7794,-0.9884,1.3959,-0.9884c0.181,0,0.3593,0.0337,0.5299,0.1002c0.7682,0.2993,1.1565,1.1838,0.8655,1.9716C15.6743,10.2938,15.1134,10.6911,14.4968,10.6911L14.4968,10.6911z" fill="#4DA07D"/>
    </g>
  </g>
</svg>
