<?xml version="1.0" encoding="UTF-8"?>
<!DOCTYPE svg PUBLIC "-//W3C//DTD SVG 1.1//EN" "http://www.w3.org/Graphics/SVG/1.1/DTD/svg11.dtd">
<svg version="1.1" id="Layer_1" xmlns="http://www.w3.org/2000/svg" xmlns:xlink="http://www.w3.org/1999/xlink" x="0px" y="0px" width="16px" height="16px" viewBox="0 0 16 16" enable-background="new 0 0 16 16" xml:space="preserve">
  <g id="main">
    <clipPath id="clip_mask">
      <path d="M7.1664,15.89c-0.2201,-0.6181,-0.2212,-0.9525,-0.1381,-1.5138l0.0034,-0.024l0.0046,-0.0238c0.2856,-1.4418,1.0357,-1.7323,2.5178,-2.2473c-0.3445,-0.7004,-0.5581,-1.5009,-0.5581,-2.2155C8.9959,7.9501,9.9967,7,11.9706,7c0,0,0.0017,0,0.0025,0c1.373,0,3.0097,0.4786,3.0097,2.8656c0,0.7148,-0.2139,1.5271,-0.5588,2.2281c0.6648,0.231,1.1818,0.4159,1.576,0.6796V0H0v16h7.2116C7.1953,15.9644,7.18,15.9281,7.1664,15.89z" fill-rule="evenodd"/>
    </clipPath>
    <g id="icon" clip-path="url(#clip_mask)">
      <path d="M14.9845,9.2222c0,-2.1137,-1.6173,-3.8271,-3.6122,-3.8271c-0.5271,0,-1.0272,0.1206,-1.4787,0.3356C9.2644,4.1574,7.8393,3.0588,6.181,3.0588c-2.0506,0,-3.7449,1.6793,-4.0178,3.8596C0.9104,7.3212,0.0024,8.5104,0.0024,9.9152c0,2.8043,2.5793,3.0663,4.2911,3.0731c0.0348,0.0163,0.0718,0.0118,0.111,0.0118h7.3185c0.0415,0,0.1244,0.0043,0.2276,-0.0149C13.8644,12.9123,14.9845,11.2883,14.9845,9.2222z" fill-rule="evenodd" fill="#3E79B4"/>
    </g>
    <g id="overlay">
      <path d="M15.9594,14.5233c-0.2012,-1.0157,-0.5591,-1.0326,-2.5161,-1.7238c-0.2857,-0.1074,-0.3664,-0.2618,-0.345,-0.4822c0.552,-0.66,0.8846,-1.7277,0.8846,-2.474c0,-1.1559,-0.3944,-1.888,-2.0097,-1.888c-0.0066,0,0.0022,0,0,0c-1.6154,0,-1.9772,0.7322,-1.9772,1.888c0,0.7464,0.3313,1.812,0.8833,2.472c0.0214,0.2204,-0.0599,0.3759,-0.3457,0.4833c-1.957,0.6912,-2.3152,0.7087,-2.5165,1.7243c-0.0605,0.4082,-0.0706,0.5794,0.0905,1.0317c0.1813,0.5092,2.7438,0.4426,3.8655,0.4426c0.0045,0,-0.0077,0,0,0c1.1217,0,3.7143,0.0669,3.8956,-0.4423C16.0298,15.1024,16.0199,14.9316,15.9594,14.5233z" fill-rule="evenodd" fill="#E0E0E0"/>
    </g>
  </g>
</svg>
