<?xml version="1.0" encoding="UTF-8"?>
<!DOCTYPE svg PUBLIC "-//W3C//DTD SVG 1.1//EN" "http://www.w3.org/Graphics/SVG/1.1/DTD/svg11.dtd">
<svg version="1.1" id="Layer_1" xmlns="http://www.w3.org/2000/svg" xmlns:xlink="http://www.w3.org/1999/xlink" x="0px" y="0px" width="16px" height="16px" viewBox="0 0 16 16" enable-background="new 0 0 16 16" xml:space="preserve">
  <g id="main">
    <g id="icon">
      <path d="M10.17,2.049L9.665,2.197L9.195,2.444L8.772,2.789L6.397,5.164L6.052,5.588L5.805,6.057L5.657,6.557L5.607,7.073L5.657,7.589L5.805,8.09L6.052,8.559L6.397,8.982L6.539,9.125L6.641,8.91L6.918,8.449L7.077,8.235L6.89,8.006L6.735,7.712L6.642,7.397L6.611,7.073L6.642,6.749L6.735,6.435L6.89,6.14L7.107,5.874L9.482,3.499L9.748,3.282L10.04,3.128L10.36,3.035L10.68,3.004L11.01,3.035L11.32,3.128L11.61,3.282L11.88,3.499L12.5,4.119L12.72,4.385L12.87,4.68L12.97,4.994L13,5.318L12.97,5.642L12.87,5.956L12.77,6.15L13.1,6.232L13.6,6.412L13.73,6.472L13.8,6.334L13.95,5.834L14,5.318L13.95,4.802L13.8,4.302L13.56,3.832L13.21,3.409L12.59,2.789L12.17,2.444L11.7,2.197L11.2,2.049L10.68,2zM8.305,6.179L8.139,6.289L8.028,6.455L7.992,6.645L8.028,6.833L8.139,7L8.224,7.085L8.449,6.918L8.91,6.641L9.107,6.548L8.849,6.289L8.683,6.179L8.494,6.142zM4.191,7.426L4.025,7.536L2.788,8.773L2.451,9.184L2.204,9.647L2.052,10.15L2,10.68L2.052,11.21L2.204,11.72L2.451,12.18L2.788,12.59L3.408,13.21L3.831,13.56L4.301,13.8L4.801,13.95L5.317,14L5.833,13.95L6.334,13.8L6.472,13.73L6.412,13.6L6.232,13.1L6.15,12.77L5.956,12.87L5.641,12.97L5.317,13L4.993,12.97L4.679,12.87L4.384,12.72L4.118,12.5L3.498,11.88L3.287,11.62L3.132,11.33L3.037,11.02L3.004,10.68L3.037,10.35L3.132,10.03L3.287,9.741L3.498,9.483L4.735,8.246L4.846,8.08L4.882,7.891L4.846,7.702L4.735,7.536L4.569,7.426L4.38,7.389zz" fill="#404040"/>
    </g>
    <g id="overlay">
      <path d="M11.498,15.536c-2.2301,0,-4.038,-1.8079,-4.038,-4.038S9.2679,7.46,11.498,7.46s4.038,1.8079,4.038,4.038S13.7281,15.536,11.498,15.536z" id="b" fill="#FFFFFF"/>
      <path d="M14.68,14.68c-0.8513,0.8513,-1.9813,1.32,-3.182,1.32c-1.2007,0,-2.3307,-0.4688,-3.182,-1.32c-0.8513,-0.8513,-1.32,-1.9813,-1.32,-3.182c0,-1.2007,0.4688,-2.3307,1.32,-3.182s1.9813,-1.32,3.182,-1.32c1.2007,0,2.3307,0.4688,3.182,1.32c0.8513,0.8513,1.32,1.9813,1.32,3.182C16,12.6987,15.5312,13.8287,14.68,14.68zM8.9982,8.9982c-0.6688,0.6688,-1.0372,1.5566,-1.0372,2.4998c0,1.9502,1.5867,3.5369,3.5369,3.5369c0.9432,0,1.8309,-0.3683,2.4998,-1.0372c0.6688,-0.6688,1.0372,-1.5566,1.0372,-2.4998c0,-1.9502,-1.5867,-3.5369,-3.5369,-3.5369C10.5548,7.9611,9.6671,8.3294,8.9982,8.9982z" id="c3" fill="#0E7490"/>
      <path d="M11.8471,13.909c-0.0543,0.0543,-0.1212,0.0948,-0.1935,0.1174c-0.1569,0.0489,-0.3208,0.0226,-0.4497,-0.0723c-0.1268,-0.0933,-0.2025,-0.2428,-0.2025,-0.4001l0,-3.0252l-0.968,0.968c-0.1516,0.1516,-0.3853,0.1904,-0.5682,0.0944c-0.1429,-0.0751,-0.2385,-0.2073,-0.2622,-0.3628c-0.0233,-0.1529,0.0281,-0.3094,0.1374,-0.4187l1.8185,-1.8185c0.187,-0.187,0.4912,-0.187,0.6782,0l1.8184,1.8184c0.1902,0.1902,0.1902,0.4998,-0.0001,0.6901c-0.0362,0.0362,-0.0781,0.0669,-0.1247,0.0914c-0.1829,0.0961,-0.4166,0.0572,-0.5683,-0.0944l-0.968,-0.968l0,3.0209C11.9944,13.6844,11.9407,13.8154,11.8471,13.909z" id="c3" fill="#0E7490"/>
    </g>
  </g>
</svg>
