<?xml version="1.0" encoding="utf-8"?>
<!-- Generator: Adobe Illustrator 19.0.0, SVG Export Plug-In . SVG Version: 6.00 Build 0)  -->
<svg version="1.1" id="svg" xmlns="http://www.w3.org/2000/svg" xmlns:xlink="http://www.w3.org/1999/xlink" x="0px" y="0px"
	 viewBox="302 -180.1 16 16" style="enable-background:new 302 -180.1 16 16;" xml:space="preserve">
<style type="text/css">
	.st0{fill:#0082C9;}
	.st1{fill:#FFFFFF;}
</style>
<a xlink:href="http://free.arinco.org/" >
	<path class="st0" d="M318-166.5c0,1.3-1.1,2.4-2.4,2.4h-11.2c-1.3,0-2.4-1.1-2.4-2.4v-11.2c0-1.3,1.1-2.4,2.4-2.4h11.2
		c1.3,0,2.4,1.1,2.4,2.4V-166.5z"/>
	<path class="st1" d="M310-175.4c-1.6,0-2.9,1.1-3.3,2.5c-0.4-0.8-1.1-1.3-2-1.3c-1.2,0-2.2,1-2.2,2.2c0,1.2,1,2.2,2.2,2.2
		c0.9,0,1.7-0.5,2-1.3c0.4,1.4,1.7,2.5,3.3,2.5c1.5,0,2.9-1,3.3-2.5c0.4,0.7,1.1,1.3,2,1.3c1.2,0,2.2-1,2.2-2.2c0-1.2-1-2.2-2.2-2.2
		c-0.9,0-1.6,0.5-2,1.3C312.9-174.4,311.6-175.4,310-175.4z M310-174.1c1.2,0,2.1,0.9,2.1,2.1c0,1.2-0.9,2.1-2.1,2.1
		c-1.2,0-2.1-0.9-2.1-2.1C307.9-173.2,308.8-174.1,310-174.1z M304.7-172.9c0.5,0,0.9,0.4,0.9,0.9c0,0.5-0.4,0.9-0.9,0.9
		s-0.9-0.4-0.9-0.9C303.8-172.5,304.2-172.9,304.7-172.9z M315.3-172.9c0.5,0,0.9,0.4,0.9,0.9c0,0.5-0.4,0.9-0.9,0.9
		c-0.5,0-0.9-0.4-0.9-0.9C314.4-172.5,314.8-172.9,315.3-172.9z"/>
</a>
</svg>
