<?xml version="1.0" encoding="UTF-8"?>
<!DOCTYPE svg PUBLIC "-//W3C//DTD SVG 1.1//EN" "http://www.w3.org/Graphics/SVG/1.1/DTD/svg11.dtd">
<svg version="1.1" id="Layer_1" xmlns="http://www.w3.org/2000/svg" xmlns:xlink="http://www.w3.org/1999/xlink" x="0px" y="0px" width="16px" height="16px" viewBox="0 0 16 16" enable-background="new 0 0 16 16" xml:space="preserve">
  <g id="main">
    <g id="icon">
      <path d="M7.334,4.451L6.704,4.62L6.123,4.889L5.601,5.249L5.149,5.692L4.778,6.208L4.501,6.787L4.328,7.421L4.27,7.746L3.872,7.746L3.374,7.796L2.911,7.938L2.491,8.162L2.125,8.459L1.823,8.819L1.595,9.231L1.45,9.687L1.4,10.18L1.45,10.67L1.595,11.12L1.823,11.53L2.125,11.89L2.491,12.19L2.911,12.42L3.374,12.56L3.872,12.61L6.122,12.61L6.043,12.19L6,11.5L6.029,10.94L6.112,10.39L6.248,9.866L6.433,9.361L6.665,8.88L6.941,8.427L7.257,8.004L7.613,7.613L8.004,7.257L8.427,6.941L8.88,6.665L9.361,6.433L9.866,6.248L10.39,6.112L10.94,6.029L11.09,6.021L10.85,5.692L10.4,5.249L9.877,4.889L9.296,4.62L8.666,4.451L8,4.393zz" fill="#F5F5F5"/>
      <path d="M7.27,4.064L6.579,4.25L5.942,4.548L5.369,4.947L4.873,5.437L4.467,6.007L4.163,6.648L3.973,7.35L3.968,7.383L3.872,7.383L3.302,7.44L2.771,7.604L2.29,7.863L1.87,8.206L1.524,8.622L1.263,9.099L1.098,9.626L1.04,10.19L1.098,10.76L1.263,11.28L1.524,11.76L1.87,12.18L2.29,12.52L2.771,12.78L3.302,12.94L3.872,13L6.216,13L6.167,12.85L6.043,12.19L6.032,12.01L3.872,12.01L3.503,11.98L3.158,11.87L2.847,11.7L2.575,11.48L2.351,11.21L2.181,10.9L2.074,10.56L2.037,10.19L2.074,9.825L2.181,9.483L2.351,9.174L2.575,8.904L2.847,8.682L3.158,8.514L3.503,8.408L3.872,8.371L3.872,8.371L4.415,8.371L4.603,8.334L4.758,8.235L4.867,8.086L4.912,7.901L5.001,7.307L5.197,6.757L5.49,6.261L5.868,5.832L6.319,5.479L6.833,5.213L7.397,5.046L8,4.988L8.603,5.046L9.167,5.213L9.681,5.479L10.13,5.832L10.38,6.115L10.39,6.112L10.94,6.029L11.5,6L11.53,6.002L11.13,5.437L10.63,4.947L10.06,4.548L9.421,4.25L8.73,4.064L8,4zz" fill="#404040"/>
    </g>
    <g id="overlay">
      <path d="M15.5361,11.5c0,2.2291,-1.807,4.0361,-4.0361,4.0361S7.4639,13.7291,7.4639,11.5S9.2709,7.4639,11.5,7.4639S15.5361,9.2709,15.5361,11.5z" id="b" fill="#FFFFFF"/>
      <path d="M11.5,16c-2.4813,0,-4.5,-2.0187,-4.5,-4.5s2.0187,-4.5,4.5,-4.5s4.5,2.0187,4.5,4.5S13.9813,16,11.5,16zM11.5,7.9648c-1.9493,0,-3.5352,1.5859,-3.5352,3.5352S9.5507,15.0352,11.5,15.0352s3.5352,-1.5859,3.5352,-3.5352S13.4493,7.9648,11.5,7.9648z" id="c3" fill="#BE123C"/>
      <path d="M13.0545,13.5421c-0.1303,0,-0.2528,-0.0507,-0.3449,-0.1427L11.5,12.1898l-1.2096,1.2096c-0.092,0.092,-0.2145,0.1427,-0.3449,0.1427c-0.1661,0,-0.3199,-0.084,-0.4112,-0.2247c-0.1235,-0.1903,-0.0926,-0.4488,0.0734,-0.6148L10.8102,11.5l-1.2026,-1.2026c-0.166,-0.1659,-0.1969,-0.4245,-0.0734,-0.6148c0.0913,-0.1407,0.245,-0.2247,0.4112,-0.2247c0.1304,0,0.2528,0.0507,0.3449,0.1427L11.5,10.8102l1.2026,-1.2026c0.0946,-0.0947,0.2248,-0.149,0.3572,-0.149c0.0923,0,0.1814,0.0262,0.2576,0.0757c0.1256,0.0815,0.2065,0.2127,0.222,0.3599c0.0155,0.1473,-0.0355,0.2917,-0.14,0.3962L12.1898,11.5l1.2026,1.2026c0.166,0.1659,0.1969,0.4245,0.0734,0.6148C13.3744,13.4581,13.2207,13.5421,13.0545,13.5421z" id="c3" fill="#BE123C"/>
    </g>
  </g>
</svg>
