<?xml version="1.0" encoding="UTF-8"?>
<!DOCTYPE svg PUBLIC "-//W3C//DTD SVG 1.1//EN" "http://www.w3.org/Graphics/SVG/1.1/DTD/svg11.dtd">
<svg version="1.1" id="Layer_1" xmlns="http://www.w3.org/2000/svg" xmlns:xlink="http://www.w3.org/1999/xlink" x="0px" y="0px" width="16px" height="16px" viewBox="0 0 16 16" enable-background="new 0 0 16 16" xml:space="preserve">
  <g id="icon">
    <path d="M10.5,14.5c-0.5514,0,-1,-0.4459,-1,-0.9941v-2.9881c0,-0.5503,-0.4486,-0.998,-1,-0.998H7.5c-0.5514,0,-1,0.4477,-1,0.998v2.9881c0,0.5481,-0.4486,0.9941,-1,0.9941H3.5c-0.5514,0,-1,-0.4459,-1,-0.9941V6.9626c0,-0.2717,0.1138,-0.5348,0.3123,-0.7216l4.8435,-4.5612c0.0933,-0.0879,0.2156,-0.1363,0.3442,-0.1363s0.2509,0.0484,0.3442,0.1363l4.8435,4.5612c0.1984,0.1869,0.3123,0.4499,0.3123,0.7216v6.5433c0,0.5481,-0.4486,0.9941,-1,0.9941H10.5z" id="b" fill="#F5F5F5"/>
    <path d="M7.313,1.3158c0.3855,-0.363,0.9885,-0.363,1.374,0l4.8435,4.5612c0.2997,0.2822,0.4695,0.6749,0.4695,1.0857v6.5433c0,0.8251,-0.6716,1.4941,-1.5,1.4941h-2c-0.8284,0,-1.5,-0.6689,-1.5,-1.4941v-2.9881c0,-0.275,-0.2239,-0.498,-0.5,-0.498H7.5c-0.2761,0,-0.5,0.223,-0.5,0.498v2.9881C7,14.3311,6.3284,15,5.5,15H3.5c-0.8284,0,-1.5,-0.6689,-1.5,-1.4941V6.9626c0,-0.4108,0.1698,-0.8034,0.4695,-1.0857L7.313,1.3158zM8,2.0395L3.1565,6.6008C3.0566,6.6948,3,6.8257,3,6.9626v6.5433c0,0.275,0.2239,0.498,0.5,0.498h2c0.2761,0,0.5,-0.223,0.5,-0.498v-2.9881c0,-0.8251,0.6716,-1.4941,1.5,-1.4941h1c0.8284,0,1.5,0.6689,1.5,1.4941v2.9881c0,0.275,0.2239,0.498,0.5,0.498h2c0.2761,0,0.5,-0.223,0.5,-0.498V6.9626c0,-0.1369,-0.0566,-0.2678,-0.1565,-0.3619L8,2.0395z" id="c1" fill="#404040"/>
  </g>
</svg>
