<?xml version="1.0" encoding="UTF-8"?>
<!DOCTYPE svg PUBLIC "-//W3C//DTD SVG 1.1//EN" "http://www.w3.org/Graphics/SVG/1.1/DTD/svg11.dtd">
<svg version="1.1" id="Layer_1" xmlns="http://www.w3.org/2000/svg" xmlns:xlink="http://www.w3.org/1999/xlink" x="0px" y="0px" width="16px" height="16px" viewBox="0 0 16 16" enable-background="new 0 0 16 16" xml:space="preserve">
  <g id="main">
    <g id="icon">
      <path d="M1.5,12.13L1.528,12.41L1.608,12.66L1.734,12.9L1.901,13.1L2.104,13.27L2.335,13.39L2.591,13.47L2.865,13.5L6.166,13.5L6.145,13.45L5.956,12.83L5.84,12.18L5.8,11.5L5.829,10.92L5.916,10.35L6.057,9.807L6.249,9.283L6.489,8.785L6.5,8.767L6.775,8.315L7.103,7.876L7.471,7.471L7.876,7.103L8.315,6.775L8.5,6.662L8.785,6.489L9.283,6.249L9.807,6.057L10.35,5.916L10.92,5.829L11.5,5.8L11.5,2.5L1.5,2.5zz" fill="#FFFFFF" opacity="0.5"/>
      <path d="M0,3L1,3L1,12.13L1.038,12.51L1.147,12.86L1.319,13.18L1.547,13.45L1.823,13.68L2.14,13.85L2.49,13.96L2.865,14L6.382,14L6.145,13.45L6.008,13L2.865,13L2.529,12.93L2.254,12.75L2.068,12.47L2,12.13L2,3L11,3L11,5.825L11.5,5.8L12,5.829L12,3L13,3L13,2L0,2zM4,11L5,11L5,5L4,5zM6,10.03L6.057,9.807L6.249,9.283L6.489,8.785L6.775,8.315L7,8.014L7,5L6,5zM8,7.011L8.315,6.775L8.785,6.489L9,6.385L9,5L8,5zz" fill="#6D6E71"/>
      <path d="M4.723,0.09316L4.347,0.3469L4.093,0.7229L4,1.183L4,2.5L5,2.5L5,1.183L5.054,1.054L5.183,1L7.817,1L7.946,1.054L8,1.183L8,2.5L9,2.5L9,1.183L8.907,0.7229L8.653,0.3469L8.277,0.09316L7.817,0L5.183,0zz" fill="#6D6E71"/>
    </g>
    <g id="overlay">
      <path d="M14.682,8.318c-1.7574,-1.7574,-4.6066,-1.7574,-6.364,0c-1.7574,1.7574,-1.7574,4.6066,0,6.364c1.7574,1.7574,4.6066,1.7574,6.364,0S16.4393,10.0754,14.682,8.318zM14.1163,13.3385l-0.7778,0.7778L11.5,12.2778l-1.8385,1.8385l-0.7778,-0.7778L10.7222,11.5L8.8837,9.6615l0.7778,-0.7778L11.5,10.7222l1.8385,-1.8385l0.7778,0.7778L12.2778,11.5L14.1163,13.3385z" fill="#CB525D"/>
      <polygon points="11.5,12.4192 9.6615,14.2577 8.7423,13.3385 10.5808,11.5 8.7423,9.6615 9.6615,8.7423 11.5,10.5808 13.3385,8.7423 14.2577,9.6615 12.4192,11.5 14.2577,13.3385 13.3385,14.2577" fill="#FFFFFF" stroke-linejoin="miter"/>
    </g>
  </g>
</svg>
