<?xml version="1.0" encoding="UTF-8"?>
<!DOCTYPE svg PUBLIC "-//W3C//DTD SVG 1.1//EN" "http://www.w3.org/Graphics/SVG/1.1/DTD/svg11.dtd">
<svg version="1.1" id="Layer_1" xmlns="http://www.w3.org/2000/svg" xmlns:xlink="http://www.w3.org/1999/xlink" x="0px" y="0px" width="16px" height="16px" viewBox="0 0 16 16" enable-background="new 0 0 16 16" xml:space="preserve">
  <g id="main">
    <g id="icon">
      <path d="M10.09,0.05312L9.578,0.2096L9.105,0.4639L8.685,0.8113L4.953,4.568L4.6,5.003L4.348,5.486L4.197,6.001L4.147,6.532L4.197,7.063L4.349,7.578L4.601,8.061L4.953,8.496L5.537,9.082L5.858,9.359L6.153,9.543L6.249,9.283L6.489,8.785L6.69,8.455L6.673,8.446L6.392,8.223L5.809,7.637L5.61,7.392L5.468,7.12L5.383,6.83L5.355,6.532L5.383,6.233L5.468,5.943L5.61,5.671L5.809,5.426L9.541,1.67L9.776,1.475L10.04,1.332L10.33,1.245L10.64,1.215L10.94,1.245L11.23,1.332L11.5,1.475L11.73,1.67L12.34,2.281L12.54,2.526L12.68,2.798L12.76,3.088L12.79,3.386L12.76,3.685L12.68,3.974L12.54,4.246L12.34,4.491L11.01,5.825L11.5,5.8L12.18,5.84L12.62,5.92L13.19,5.35L13.55,4.915L13.8,4.432L13.95,3.917L14,3.387L13.95,2.856L13.8,2.341L13.55,1.858L13.19,1.423L12.59,0.8113L12.17,0.4639L11.69,0.2096L11.18,0.05312L10.64,0zz" fill="#6485C3"/>
      <path d="M7.151,5.012L6.952,5.329L6.923,5.412L7.006,5.44L7.334,5.593L7.616,5.815L8.199,6.398L8.398,6.642L8.431,6.704L8.785,6.489L9.283,6.249L9.508,6.166L9.408,5.976L9.055,5.543L8.471,4.959L8.149,4.684L7.791,4.461L7.735,4.432zM0.807,8.675L0.4539,9.108L0.2018,9.589L0.05059,10.1L0,10.63L0.05059,11.16L0.2018,11.67L0.4539,12.15L0.807,12.58L1.415,13.19L1.835,13.54L2.309,13.79L2.824,13.95L3.368,14L3.911,13.95L4.426,13.79L4.9,13.54L5.32,13.19L5.915,12.6L5.84,12.18L5.8,11.5L5.827,10.97L4.464,12.34L4.228,12.53L3.962,12.67L3.673,12.76L3.367,12.79L3.062,12.76L2.772,12.67L2.507,12.53L2.271,12.34L1.663,11.73L1.464,11.49L1.322,11.21L1.237,10.93L1.209,10.63L1.237,10.33L1.321,10.04L1.463,9.775L1.661,9.531L3.538,7.668L3.522,7.618L3.386,6.989L3.369,6.344L3.383,6.116zz" fill="#6485C3"/>
    </g>
    <g id="overlay">
      <path d="M11.5,7c-2.4853,0,-4.5,2.0147,-4.5,4.5s2.0147,4.5,4.5,4.5c2.4853,0,4.5,-2.0147,4.5,-4.5S13.9853,7,11.5,7zM13.7931,12.2652L12.2,10.7114V14.6h-1.4v-3.8886l-1.5931,1.5538l-0.9837,-0.9262L11.5,8.1228l3.2767,3.2161L13.7931,12.2652z" fill="#CB525D"/>
      <polygon points="8.2233,11.3389 9.2069,12.2652 10.8,10.7114 10.8,14.6 12.2,14.6 12.2,10.7114 13.7931,12.2652 14.7767,11.3389 11.5,8.1228" fill="#FFFFFF" stroke-linejoin="miter"/>
    </g>
  </g>
</svg>
