<?xml version="1.0" encoding="UTF-8"?>
<!DOCTYPE svg PUBLIC "-//W3C//DTD SVG 1.1//EN" "http://www.w3.org/Graphics/SVG/1.1/DTD/svg11.dtd">
<svg version="1.1" id="Layer_1" xmlns="http://www.w3.org/2000/svg" xmlns:xlink="http://www.w3.org/1999/xlink" x="0px" y="0px" width="16px" height="16px" viewBox="0 0 16 16" enable-background="new 0 0 16 16" xml:space="preserve">
  <g id="main">
    <g id="icon">
      <path d="M10.13,0.05215L9.625,0.2055L9.158,0.4551L8.744,0.7961L5.817,3.726L6.56,4.468L9.486,1.538L9.741,1.329L10.03,1.176L10.34,1.082L10.67,1.05L11,1.082L11.31,1.176L11.6,1.329L11.85,1.538L12.46,2.147L12.68,2.409L12.83,2.701L12.92,3.012L12.95,3.332L12.92,3.653L12.83,3.963L12.68,4.255L12.46,4.518L11.16,5.817L11.5,5.8L12.18,5.84L12.56,5.908L13.2,5.26L13.55,4.833L13.8,4.359L13.95,3.853L14,3.332L13.95,2.811L13.8,2.306L13.55,1.832L13.2,1.405L12.6,0.7961L12.18,0.4551L11.71,0.2055L11.21,0.05215L10.67,0zz" fill="#F1876B"/>
      <path d="M0.7945,8.74L0.4463,9.167L0.1975,9.641L0.04805,10.15L-0,10.65L0,10.69L0.04805,11.19L0.1975,11.69L0.4463,12.17L0.7945,12.6L1.402,13.2L1.817,13.54L2.284,13.79L2.792,13.95L3.329,14L3.865,13.95L4.373,13.79L4.84,13.55L5.254,13.2L5.907,12.55L5.84,12.18L5.8,11.5L5.817,11.16L4.512,12.46L4.258,12.67L3.971,12.82L3.659,12.92L3.329,12.95L2.999,12.92L2.687,12.82L2.4,12.67L2.145,12.46L1.538,11.85L1.323,11.59L1.17,11.3L1.078,10.99L1.048,10.67L1.078,10.35L1.17,10.04L1.323,9.746L1.537,9.483L4.43,6.6L3.689,5.857zz" fill="#F1876B"/>
      <path d="M0,5.25L2.625,5.25L2.625,4.375L-0,4.375zz" fill="#6E6F72"/>
      <path d="M4.374,2.625L5.249,2.625L5.249,0L4.374,0zz" fill="#6E6F72"/>
      <path d="M0.7801,1.324L2.681,3.225L3.3,2.606L1.399,0.7049zz" fill="#6E6F72"/>
    </g>
    <g id="overlay">
      <path d="M11.5,7c-2.4853,0,-4.5,2.0147,-4.5,4.5s2.0147,4.5,4.5,4.5c2.4853,0,4.5,-2.0147,4.5,-4.5S13.9853,7,11.5,7zM13.7931,12.2652L12.2,10.7114V14.6h-1.4v-3.8886l-1.5931,1.5538l-0.9837,-0.9262L11.5,8.1228l3.2767,3.2161L13.7931,12.2652z" fill="#CB525D"/>
      <polygon points="8.2233,11.3389 9.2069,12.2652 10.8,10.7114 10.8,14.6 12.2,14.6 12.2,10.7114 13.7931,12.2652 14.7767,11.3389 11.5,8.1228" fill="#FFFFFF" stroke-linejoin="miter"/>
    </g>
  </g>
</svg>
