<?xml version="1.0" encoding="UTF-8"?>
<!DOCTYPE svg PUBLIC "-//W3C//DTD SVG 1.1//EN" "http://www.w3.org/Graphics/SVG/1.1/DTD/svg11.dtd">
<svg version="1.1" id="Layer_1" xmlns="http://www.w3.org/2000/svg" xmlns:xlink="http://www.w3.org/1999/xlink" x="0px" y="0px" width="16px" height="16px" viewBox="0 0 16 16" enable-background="new 0 0 16 16" xml:space="preserve">
  <g id="icon">
    <path d="M9.6537,6.0533c0.2477,-0.0451,0.4989,-0.0678,0.7515,-0.0678c2.3726,0,4.3029,1.9771,4.3029,4.4072c0,0.0568,-0.0021,0.1131,-0.0042,0.1694c0.4335,-0.4881,0.6998,-1.1464,0.6998,-1.8714c0,-1.2605,-0.8038,-2.3206,-1.8949,-2.6313C13.2559,4.05,11.6415,2.5,9.6862,2.5c-1.2864,0,-2.4253,0.6711,-3.1261,1.7024C7.775,4.3992,8.8886,5.0624,9.6537,6.0533z" fill="#FFFFFF" opacity="0.5"/>
    <path d="M14.0393,5.6132C13.602,3.4718,11.79,1.9,9.6862,1.9c-1.5622,0,-2.9913,0.862,-3.794,2.2425c0.4447,0.0081,0.8822,0.078,1.3011,0.2059C7.8038,3.57,8.7106,3.1,9.6862,3.1c1.6242,0,3.0133,1.3047,3.231,3.0349c0.0301,0.2388,0.199,0.4364,0.4292,0.502c0.8602,0.245,1.461,1.0896,1.461,2.054c0,0.3123,-0.0641,0.6082,-0.1764,0.8755c0.0498,0.2679,0.077,0.5439,0.077,0.8265c0,0.3704,-0.0454,0.7301,-0.1298,1.0741C15.4339,10.8718,16,9.8499,16,8.6908C16,7.3302,15.2107,6.1173,14.0393,5.6132z" fill="#6485C3"/>
    <path d="M9.0518,7.7232c0.4093,-0.2207,0.8746,-0.3462,1.3685,-0.3462c1.6341,0,2.9589,1.3664,2.9589,3.0519c0,1.6855,-1.3247,3.0519,-2.9589,3.0519H2.8731c-1.3026,0,-2.3585,-1.0892,-2.3585,-2.4327c0,-1.1257,0.7415,-2.0724,1.7481,-2.3499c0.2333,-1.7946,1.7227,-3.1789,3.5264,-3.1789C7.2489,5.5192,8.5028,6.4261,9.0518,7.7232z" fill="#FFFFFF" opacity="0.5"/>
    <path d="M2.9118,14C1.3062,14,0,12.6577,0,11.0079c0,-1.2018,0.7229,-2.3095,1.8022,-2.7667C2.2172,6.3264,3.8965,4.94,5.807,4.94c1.4256,0,2.764,0.7749,3.5048,2.0255c0.3543,-0.1195,0.7219,-0.18,1.0935,-0.18c1.9342,0,3.5078,1.6182,3.5078,3.6073S12.3394,14,10.4052,14H2.9118zM5.807,6.0909c-1.477,0,-2.7392,1.1424,-2.936,2.6573c-0.0299,0.2306,-0.1928,0.4191,-0.415,0.4803c-0.7747,0.2137,-1.3158,0.9454,-1.3158,1.7794c0,1.0153,0.7947,1.8413,1.7716,1.8413h7.4934c1.3055,0,2.3676,-1.1019,2.3676,-2.4564c0,-1.3545,-1.0621,-2.4564,-2.3676,-2.4564c-0.3837,0,-0.7505,0.0928,-1.09,0.276c-0.0823,0.0445,-0.1752,0.068,-0.2687,0.068c-0.0646,0,-0.1283,-0.011,-0.1893,-0.0326c-0.1503,-0.0534,-0.2725,-0.1689,-0.335,-0.3168C8.0493,6.8131,6.9835,6.0909,5.807,6.0909z" fill="#6485C3"/>
  </g>
</svg>
