<?xml version="1.0" encoding="UTF-8"?>
<!DOCTYPE svg PUBLIC "-//W3C//DTD SVG 1.1//EN" "http://www.w3.org/Graphics/SVG/1.1/DTD/svg11.dtd">
<svg version="1.1" id="Layer_1" xmlns="http://www.w3.org/2000/svg" xmlns:xlink="http://www.w3.org/1999/xlink" x="0px" y="0px" width="16px" height="16px" viewBox="0 0 16 16" enable-background="new 0 0 16 16" xml:space="preserve">
  <g id="main">
    <g id="icon">
      <path d="M5.168,1.604L4.544,1.792L3.972,2.091L3.463,2.489L3.028,2.974L2.679,3.535L2.426,4.159L2.28,4.835L1.913,4.975L1.577,5.173L1.277,5.425L1.019,5.724L0.8086,6.064L0.6512,6.439L0.5527,6.844L0.5186,7.272L0.5668,7.78L0.7053,8.254L0.9244,8.683L1.215,9.056L1.566,9.364L1.97,9.597L2.416,9.744L2.895,9.795L6.061,9.795L6.249,9.283L6.489,8.785L6.775,8.315L7.103,7.876L7.471,7.471L7.876,7.103L8.315,6.775L8.785,6.489L9.283,6.249L9.807,6.057L10.35,5.916L10.92,5.829L11.5,5.8L12.18,5.84L12.83,5.956L13.43,6.14L13.42,5.992L13.25,5.398L12.97,4.86L12.61,4.392L12.17,4.005L11.66,3.714L11.1,3.529L10.5,3.465L9.779,3.559L9.121,3.824L8.881,3.34L8.581,2.899L8.226,2.51L7.821,2.177L7.374,1.907L6.89,1.706L6.374,1.581L5.833,1.538zz" fill="#FFFFFF" opacity="0.5"/>
      <path d="M5.121,1.066L4.445,1.258L3.818,1.564L3.251,1.973L2.756,2.475L2.345,3.059L2.029,3.714L1.821,4.429L1.431,4.631L1.078,4.889L0.7672,5.197L0.5029,5.549L0.2895,5.939L0.1316,6.36L0.03359,6.806L0,7.272L0.05898,7.888L0.2279,8.462L0.4951,8.982L0.8488,9.436L1.278,9.81L1.769,10.09L2.312,10.27L2.895,10.33L5.921,10.33L6.057,9.807L6.249,9.283L6.262,9.256L2.895,9.256L2.521,9.216L2.172,9.1L1.857,8.917L1.582,8.675L1.355,8.381L1.183,8.044L1.075,7.671L1.037,7.272L1.063,6.941L1.138,6.626L1.422,6.063L1.623,5.826L1.858,5.625L2.124,5.466L2.417,5.354L2.671,5.189L2.794,4.905L2.921,4.321L3.14,3.783L3.442,3.302L3.817,2.886L4.254,2.547L4.742,2.292L5.272,2.132L5.833,2.077L6.284,2.112L6.718,2.216L7.129,2.383L7.512,2.61L7.861,2.893L8.17,3.228L8.433,3.61L8.644,4.036L8.767,4.217L8.949,4.332L9.161,4.361L9.365,4.299L9.915,4.078L10.5,4.003L11,4.057L11.46,4.21L11.88,4.453L12.24,4.774L12.54,5.162L12.77,5.609L12.87,5.971L13.45,6.145L13.98,6.371L13.93,5.885L13.72,5.19L13.4,4.561L12.97,4.012L12.46,3.56L11.86,3.218L11.2,3.002L10.5,2.927L9.923,2.977L9.363,3.128L9.061,2.661L8.708,2.243L8.309,1.88L7.871,1.573L7.399,1.328L6.898,1.148L6.374,1.038L5.833,1zz" fill="#6485C3"/>
    </g>
    <g id="overlay">
      <path d="M11.5,7c-2.4853,0,-4.5,2.0147,-4.5,4.5c0,2.4853,2.0147,4.5,4.5,4.5s4.5,-2.0147,4.5,-4.5C16,9.0147,13.9853,7,11.5,7zM14.6,12.2h-2.4v2.4h-1.4v-2.4H8.4v-1.4h2.4V8.4h1.4v2.4h2.4V12.2z" fill="#52B250"/>
      <polygon points="10.8,14.6 10.8,12.2 8.4,12.2 8.4,10.8 10.8,10.8 10.8,8.4 12.2,8.4 12.2,10.8 14.6,10.8 14.6,12.2 12.2,12.2 12.2,14.6" fill="#FFFFFF" stroke-linejoin="miter"/>
    </g>
  </g>
</svg>
