<?xml version="1.0" encoding="UTF-8"?>
<!DOCTYPE svg PUBLIC "-//W3C//DTD SVG 1.1//EN" "http://www.w3.org/Graphics/SVG/1.1/DTD/svg11.dtd">
<svg version="1.1" id="Layer_1" xmlns="http://www.w3.org/2000/svg" xmlns:xlink="http://www.w3.org/1999/xlink" x="0px" y="0px" width="16px" height="16px" viewBox="0 0 16 16" enable-background="new 0 0 16 16" xml:space="preserve">
  <g id="icon">
    <path d="M10.424,6.8165c0.4714,-0.2526,1.0072,-0.3963,1.576,-0.3963c1.8819,0,3.4074,1.5638,3.4074,3.4928c0,1.929,-1.5255,3.4928,-3.4074,3.4928H3.3086c-1.5,0,-2.716,-1.2465,-2.716,-2.7841c0,-1.2883,0.8539,-2.3718,2.0131,-2.6894c0.2687,-2.0538,1.9838,-3.6381,4.061,-3.6381C8.3478,4.2942,9.7918,5.3321,10.424,6.8165z" fill="#FFFFFF" opacity="0.5"/>
    <path d="M12,14H3.3086C1.4842,14,0,12.4845,0,10.6217C0,9.2294,0.8388,7.9905,2.0813,7.484C2.5404,5.3022,4.4502,3.7,6.6667,3.7c1.6697,0,3.1964,0.9045,4.0343,2.3479c0.4168,-0.146,0.8572,-0.2218,1.299,-0.2218c2.2056,0,4,1.8334,4,4.087S14.2056,14,12,14zM6.6667,4.8885c-1.7474,0,-3.2407,1.3418,-3.4734,3.1211c-0.0311,0.2373,-0.2011,0.4329,-0.4314,0.4959c-0.9283,0.2544,-1.5767,1.1246,-1.5767,2.1162c0,1.2075,0.9526,2.1899,2.1235,2.1899H12c1.5521,0,2.8148,-1.3003,2.8148,-2.8985S13.5521,7.0145,12,7.0145c-0.4566,0,-0.8928,0.1097,-1.2966,0.3261c-0.1465,0.0786,-0.3192,0.0918,-0.4759,0.0365c-0.1567,-0.0553,-0.2831,-0.1739,-0.3483,-0.3271C9.3198,5.7369,8.0588,4.8885,6.6667,4.8885z" fill="#6485C3"/>
  </g>
</svg>
