<?xml version="1.0" encoding="UTF-8"?>
<!DOCTYPE svg PUBLIC "-//W3C//DTD SVG 1.1//EN" "http://www.w3.org/Graphics/SVG/1.1/DTD/svg11.dtd">
<svg version="1.1" id="Layer_1" xmlns="http://www.w3.org/2000/svg" xmlns:xlink="http://www.w3.org/1999/xlink" x="0px" y="0px" width="16px" height="16px" viewBox="0 0 16 16" enable-background="new 0 0 16 16" xml:space="preserve">
  <g id="icon">
    <rect x="1.5" y="0.5" width="12" height="15" fill="#FFFFFF" opacity="0.5"/>
    <path d="M14,16H1V0h13V16zM2,15h11V1H2V15z" fill="#6D6E71"/>
    <path d="M12,4H3V0h9V4zM10,3h1V1h-1V3zM8,3h1V1H8V3zM6,3h1V1H6V3zM4,3h1V1H4V3z" fill="#EEAC55"/>
    <path d="M7.5,14.05c-2.5089,0,-4.55,-2.0411,-4.55,-4.55S4.9911,4.95,7.5,4.95s4.55,2.0411,4.55,4.55S10.0089,14.05,7.5,14.05zM7.5,5.85c-2.0126,0,-3.65,1.6374,-3.65,3.65s1.6374,3.65,3.65,3.65s3.65,-1.6374,3.65,-3.65S9.5126,5.85,7.5,5.85z" fill="#6D6E71"/>
    <path d="M7.4988,11.05c-0.854,0,-1.5488,-0.6948,-1.5488,-1.5488c0,-0.8541,0.6948,-1.5489,1.5488,-1.5489c0.8541,0,1.5489,0.6948,1.5489,1.5489C9.0477,10.3552,8.3529,11.05,7.4988,11.05zM7.4988,8.8523c-0.3578,0,-0.6488,0.2911,-0.6488,0.6489c0,0.3578,0.2911,0.6488,0.6488,0.6488c0.3578,0,0.6489,-0.2911,0.6489,-0.6488C8.1477,9.1434,7.8566,8.8523,7.4988,8.8523z" fill="#6D6E71"/>
  </g>
</svg>
