<?xml version="1.0" encoding="UTF-8"?>
<!DOCTYPE svg PUBLIC "-//W3C//DTD SVG 1.1//EN" "http://www.w3.org/Graphics/SVG/1.1/DTD/svg11.dtd">
<svg version="1.1" id="Layer_1" xmlns="http://www.w3.org/2000/svg" xmlns:xlink="http://www.w3.org/1999/xlink" x="0px" y="0px" width="16px" height="16px" viewBox="0 0 16 16" enable-background="new 0 0 16 16" xml:space="preserve">
  <g id="main">
    <g id="icon">
      <path d="M2.698,2.53L2.417,2.618L2.162,2.756L1.94,2.94L1.756,3.162L1.618,3.417L1.53,3.698L1.5,4L1.5,12L1.53,12.3L1.618,12.58L1.756,12.84L1.94,13.06L2.162,13.24L2.417,13.38L2.698,13.47L3,13.5L6.378,13.5L6.368,13.48L6.167,12.85L6.043,12.19L6,11.5L6.029,10.94L6.112,10.39L6.248,9.866L6.433,9.361L6.665,8.88L6.941,8.427L7.257,8.004L7.613,7.613L8.004,7.257L8.427,6.941L8.88,6.665L9.361,6.433L9.866,6.248L10.39,6.112L10.94,6.029L11.5,6L12.19,6.043L12.85,6.167L13.48,6.368L14.07,6.641L14.5,6.901L14.5,5L14.47,4.698L14.38,4.417L14.24,4.162L14.06,3.94L13.84,3.756L13.58,3.618L13.3,3.53L13,3.5L8,3.5L6.75,2.5L3,2.5zz" fill="#F5F5F5"/>
      <path d="M2.597,2.041L2.221,2.157L1.882,2.342L1.586,2.586L1.342,2.882L1.157,3.221L1.041,3.597L1,4L1,12L1.041,12.4L1.157,12.78L1.342,13.12L1.586,13.41L1.882,13.66L2.221,13.84L2.597,13.96L3,14L6.607,14L6.368,13.48L6.216,13L3,13L2.611,12.92L2.293,12.71L2.079,12.39L2,12L2,5.5L6.75,5.5L6.93,5.466L7.086,5.37L8.593,4L13,4L13.39,4.079L13.71,4.293L13.92,4.611L14,5L14,6.607L14.07,6.641L14.63,6.98L15,7.272L15,5L14.96,4.597L14.84,4.221L14.66,3.882L14.41,3.586L14.12,3.342L13.78,3.157L13.4,3.041L13,3L8.175,3L7.062,2.11L6.915,2.028L6.75,2L3,2zM6.575,3L7.443,3.695L6.557,4.5L2,4.5L2,4L2.079,3.611L2.293,3.293L2.611,3.079L3,3zz" fill="#404040"/>
    </g>
    <g id="overlay">
      <circle cx="11.5" cy="11.5" r="4" id="b" fill="#FFFFFF"/>
      <path d="M11.5,7c-2.4853,0,-4.5,2.0147,-4.5,4.5c0,2.4853,2.0147,4.5,4.5,4.5c2.4853,0,4.5,-2.0147,4.5,-4.5C16,9.0147,13.9853,7,11.5,7zM11.5,15c-1.933,0,-3.5,-1.567,-3.5,-3.5s1.567,-3.5,3.5,-3.5s3.5,1.567,3.5,3.5S13.433,15,11.5,15z" id="c3" fill="#047857"/>
      <path d="M13.5,11h-1.5V9.5c0,-0.2761,-0.2239,-0.5,-0.5,-0.5s-0.5,0.2239,-0.5,0.5v1.5H9.5c-0.2761,0,-0.5,0.2239,-0.5,0.5s0.2239,0.5,0.5,0.5h1.5v1.5c0,0.2761,0.2239,0.5,0.5,0.5s0.5,-0.2239,0.5,-0.5v-1.5h1.5c0.2761,0,0.5,-0.2239,0.5,-0.5S13.7761,11,13.5,11z" id="c3" fill="#047857"/>
    </g>
  </g>
</svg>
