<?xml version="1.0" encoding="UTF-8"?>
<!DOCTYPE svg PUBLIC "-//W3C//DTD SVG 1.1//EN" "http://www.w3.org/Graphics/SVG/1.1/DTD/svg11.dtd">
<svg version="1.1" id="Layer_1" xmlns="http://www.w3.org/2000/svg" xmlns:xlink="http://www.w3.org/1999/xlink" x="0px" y="0px" width="16px" height="16px" viewBox="0 0 16 16" enable-background="new 0 0 16 16" xml:space="preserve">
  <g id="icon">
    <path d="M3.8718,12.6067C2.5088,12.6067,1.4,11.5165,1.4,10.1765c0,-1.34,1.1088,-2.4302,2.4718,-2.4302H4.27l0.058,-0.3254C4.6406,5.6665,6.1849,4.3933,8,4.3933s3.3594,1.2733,3.672,3.0275l0.058,0.3254h0.3982c1.3629,0,2.4718,1.0902,2.4718,2.4302c0,1.3401,-1.1088,2.4303,-2.4718,2.4303H3.8718z" id="b" fill="#F5F5F5"/>
    <path d="M3.8718,13C2.3104,13,1.04,11.7401,1.04,10.1915S2.3104,7.383,3.8718,7.383h0.0957l0.0059,-0.0333C4.3162,5.4088,6.0096,4,8,4c1.9903,0,3.6838,1.4088,4.0267,3.3497l0.0059,0.0333h0.0957c1.5614,0,2.8318,1.2599,2.8318,2.8085S13.6896,13,12.1282,13H3.8718zM3.8718,8.3706c-1.0118,0,-1.8349,0.8168,-1.8349,1.8209s0.8231,1.8209,1.8349,1.8209h8.2564c1.0118,0,1.8349,-0.8168,1.8349,-1.8209s-0.8231,-1.8209,-1.8349,-1.8209h-0.5429c-0.2662,0,-0.4848,-0.2063,-0.4979,-0.4696C11.0064,6.2674,9.6502,4.9876,8,4.9876S4.9936,6.2674,4.9125,7.9011c-0.0131,0.2633,-0.2318,0.4696,-0.4979,0.4696H3.8718z" id="c1" fill="#0891b2"/>
  </g>
</svg>
