<?xml version="1.0" encoding="UTF-8"?>
<!DOCTYPE svg PUBLIC "-//W3C//DTD SVG 1.1//EN" "http://www.w3.org/Graphics/SVG/1.1/DTD/svg11.dtd">
<svg version="1.1" id="Layer_1" xmlns="http://www.w3.org/2000/svg" xmlns:xlink="http://www.w3.org/1999/xlink" x="0px" y="0px" width="24px" height="24px" viewBox="0 0 24 24" enable-background="new 0 0 24 24" xml:space="preserve">
  <g id="icon">
    <path d="M6.0687,17.4319c-1.9582,0,-3.5514,-1.5747,-3.5514,-3.5104c0,-1.9356,1.5932,-3.5103,3.5515,-3.5103h0.5721l0.0833,-0.47c0.4491,-2.534,2.668,-4.3731,5.2759,-4.3731s4.8267,1.8391,5.2759,4.3731l0.0833,0.47h0.5721c1.9582,0,3.5514,1.5747,3.5514,3.5103c0,1.9357,-1.5932,3.5104,-3.5514,3.5104H6.0687z" id="b" fill="#F5F5F5"/>
    <path d="M6.0687,18C3.8252,18,2,16.1802,2,13.9433s1.8252,-4.0567,4.0687,-4.0567h0.1374l0.0084,-0.048C6.7071,7.0349,9.1403,5,12,5c2.8597,0,5.2928,2.0349,5.7854,4.8385l0.0084,0.048h0.1375c2.2434,0,4.0687,1.8198,4.0687,4.0567S20.1748,18,17.9313,18H6.0687zM6.0687,11.3131c-1.4537,0,-2.6363,1.1799,-2.6363,2.6301c0,1.4503,1.1826,2.6301,2.6363,2.6301h11.8627c1.4537,0,2.6363,-1.1799,2.6363,-2.6301c0,-1.4503,-1.1826,-2.6301,-2.6363,-2.6301h-0.78c-0.3824,0,-0.6966,-0.298,-0.7153,-0.6782C16.3195,8.2751,14.371,6.4266,12,6.4266s-4.3195,1.8485,-4.436,4.2083c-0.0188,0.3803,-0.333,0.6782,-0.7154,0.6782H6.0687z" id="c1" fill="#0E7490"/>
  </g>
</svg>
