<?xml version="1.0" encoding="UTF-8"?>
<!DOCTYPE svg PUBLIC "-//W3C//DTD SVG 1.1//EN" "http://www.w3.org/Graphics/SVG/1.1/DTD/svg11.dtd">
<svg version="1.1" id="Layer_1" xmlns="http://www.w3.org/2000/svg" xmlns:xlink="http://www.w3.org/1999/xlink" x="0px" y="0px" width="16px" height="16px" viewBox="0 0 16 16" enable-background="new 0 0 16 16" xml:space="preserve">
  <g id="main">
    <g id="icon">
      <path d="M2.965,2.534L2.599,2.632L2.278,2.791L2.008,3.008L1.791,3.278L1.632,3.599L1.534,3.965L1.5,4.375L1.5,12.62L1.534,13.03L1.632,13.4L1.791,13.72L2.008,13.99L2.278,14.21L2.599,14.37L2.965,14.47L3.375,14.5L4.314,14.5L4.097,13.87L4,13L4.077,12.22L4.297,11.49L4.647,10.83L5.112,10.25L5.678,9.759L6.33,9.379L7.055,9.123L7.838,9.006L7.865,9.005L8.049,9L9.236,9L9.616,9.048L9.961,9.182L10.26,9.391L10.5,9.663L10.69,9.435L10.92,9.249L11.19,9.109L11.49,9.024L11.53,9.017L11.72,9L12.94,9L13.83,9.097L14.6,9.356L14.6,4.375L14.57,3.965L14.47,3.599L14.31,3.278L14.09,3.008L13.82,2.791L13.5,2.632L13.13,2.534L12.72,2.5L3.375,2.5zM10.42,11.48L10.58,11.48L10.5,11.37zz" fill="#F5F5F5"/>
      <path d="M2.805,2.042L2.358,2.165L1.965,2.364L1.632,2.632L1.364,2.965L1.165,3.358L1.042,3.805L1,4.3L1,12.7L1.042,13.2L1.165,13.64L1.364,14.03L1.632,14.37L1.965,14.64L2.358,14.83L2.805,14.96L3.3,15L4.573,15L4.374,14.67L4.142,14L3.3,14L2.747,13.91L2.525,13.81L2.339,13.66L2.193,13.48L2.087,13.25L2,12.7L2,5L14,5L14,9.154L14.65,9.372L15,9.58L15,4.3L14.96,3.805L14.83,3.358L14.64,2.965L14.37,2.632L14.03,2.364L13.64,2.165L13.2,2.042L12.7,2L3.3,2zM12.7,3L13.25,3.087L13.48,3.193L13.66,3.339L13.81,3.525L13.91,3.747L13.95,4L2.047,4L2.087,3.747L2.193,3.525L2.339,3.339L2.525,3.193L2.747,3.087L3.3,3zM10.5,14.63L10.58,14.52L10.42,14.52zz" fill="#404040"/>
      <path d="M3.305,7.039L3.146,7.146L3.039,7.305L3,7.5L3.039,7.695L3.146,7.854L3.305,7.961L3.5,8L4.5,8L4.695,7.961L4.854,7.854L4.961,7.695L5,7.5L4.961,7.305L4.854,7.146L4.695,7.039L4.5,7L3.5,7zM6.305,7.039L6.146,7.146L6.039,7.305L6,7.5L6.039,7.695L6.146,7.854L6.305,7.961L6.5,8L12.5,8L12.69,7.961L12.85,7.854L12.96,7.695L13,7.5L12.96,7.305L12.85,7.146L12.69,7.039L12.5,7L6.5,7zM3.305,9.039L3.146,9.146L3.039,9.305L3,9.5L3.039,9.695L3.146,9.854L3.305,9.961L3.5,10L4.5,10L4.695,9.961L4.854,9.854L4.961,9.695L5,9.5L4.961,9.305L4.854,9.146L4.695,9.039L4.5,9L3.5,9zM6.305,9.039L6.146,9.146L6.039,9.305L6,9.5L6.013,9.564L6.33,9.379L7.055,9.123L7.838,9.006L7.865,9.005L8.049,9L9.236,9L9.616,9.048L9.961,9.182L10.26,9.391L10.5,9.663L10.69,9.435L10.92,9.249L11.19,9.109L11.49,9.024L11.53,9.017L11.72,9L6.5,9zM12.5,9L12.5,9L12.13,9zM3.305,11.04L3.146,11.15L3.039,11.31L3,11.5L3.039,11.69L3.146,11.85L3.305,11.96L3.5,12L4.144,12L4.297,11.49L4.552,11.01L4.5,11L3.5,11zM10.42,11.48L10.58,11.48L10.5,11.37zz" fill="#404040"/>
    </g>
    <g id="overlay">
      <path d="M11.764,16c-0.2909,-0.0002,-0.5286,-0.2309,-0.5299,-0.5146c-0.0011,-0.2498,0.1806,-0.4644,0.4321,-0.5104l0.0953,-0.0093l1.1793,-0.0034c1.1019,0,1.9986,-0.8811,1.9986,-1.964c0,-1.0323,-0.8201,-1.8932,-1.8672,-1.9599l-0.1349,-0.0042l-1.1729,0.0001c-0.2924,0,-0.5303,-0.2319,-0.5303,-0.517c0,-0.2498,0.1828,-0.4637,0.4345,-0.5085l0.0952,-0.0088l1.1772,0.0004c1.6868,0,3.0591,1.3448,3.0591,2.9979c0,1.5925,-1.2692,2.9074,-2.8894,2.9935l-0.1647,0.0044L11.764,16zM8.0591,15.9962C6.3723,15.9962,5,14.6513,5,12.9983c0,-1.5926,1.2699,-2.9075,2.8911,-2.9935l0.1706,-0.0044l1.1739,0.0001c0.2924,0,0.5303,0.2319,0.5303,0.5169c0,0.2498,-0.1827,0.4637,-0.4345,0.5086l-0.0952,0.0088l-1.1772,-0.0004c-1.102,0,-1.9984,0.881,-1.9984,1.964c0,1.0323,0.8201,1.8932,1.8671,1.9599l0.135,0.0042l1.1729,-0.0001c0.2924,0,0.5303,0.2319,0.5303,0.517c0,0.2498,-0.1828,0.4637,-0.4345,0.5085l-0.091,0.0085H8.0591zM8.1461,13.5152c-0.1423,-0.0001,-0.2759,-0.0543,-0.3761,-0.1528c-0.0994,-0.0975,-0.154,-0.2269,-0.154,-0.3644c0.0001,-0.2498,0.183,-0.4635,0.4349,-0.5083l0.0951,-0.0088l4.7079,0.0023c0.1423,0,0.2759,0.0542,0.3762,0.1527c0.0993,0.0975,0.154,0.2269,0.1539,0.3644c-0.0001,0.2499,-0.183,0.4636,-0.4348,0.5084l-0.0909,0.0083L8.1461,13.5152z" id="c1" fill="#404040"/>
    </g>
  </g>
</svg>
