<?xml version="1.0" encoding="UTF-8"?>
<!DOCTYPE svg PUBLIC "-//W3C//DTD SVG 1.1//EN" "http://www.w3.org/Graphics/SVG/1.1/DTD/svg11.dtd">
<svg version="1.1" id="Layer_1" xmlns="http://www.w3.org/2000/svg" xmlns:xlink="http://www.w3.org/1999/xlink" x="0px" y="0px" width="16px" height="16px" viewBox="0 0 16 16" enable-background="new 0 0 16 16" xml:space="preserve">
  <g id="main">
    <g id="icon">
      <path d="M2.698,2.53L2.417,2.618L2.162,2.756L1.94,2.94L1.756,3.162L1.618,3.417L1.53,3.698L1.5,4L1.5,12L1.53,12.3L1.618,12.58L1.756,12.84L1.94,13.06L2.162,13.24L2.417,13.38L2.698,13.47L3,13.5L6.571,13.5L6.562,13.48L6.364,12.85L6.242,12.19L6.2,11.5L6.228,10.94L6.31,10.39L6.443,9.866L6.625,9.361L6.853,8.88L7.123,8.427L7.783,7.613L8.167,7.257L8.583,6.941L9.028,6.665L9.5,6.433L9.996,6.248L10.51,6.112L11.05,6.029L11.6,6L12.27,6.042L12.91,6.165L13.53,6.364L14.11,6.633L14.5,6.872L14.5,5L14.47,4.698L14.38,4.417L14.24,4.162L14.06,3.94L13.84,3.756L13.58,3.618L13.3,3.53L13,3.5L8,3.5L6.75,2.5L3,2.5zz" fill="#F5F5F5"/>
      <path d="M2.597,2.041L2.221,2.157L1.882,2.342L1.586,2.586L1.342,2.882L1.157,3.221L1.041,3.597L1,4L1,12L1.041,12.4L1.157,12.78L1.342,13.12L1.586,13.41L1.882,13.66L2.221,13.84L2.597,13.96L3,14L6.796,14L6.562,13.48L6.412,13L3,13L2.611,12.92L2.293,12.71L2.079,12.39L2,12L2,5.5L6.75,5.5L6.93,5.466L7.086,5.37L8.593,4L13,4L13.39,4.079L13.71,4.293L13.92,4.611L14,5L14,6.581L14.11,6.633L14.66,6.969L15,7.242L15,5L14.96,4.597L14.84,4.221L14.66,3.882L14.41,3.586L14.12,3.342L13.78,3.157L13.4,3.041L13,3L8.175,3L7.062,2.11L6.915,2.028L6.75,2L3,2zM6.575,3L7.443,3.695L6.557,4.5L2,4.5L2,4L2.079,3.611L2.293,3.293L2.611,3.079L3,3zz" fill="#404040"/>
    </g>
    <g id="overlay">
      <path d="M15.5344,11.5c0,2.2223,-1.7615,4.0238,-3.9344,4.0238S7.6656,13.7223,7.6656,11.5S9.4271,7.4762,11.6,7.4762S15.5344,9.2777,15.5344,11.5z" id="b" fill="#FFFFFF"/>
      <path d="M11.6,7c-2.4261,0,-4.4,2.0187,-4.4,4.5c0,2.4813,1.9739,4.5,4.4,4.5s4.4,-2.0187,4.4,-4.5C16,9.0187,14.0261,7,11.6,7zM14.4466,9.4762h-1.0915c-0.1055,-0.4539,-0.246,-0.8752,-0.4191,-1.2498C13.5482,8.4887,14.0714,8.9259,14.4466,9.4762zM15.0688,11.5c0,0.3733,-0.057,0.7332,-0.1621,1.0714H13.518c0.0394,-0.3468,0.0609,-0.705,0.0609,-1.0714s-0.0215,-0.7247,-0.0609,-1.0715h1.3887C15.0118,10.7668,15.0688,11.1267,15.0688,11.5zM11.6,15.0476c-0.0274,0,-0.0545,-0.0015,-0.0818,-0.0021c-0.3035,-0.3642,-0.553,-0.8959,-0.7256,-1.5217h1.615c-0.1727,0.6258,-0.4221,1.1575,-0.7256,1.5217C11.6545,15.0462,11.6274,15.0476,11.6,15.0476zM10.6,12.5714c-0.0464,-0.3461,-0.0716,-0.7061,-0.0716,-1.0714s0.0252,-0.7253,0.0716,-1.0715h2c0.0464,0.3461,0.0716,0.7061,0.0716,1.0715s-0.0252,0.7253,-0.0716,1.0714H10.6zM8.1312,11.5c0,-0.3733,0.057,-0.7332,0.1621,-1.0715H9.682c-0.0394,0.3468,-0.0609,0.705,-0.0609,1.0715s0.0215,0.7247,0.0609,1.0714H8.2933C8.1883,12.2332,8.1312,11.8733,8.1312,11.5zM11.6,7.9524c0.0274,0,0.0545,0.0015,0.0818,0.0021c0.3035,0.3642,0.553,0.8959,0.7257,1.5217h-1.615c0.1727,-0.6258,0.4221,-1.1575,0.7257,-1.5217C11.5455,7.9538,11.5726,7.9524,11.6,7.9524zM10.264,8.2264c-0.1731,0.3746,-0.3136,0.7959,-0.4191,1.2498H8.7534C9.1286,8.9259,9.6518,8.4887,10.264,8.2264zM8.7534,13.5238h1.0915c0.1055,0.4539,0.246,0.8752,0.4191,1.2498C9.6518,14.5113,9.1286,14.0741,8.7534,13.5238zM12.936,14.7736c0.1731,-0.3746,0.3136,-0.7959,0.4191,-1.2498h1.0915C14.0714,14.0741,13.5482,14.5113,12.936,14.7736z" id="c1" fill="#404040"/>
    </g>
  </g>
</svg>
