<?xml version="1.0" encoding="UTF-8"?>
<!DOCTYPE svg PUBLIC "-//W3C//DTD SVG 1.1//EN" "http://www.w3.org/Graphics/SVG/1.1/DTD/svg11.dtd">
<svg version="1.1" id="Layer_1" xmlns="http://www.w3.org/2000/svg" xmlns:xlink="http://www.w3.org/1999/xlink" x="0px" y="0px" width="16px" height="16px" viewBox="0 0 16 16" enable-background="new 0 0 16 16" xml:space="preserve">
  <g id="main">
    <g id="icon">
      <path d="M7.334,4.451L6.704,4.62L6.123,4.889L5.601,5.249L5.149,5.692L4.778,6.208L4.501,6.787L4.328,7.421L4.27,7.746L3.872,7.746L3.374,7.796L2.911,7.938L2.491,8.162L2.125,8.459L1.823,8.819L1.595,9.231L1.45,9.687L1.4,10.18L1.45,10.67L1.595,11.12L1.823,11.53L2.125,11.89L2.491,12.19L2.911,12.42L3.374,12.56L3.872,12.61L6.949,12.61L6.972,12.56L7.305,12.14L11.72,7.717L11.67,7.421L11.5,6.787L11.22,6.208L10.85,5.692L10.4,5.249L9.877,4.889L9.296,4.62L8.666,4.451L8,4.393zz" fill="#F5F5F5"/>
      <path d="M7.27,4.064L6.579,4.25L5.942,4.548L5.369,4.947L4.873,5.437L4.467,6.007L4.163,6.648L3.973,7.35L3.968,7.383L3.872,7.383L3.302,7.44L2.771,7.604L2.29,7.863L1.87,8.206L1.524,8.622L1.263,9.099L1.098,9.626L1.04,10.19L1.098,10.76L1.263,11.28L1.524,11.76L1.87,12.18L2.29,12.52L2.771,12.78L3.302,12.94L3.872,13L6.765,13L6.972,12.56L7.305,12.14L7.43,12.01L3.872,12.01L3.503,11.98L3.158,11.87L2.847,11.7L2.575,11.48L2.351,11.21L2.181,10.9L2.074,10.56L2.037,10.19L2.074,9.825L2.181,9.483L2.351,9.174L2.575,8.904L2.847,8.682L3.158,8.514L3.503,8.408L3.872,8.371L3.872,8.371L4.415,8.371L4.603,8.334L4.758,8.235L4.867,8.086L4.912,7.901L5.001,7.307L5.197,6.757L5.49,6.261L5.868,5.832L6.319,5.479L6.833,5.213L7.397,5.046L8,4.988L8.603,5.046L9.167,5.213L9.681,5.479L10.13,5.832L10.51,6.261L10.8,6.757L11,7.307L11.09,7.901L11.13,8.086L11.23,8.215L12.06,7.383L12.03,7.383L12.03,7.35L11.84,6.648L11.53,6.007L11.13,5.437L10.63,4.947L10.06,4.548L9.421,4.25L8.73,4.064L8,4zz" fill="#404040"/>
    </g>
    <g id="overlay">
      <path d="M7.4834,15.5167l0.6679,-2.003c0.041,-0.1229,0.111,-0.2363,0.2027,-0.3279l5.4004,-5.4c0.1951,-0.1951,0.4545,-0.3025,0.7303,-0.3025c0.2759,0,0.5352,0.1074,0.7303,0.3025c0.4027,0.4027,0.4026,1.0579,-0.0001,1.4606l-5.4003,5.3999c-0.0916,0.0916,-0.205,0.1616,-0.3279,0.2026l-2.003,0.6677l0.0001,0L7.4834,15.5167z" id="b" fill="#FFFFFF"/>
      <path d="M7.4837,16c-0.1291,0,-0.2505,-0.0503,-0.3418,-0.1416c-0.1303,-0.1303,-0.1751,-0.3198,-0.1167,-0.4946l0.6676,-2.003c0.0646,-0.1937,0.1751,-0.3724,0.3195,-0.5169l5.4004,-5.4c0.2864,-0.2863,0.6671,-0.444,1.0721,-0.444s0.7857,0.1577,1.072,0.444c0.5911,0.5912,0.5911,1.5531,0,2.1442l-5.4004,5.4c-0.1445,0.1444,-0.3232,0.2549,-0.5168,0.3194l-2.003,0.6676C7.5871,15.9916,7.5357,16,7.4837,16L7.4837,16zM14.4846,7.9666c-0.1467,0,-0.2847,0.0572,-0.3884,0.1609l-5.4004,5.4c-0.0388,0.0388,-0.0686,0.0869,-0.086,0.1391l-0.3619,1.0859l1.086,-0.362c0.0521,-0.0174,0.1001,-0.0471,0.139,-0.086l4.6074,-4.6074l0.0139,-0.0134l0.779,-0.7792c0.1038,-0.1038,0.161,-0.2417,0.161,-0.3885c0,-0.1468,-0.0572,-0.2847,-0.161,-0.3885C14.7693,8.0238,14.6313,7.9666,14.4846,7.9666z" fill="#0891b2"/>
    </g>
  </g>
</svg>
