<?xml version="1.0" encoding="UTF-8"?>
<!DOCTYPE svg PUBLIC "-//W3C//DTD SVG 1.1//EN" "http://www.w3.org/Graphics/SVG/1.1/DTD/svg11.dtd">
<svg version="1.1" id="Layer_1" xmlns="http://www.w3.org/2000/svg" xmlns:xlink="http://www.w3.org/1999/xlink" x="0px" y="0px" width="16px" height="16px" viewBox="0 0 16 16" enable-background="new 0 0 16 16" xml:space="preserve">
  <g id="main">
    <g id="icon">
      <path d="M6.704,4.62L6.123,4.889L5.601,5.249L5.149,5.692L4.778,6.208L4.501,6.787L4.328,7.421L4.27,7.746L3.872,7.746L3.374,7.796L2.911,7.938L2.491,8.162L2.125,8.459L1.823,8.819L1.595,9.231L1.45,9.687L1.4,10.18L1.45,10.67L1.595,11.12L1.823,11.53L2.125,11.89L2.491,12.19L2.911,12.42L3.374,12.56L3.872,12.61L12.13,12.61L12.63,12.56L13.09,12.42L13.51,12.19L13.88,11.89L14.18,11.53L14.41,11.12L14.55,10.67L14.6,10.18L14.58,10L13.61,10L13.14,9.949L12.71,9.803L12.32,9.573L12,9.271L11.68,9.573L11.29,9.803L10.86,9.949L10.4,10L9.111,10L8.686,9.958L8.29,9.837L7.932,9.645L7.619,9.391L7.361,9.084L7.166,8.731L7.043,8.341L7,7.923L7,4.541zz" fill="#F5F5F5"/>
      <path d="M6.579,4.25L5.942,4.548L5.369,4.947L4.873,5.437L4.467,6.007L4.163,6.648L3.973,7.35L3.968,7.383L3.872,7.383L3.302,7.44L2.771,7.604L2.29,7.863L1.87,8.206L1.524,8.622L1.263,9.099L1.098,9.626L1.04,10.19L1.098,10.76L1.263,11.28L1.524,11.76L1.87,12.18L2.29,12.52L2.771,12.78L3.302,12.94L3.872,13L12.13,13L12.7,12.94L13.23,12.78L13.71,12.52L14.13,12.18L14.48,11.76L14.74,11.28L14.9,10.76L14.96,10.19L14.94,9.993L14.89,10L13.94,10L13.96,10.19L13.93,10.56L13.82,10.9L13.65,11.21L13.42,11.48L13.15,11.7L12.84,11.87L12.5,11.98L12.13,12.01L3.872,12.01L3.503,11.98L3.158,11.87L2.847,11.7L2.575,11.48L2.351,11.21L2.181,10.9L2.074,10.56L2.037,10.19L2.074,9.825L2.181,9.483L2.351,9.174L2.575,8.904L2.847,8.682L3.158,8.514L3.503,8.408L3.872,8.371L3.872,8.371L4.415,8.371L4.603,8.334L4.758,8.235L4.867,8.086L4.912,7.901L5.001,7.307L5.197,6.757L5.49,6.261L5.868,5.832L6.319,5.479L6.833,5.213L7,5.163L7,4.137zz" fill="#404040"/>
    </g>
    <g id="overlay">
      <path d="M13.6049,8.5438c-0.354,0,-0.642,-0.2784,-0.642,-0.6205V6.0581c0,-0.3435,-0.288,-0.623,-0.642,-0.623h-0.642c-0.354,0,-0.642,0.2795,-0.642,0.623v1.8652c0,0.3422,-0.288,0.6205,-0.642,0.6205h-1.284c-0.354,0,-0.642,-0.2784,-0.642,-0.6205V3.8389c0,-0.1696,0.0731,-0.3338,0.2005,-0.4505L11.779,0.5413c0.0599,-0.0549,0.1384,-0.0851,0.221,-0.0851s0.1611,0.0302,0.221,0.0851l3.1094,2.8472c0.1274,0.1166,0.2005,0.2808,0.2005,0.4505v4.0844c0,0.3422,-0.288,0.6205,-0.642,0.6205H13.6049z" id="b" fill="#FFFFFF"/>
      <path d="M13.6049,9c-0.6127,0,-1.1111,-0.483,-1.1111,-1.0767V6.0581c0,-0.092,-0.0775,-0.1668,-0.1728,-0.1668h-0.642c-0.0953,0,-0.1728,0.0748,-0.1728,0.1668v1.8653c0,0.5937,-0.4985,1.0767,-1.1111,1.0767h-1.284C8.4985,9,8,8.517,8,7.9233V3.8389c0,-0.2949,0.1268,-0.58,0.348,-0.7826l3.1094,-2.8471C11.6046,0.0743,11.7974,0,12,0s0.3954,0.0743,0.5426,0.2092l3.1094,2.8472c0.2212,0.2025,0.348,0.4877,0.348,0.7825v4.0845C16,8.517,15.5015,9,14.8889,9H13.6049zM12.321,4.9814c0.6127,0,1.1111,0.483,1.1111,1.0766v1.8653c0,0.092,0.0775,0.1668,0.1728,0.1668h1.284c0.0953,0,0.1728,-0.0748,0.1728,-0.1668V3.8389c0,-0.0456,-0.0196,-0.0897,-0.0539,-0.121L12,0.9637L8.9921,3.7179c-0.0342,0.0314,-0.0539,0.0754,-0.0539,0.121v4.0845c0,0.092,0.0775,0.1668,0.1728,0.1668h1.284c0.0953,0,0.1728,-0.0748,0.1728,-0.1668V6.0581c0,-0.5936,0.4985,-1.0766,1.1111,-1.0766H12.321z" fill="#0E7490"/>
    </g>
  </g>
</svg>
